<svg id="atoms-illustrations-customer-support" xmlns="http://www.w3.org/2000/svg" width="387.951" height="320" viewBox="0 0 387.951 320">
  <path id="Path_13" data-name="Path 13" d="M110.283,320.738s44.89-1.259,96.027-1.259c51.215-24.457,67.887-69.861,94.423-105.446C314.654,195.388,337.426,185,354.8,169.32c55.549-50.139,35.491-133.964-15.312-156.966C295.48-7.562,244.655-.425,181.674,33.285S73.314,88.757,40.248,155.935s14.316,132.291,70.033,164.8" transform="translate(-27.863 -1.333)" fill="#187ed1" fill-rule="evenodd"/>
  <g id="Group_6" data-name="Group 6" transform="translate(1.457)">
    <path id="Path_14" data-name="Path 14" d="M258.354,0c-31.389,0-66.278,10.691-106,31.953C96.664,61.757,54.738,82.221,22.915,133H92.747c5.134-4,13.084-9.69,17.612-10.41a4.235,4.235,0,0,1,.818-.076h.06c.08,0,.187,0,.267.009.04,0,.14.125.183.129l.131.1h.022l-.038-.1c.045,0-.009-.129.033-.129.08,0,.16-.009.238-.009h.06a4.105,4.105,0,0,1,.8.076,9.683,9.683,0,0,1,1.188.276c4.632.7,9.51,4.153,13.708,8.066.963.713,1.876,1.413,2.714,2.068h42.675q7.544-8.81,13.231-10.252V87.765h21.413V127.11h16.377L225.276,100l.954,28h7.014v5h4.064V113.7H249.3V74.574h42.931V133h2.184v-30.93h22.3V127.11h12.491V133H343.8c-3.414-19.047-7.037-48.212,2.25-50.407a3.89,3.89,0,0,1,.862-.1c3.75,0,6.382,6.052,8.227,14.664l3.641-3.824c-.258-35.582-19.325-69.052-48.613-82.315A123.912,123.912,0,0,0,258.354,0ZM286.73,79.605H254.854l6.4,23.193a13.632,13.632,0,0,0,3.425,5.533q2.975,2.965,6.061,2.964a8.761,8.761,0,0,0,6.172-2.964,11.982,11.982,0,0,0,3.255-5.533l6.567-23.2ZM358.78,94.574l-3.429,3.6c.8,3.942,1.444,8.369,1.961,12.968a99.649,99.649,0,0,0,1.471-16.571Zm-14.827,39.283H329.209v9.559a5.235,5.235,0,0,1,3.806-1.453c3.509,0,7.723,2.511,10.624,4.606.733-1.159,1.433-2.317,2.11-3.489C345.223,140.553,344.595,137.4,343.953,133.857Zm-51.723.408h2.184v-.408H292.23Zm-54.919-.408h-4.064v11.05a21.348,21.348,0,0,1,4.064-4.924Zm-64.812,0H131.634q1.7,1.352,3.365,2.759a1.587,1.587,0,0,1,.357.209,5.935,5.935,0,0,1,2.108,4.915c.876,1.159,1.413,1.925,1.522,2.081a.438.438,0,0,1,.074.2c.02.209,1.386,14.492,3.082,27.8h8.625V134.265h21.4l.14-.169.2-.238Zm-80.839,0H22.385q-3.4,5.489-6.493,11.161v53.288h4.49V186.969H40.13V170.035h5.225v-1.341H58.488l1.065-29.68,1.012,29.68H73.64v3.688h1.8v1.9h-1.8v2.627h1.8v1.731h-1.8v2.683h1.8v1.789h-1.8v1.23h9.635c.41-3.231.243-6.056-1.083-8.171C79.015,171.1,84.9,147.686,85.9,143.818c-.25-2.935.223-5.571,2.141-6.992.463-.4,1.791-1.52,3.614-2.968Zm88.89.824a4.338,4.338,0,0,0-.842.085,2.93,2.93,0,0,0-1.738,1.4,2.944,2.944,0,0,0,1.346,3.857,3.033,3.033,0,0,0,1.17.23,3.728,3.728,0,0,0,.907-.118,2.562,2.562,0,0,0,1.852-1.787,3.576,3.576,0,0,0-.111-2.181,2.73,2.73,0,0,0-1.738-1.4,4.294,4.294,0,0,0-.844-.082Zm147.12,30.524c-.715.682-1.448,1.359-2.19,2.03q-2.143,1.929-4.374,3.757c-8.3,6.807-17.478,12.743-26.181,19.1q-1.354.989-2.694,1.994-4,2.986-7.794,6.223h.882c12.7-10.682,27.8-19.163,40.161-30.319q1.167-1.053,2.291-2.128l-.1-.653Zm-43.359,33.958h-.862a.117.117,0,0,0-.027.022q-.254.6-.573,1.254.725-.645,1.462-1.279ZM15.892,205.8h4.49v-6.64h-4.49ZM0,199.69v.468c.022,22.714,7.937,44.306,20.615,63.453h.5A133.826,133.826,0,0,1,7.565,237.977c-.114-.29-.227-.579-.336-.869A105.4,105.4,0,0,1,0,199.692Zm21.7,64.776h-.508C36.28,286.918,57.907,305.951,80.96,319.4c0,0,43.258-1.257,96.029-1.257a135.826,135.826,0,0,0,31.529-20.811,24.25,24.25,0,0,0-11.787-4.773.43.43,0,0,1-.383-.484c.274-2.01.657-4.661,1.148-7.781L46.964,282.849v1.032a.426.426,0,0,1-.486.423l-10-1.279a164.13,164.13,0,0,1-14-17.42q-.393-.566-.782-1.136Z" fill="#dcf3e9" fill-rule="evenodd"/>
  </g>
  <g id="Group_7" data-name="Group 7" transform="translate(17.349 88.513)">
    <path id="Path_15" data-name="Path 15" d="M199.108,39.724H177.695V74.709a9.356,9.356,0,0,1,1.168-.223V70.353h1.009v9.612a13.615,13.615,0,0,1,2.975.671V58.559h1.012V80.915a28,28,0,0,1,7.578,4.049h2.411V71.578h.954V84.961h13.748v-5h6.905l.033-.894h-16.38V39.724Zm108.85,14.307h-22.3V84.963h34.8V79.072H307.958ZM240.539,65.658H228.551V84.963h10.831q.575-.257,1.156-.5Zm79.91,20.161h-34.8v.406H283.47v57.822q1.337-1.009,2.7-2V110.929l3.592,1.676.84-21.629.731,22.3,4.826,2.237.954-24.537.842,25.375,14.394,6.6q2.231-1.827,4.374-3.757,1.116-1.006,2.19-2.032a66.753,66.753,0,0,1-.936-15.208c.321-3.275,1.221-5.359,2.473-6.582V85.817Zm-82.876,0h-9.024v6.125a34.731,34.731,0,0,1,3.893-3.1,42.431,42.431,0,0,1,5.132-3.021Zm-29.025,0H194.8v1.972q1.009.892,2.019,1.9,11.17,11.344,11.729,28.837V85.819Zm-14.7,0h-1.292c.43.343.862.7,1.292,1.076Zm-30.446.406h-21.4v37.561H133.38c.8,6.259,1.667,12.3,2.5,16.56a40.894,40.894,0,0,1,.624,6.355h8.737v3.57h5.949V118.527a51.691,51.691,0,0,1,12.206-32.3Zm-132.03,52.7H36.6V121.994H31.37Zm193.119-11.157v11.157h2.872q0-.694-.051-1.386C226.343,136.526,225.323,132.7,224.489,127.772ZM74.515,136.3H64.881v1.508h1.8v1.843h-1.8v2.629h1.8v1.731h-1.8V146.7h1.8v1.843h-1.8v1.727h6.377q.5-1.985,1.025-3.962a80.69,80.69,0,0,0,2.233-10Zm76.679,14.818h-5.949v20.056h-5.259l.022.111h11.186V151.123Zm-80.149,0H64.883v.1h1.8V152.9h-1.8v2.738h1.8v1.789h-1.8v2.683h1.8v1.9h-1.8v2.516h1.8v1.845h-1.8v2.683h1.8V170.9h-1.8v.392H75.242a10.521,10.521,0,0,1-3.757-3.514c-2.752-4.323-1.939-10.379-.435-16.651Zm-59.422,6.645H7.132v13.525h4.434v24.778h.056v-38.3Z" transform="translate(-7.132 -39.724)" fill="#30db8c" fill-rule="evenodd"/>
  </g>
  <g id="Group_8" data-name="Group 8" transform="translate(21.839 75.325)">
    <path id="Path_16" data-name="Path 16" d="M281,33.805H238.064V91.734A47.02,47.02,0,0,1,248.9,88.7a35.4,35.4,0,0,1,11.226,3.527H281V33.807ZM259.5,70.526q-3.085,0-6.061-2.964a13.632,13.632,0,0,1-3.423-5.533l-6.4-23.2H275.5l-6.567,23.2a12,12,0,0,1-3.253,5.533A8.774,8.774,0,0,1,259.5,70.526Zm-45.458-11.29-1.032,27.1-.033.9h-6.9v5h15.936v-5H215l-.954-28Zm-32.661,6.6h-1.012V87.906a13.686,13.686,0,0,0-2.975-.671V77.623h-1.009v4.136a9.349,9.349,0,0,0-1.168.223q-5.689,1.437-13.231,10.25h26.972a27.993,27.993,0,0,0-7.578-4.046V65.829Zm9.989,26.4h.954V78.853h-.954ZM281,93.089H261.721a37.9,37.9,0,0,1,5.742,4c4.488,3.788,7.665,8.276,8.291,11.714,1.114,6.114-.994,41.307-2.857,47.666l-.412-.12.412.12c-.1.336-.218.7-.359,1.07h.662Q277,154.3,281,151.314V93.087Zm-58.981,0H206.076V125.8q-.562-17.494-11.732-28.84-.981-.979-2.019-1.9V93.089h-.954v1.076q-.634-.552-1.292-1.076H161.262l-.2.238-.14.167a51.709,51.709,0,0,0-12.206,32.3v31.739h75.106a62.23,62.23,0,0,0,1.061-11.339H222.01V135.044c-1.582-9.374-2.487-22.746-1.036-28.43a10.119,10.119,0,0,1,1.036-2.476V93.087Zm-52.764,6.391a3.053,3.053,0,0,1-1.17-.227,2.492,2.492,0,0,1-1.457-1.678,2.461,2.461,0,0,1,.111-2.179,2.929,2.929,0,0,1,1.738-1.4,4.29,4.29,0,0,1,1.685,0,2.733,2.733,0,0,1,1.74,1.4,3.569,3.569,0,0,1,.111,2.179,2.562,2.562,0,0,1-1.849,1.789A3.74,3.74,0,0,1,169.251,99.479Zm125.381-1.234-.951,24.537-4.826-2.235-.731-22.3-.84,21.629-3.592-1.676V149.32c8.7-6.355,17.881-12.291,26.177-19.1l-14.394-6.6-.84-25.375Zm-246.313,0-1.065,29.68H34.121V146.2H9.147v11.339H62.408v-1.727h1.8v-1.843h-1.8v-2.683h1.8v-1.734h-1.8v-2.627h1.8v-1.843h-1.8v-2.738h1.8v-1.789h-1.8v-2.683h1.8v-1.734h-1.8v-2.625h1.8v-1.9h-1.8v-3.69H49.333L48.321,98.245Zm94.454,55.723h-8.739q.057,1.784.08,3.57h8.657v-3.57Zm80.882,4.425H148.72v20.165H137.534c.838,3.7.361,6.555-1.428,8.51-2.139,2.331-5.945,3.233-10.7,3.233-9.289,0-22.191-3.449-33.3-6.419-5.363-1.435-10-2.674-13.465-3.313a18.537,18.537,0,0,1-5.885-2.01H62.406v-.39h1.8v-1.845h-1.8v-2.683h1.8V171.8h-1.8v-2.513h1.8v-1.9h-1.8V164.7h1.8V162.91h-1.8v-2.738h1.8V158.5h-1.8v-.1H9.147v44.943h2.527a.429.429,0,0,1,.43.43v11.867h.88V184.595a.427.427,0,0,1,.334-.417l3.327-.764.379-10.459a.43.43,0,1,1,.86,0l.379,10.51,3.32.713a.428.428,0,0,1,.341.417v17.09l7.115-.526h.031a.47.47,0,0,1,.109.011l5.218,1.341a.428.428,0,0,1,.323.414v5.161H35.3a.43.43,0,0,1,.43.43v14.325H190.051c.8-3.808,1.7-7.745,2.687-11.7v-7.38a.429.429,0,0,1,.43-.43h1.653c.751-2.629,1.544-5.232,2.382-7.77,6.368-19.3,13.369-29.076,20.818-29.078a8.689,8.689,0,0,1,.987.058.425.425,0,0,1,.156.049l1.375.746a31.98,31.98,0,0,0,3.115-8.949Zm-80.884,0H134.13c.1,5.314.312,11.246,2.455,17.024a25.015,25.015,0,0,1,.925,3.03h5.261Zm47.1,65.3H35.73V242.08l150.533,1.448C187.123,238.063,188.32,231.151,189.873,223.7Z" transform="translate(-9.147 -33.805)" fill="#95adbb" fill-rule="evenodd"/>
  </g>
  <g id="Group_9" data-name="Group 9" transform="translate(1.457 145.019)">
    <path id="Path_17" data-name="Path 17" d="M15.892,65.083q-2.527,4.632-4.964,9.581A101.991,101.991,0,0,0,0,120.508a102.063,102.063,0,0,1,10.925-45.09q2.437-4.95,4.964-9.581v-.751" transform="translate(0 -65.083)" fill="#adbabf" fill-rule="evenodd"/>
  </g>
  <g id="Group_10" data-name="Group 10" transform="translate(1.457 145.767)">
    <path id="Path_18" data-name="Path 18" d="M15.892,65.421Q13.365,70.05,10.927,75A102.127,102.127,0,0,0,0,120.093a105.423,105.423,0,0,0,7.226,37.418L7.6,146.646a.43.43,0,0,1,.858,0l.379,10.876h4.579a.428.428,0,0,1,.43.428v6.558h6.473V139.732H15.889V119.567H5.78v-.856H15.892V65.419" transform="translate(0 -65.419)" fill="#95adbb" fill-rule="evenodd"/>
  </g>
  <g id="Group_11" data-name="Group 11" transform="translate(9.02 225.475)">
    <path id="Path_19" data-name="Path 19" d="M24.509,101.191a.432.432,0,0,1-.285.218l-3.316.762V133.3a.428.428,0,0,1-.428.428H19.225v6.35H41.933v-13.9h-.579a.428.428,0,0,1-.43-.428v-5.259L36.1,119.253l-7.5.555h-.036a.419.419,0,0,1-.29-.114.423.423,0,0,1-.136-.312V102.176l-3.309-.709a.428.428,0,0,1-.314-.276m-20.642,13a.43.43,0,0,1-.392.254H3.394a133.9,133.9,0,0,0,13.552,25.636h1.359v-18.65H9.256a.428.428,0,0,1-.43-.426v-6.56H4.261a.43.43,0,0,1-.394-.254m197.78,7.242h-.985v3.61c.319-1.2.646-2.411.985-3.61m-159.711,19.5H19.228v2.442a164.13,164.13,0,0,0,12.188,15.139l10.522,1.348V140.933m-23.626,0H17.53l.78,1.136v-1.136" transform="translate(-3.394 -101.191)" fill="#7f8f9b" fill-rule="evenodd"/>
  </g>
  <g id="Group_12" data-name="Group 12" transform="translate(8.688 214.06)">
    <path id="Path_20" data-name="Path 20" d="M24.7,96.072a.428.428,0,0,0-.43.41l-.379,10.459-3.329.764a.428.428,0,0,0-.334.417v31.039h-.878V127.294a.428.428,0,0,0-.43-.43H9.867v-6.558a.428.428,0,0,0-.43-.428H4.86L4.482,109a.429.429,0,0,0-.858,0l-.379,10.865.334.869h.08a.43.43,0,0,0,.392-.256.427.427,0,0,0,.392.254H9.012v6.56a.426.426,0,0,0,.428.426h9.055v18.65h.914v-6.353h1.257a.428.428,0,0,0,.428-.428V108.461l3.316-.762a.432.432,0,0,0,.285-.218.422.422,0,0,0,.312.276l3.311.709v17.2a.428.428,0,0,0,.423.428h.038l7.5-.555,4.829,1.241v5.259a.427.427,0,0,0,.43.426h.579v13.9h.86V132.04a.43.43,0,0,0-.43-.428h-.579v-5.161a.428.428,0,0,0-.323-.414L36.43,124.7a.468.468,0,0,0-.14-.011l-7.115.524V108.12a.428.428,0,0,0-.339-.417l-3.32-.713-.381-10.51a.428.428,0,0,0-.43-.412m177.368,30.794h-1.653a.43.43,0,0,0-.43.43v7.38q.418-1.671.86-3.342v-3.61h.983l.241-.858M42.981,147.223h-.86v18.929L31.6,164.8c.294.328.593.653.891.976l10,1.281.053,0a.426.426,0,0,0,.432-.428V147.223m-23.57,0h-.916v1.136c.3.434.608.873.914,1.306v-2.442" transform="translate(-3.245 -96.068)" fill="#7f8f9b" fill-rule="evenodd"/>
  </g>
  <g id="Group_13" data-name="Group 13" transform="translate(0 16.043)">
    <path id="Path_22" data-name="Path 22" d="M86.334,248.92h.858V15.776h-.858Zm208.026,0h.86V15.776h-.86Zm44.607-146.65-.624-.588,2.578-2.705.624.588Zm5.677-5.965-.624-.588,40.763-42.848.624.588ZM365.05,83.892l-.615-.6,22.9-23.456.615.6ZM.624,237.07,0,236.482l2.576-2.705.624.59ZM6.3,231.105l-.624-.588L46.438,187.66l.624.59Zm20.4-12.413-.615-.595,22.91-23.468.615.6ZM34.343,49.411l-.624-.588,2.569-2.705.624.588Zm5.675-5.974-.624-.588L80.16,0l.624.588Zm20.4-12.413-.615-.6L82.7,6.97l.615.6ZM224.973,49.411l-.624-.588,2.567-2.705.624.588Zm5.675-5.974-.624-.588L270.788,0l.624.588Zm20.4-12.413-.615-.6,22.9-23.456.615.6Z" fill="#263238" fill-rule="evenodd"/>
    <path id="Path_23" data-name="Path 23" d="M134.129,42.665H78.315a9.746,9.746,0,0,0-9.762,9.722V68.646a9.746,9.746,0,0,0,9.711,9.782h5.386a.747.747,0,0,1,.595,1.2L78.1,87.639a.749.749,0,0,0,.974,1.1L96.689,78.53a.757.757,0,0,1,.379-.1h37.062a9.746,9.746,0,0,0,9.737-9.755V52.413a9.747,9.747,0,0,0-9.74-9.748" transform="translate(84.197 52.402)" fill="#fff" fill-rule="evenodd"/>
    <path id="Path_24" data-name="Path 24" d="M78.552,43.329a9.333,9.333,0,0,0-9.334,9.294V68.882A9.319,9.319,0,0,0,78.5,78.236h5.383a1.172,1.172,0,0,1,.936,1.892l-6.143,8.008a.3.3,0,0,0,.016.406.308.308,0,0,0,.4.067L96.71,78.4a1.188,1.188,0,0,1,.593-.16h37.064a9.329,9.329,0,0,0,9.309-9.327V52.649a9.333,9.333,0,0,0-9.309-9.321H78.552Zm.374,46.184a1.165,1.165,0,0,1-.876-.406A1.148,1.148,0,0,1,78,87.614l6.145-8.006a.322.322,0,0,0-.256-.517h-5.35A10.175,10.175,0,0,1,68.36,68.882V52.622A10.189,10.189,0,0,1,78.552,42.473h55.817a10.189,10.189,0,0,1,10.165,10.176V68.908a10.185,10.185,0,0,1-10.165,10.183H97.3a.325.325,0,0,0-.163.045L79.53,89.346a1.2,1.2,0,0,1-.6.167Z" transform="translate(83.96 52.166)" fill="#263238" fill-rule="evenodd"/>
    <path id="Path_25" data-name="Path 25" d="M84.527,52.437a2.276,2.276,0,1,1-2.286-2.259h.009a2.272,2.272,0,0,1,2.277,2.259m9.927,0a2.276,2.276,0,1,1-2.286-2.259h.018a2.263,2.263,0,0,1,2.268,2.259m9.924,0a2.266,2.266,0,1,1-2.266-2.259,2.26,2.26,0,0,1,2.266,2.259" transform="translate(98.226 61.629)" fill="#263238" fill-rule="evenodd"/>
    <path id="Path_26" data-name="Path 26" d="M145.285,98.682,122.673,86.407c-17.021-1.943-28.737,50.424-33.4,84.4,15.994,1.6,19.564,19.608,41.881,13.574,14.127-14.646,8.935-69.888,14.127-85.7" transform="translate(109.651 106.061)" fill="#0d724c" fill-rule="evenodd"/>
    <path id="Path_27" data-name="Path 27" d="M90,170.663c6.328.76,10.785,4.093,15.1,7.317,6.4,4.788,13.024,9.737,26.07,6.252,8.775-9.254,9.978-35.226,10.941-56.106.575-12.373,1.07-23.091,2.9-29L122.778,87.061c-7.219-.751-14.41,9.089-20.794,28.445C95.256,135.91,91.4,160.556,90,170.663m32.915,15.609c-8.155,0-13.309-3.853-18.331-7.607-4.517-3.378-8.784-6.569-15.112-7.2a.432.432,0,0,1-.381-.484c1.35-9.842,5.23-34.972,12.081-55.743,6.645-20.147,13.978-29.918,21.79-29.02a.439.439,0,0,1,.156.049l22.612,12.277a.421.421,0,0,1,.2.506c-1.878,5.722-2.38,16.562-2.959,29.114-1.025,22.188-2.188,47.336-11.264,56.746a.432.432,0,0,1-.2.118,32.891,32.891,0,0,1-8.594,1.243" transform="translate(109.414 105.824)" fill="#263238" fill-rule="evenodd"/>
    <path id="Path_28" data-name="Path 28" d="M139.447,90.513l23.915,52.013-15.045,4.227-17.741-22.01Z" transform="translate(160.375 111.169)" fill="#fff" fill-rule="evenodd"/>
    <path id="Path_29" data-name="Path 29" d="M131.282,124.879,148.711,146.5,163,142.486,139.8,92.021l-8.514,32.857Zm17.271,22.538a.43.43,0,0,1-.334-.16l-17.741-22.01a.428.428,0,0,1-.08-.374l8.868-34.23a.43.43,0,0,1,.807-.071l23.915,52.013a.428.428,0,0,1-.274.59L148.669,147.4l-.116.016Z" transform="translate(160.139 110.933)" fill="#263238" fill-rule="evenodd"/>
    <path id="Path_30" data-name="Path 30" d="M131.282,124.879,148.711,146.5,163,142.486,139.8,92.021l-8.514,32.857Zm17.271,22.538a.43.43,0,0,1-.334-.16l-17.741-22.01a.428.428,0,0,1-.08-.374l8.868-34.23a.43.43,0,0,1,.807-.071l23.915,52.013a.428.428,0,0,1-.274.59L148.669,147.4l-.116.016Z" transform="translate(160.139 110.933)" fill="#263238" fill-rule="evenodd"/>
    <path id="Path_31" data-name="Path 31" d="M130.378,84.01l-31.144,14.3,16.607,67.152-5.29,28.249h59.085l-5.847-30.7L178.13,98.5,145.474,85.14Z" transform="translate(121.88 103.182)" fill="#fff" fill-rule="evenodd"/>
    <path id="Path_32" data-name="Path 32" d="M111.3,193.519h58.052l-5.749-30.188a.415.415,0,0,1,0-.174l14.261-64.164L145.61,85.8l-14.916-1.116-30.723,14.1L116.494,165.6a.432.432,0,0,1,.007.181l-5.2,27.743m58.571.856H110.788a.43.43,0,0,1-.423-.506l5.274-28.158L99.054,98.648a.428.428,0,0,1,.236-.49l31.146-14.3a.423.423,0,0,1,.212-.038l15.094,1.13a.484.484,0,0,1,.134.031L178.53,98.339a.428.428,0,0,1,.256.49l-14.321,64.429,5.831,30.609a.428.428,0,0,1-.423.508" transform="translate(121.644 102.947)" fill="#263238" fill-rule="evenodd"/>
    <path id="Path_33" data-name="Path 33" d="M111.3,193.519h58.052l-5.749-30.188a.415.415,0,0,1,0-.174l14.261-64.164L145.61,85.8l-14.916-1.116-30.723,14.1L116.494,165.6a.432.432,0,0,1,.007.181l-5.2,27.743m58.571.856H110.788a.43.43,0,0,1-.423-.506l5.274-28.158L99.054,98.648a.428.428,0,0,1,.236-.49l31.146-14.3a.423.423,0,0,1,.212-.038l15.094,1.13a.484.484,0,0,1,.134.031L178.53,98.339a.428.428,0,0,1,.256.49l-14.321,64.429,5.831,30.609a.428.428,0,0,1-.423.508" transform="translate(121.644 102.947)" fill="#263238" fill-rule="evenodd"/>
    <path id="Path_34" data-name="Path 34" d="M112.757,90.428,88.224,143.375l15.664,3.3,17.737-22.01Z" transform="translate(108.358 111.065)" fill="#fff" fill-rule="evenodd"/>
    <path id="Path_35" data-name="Path 35" d="M89.076,143.305l14.878,3.128,17.44-21.636-8.516-32.862Zm15.047,4.031-.089-.011-15.662-3.293a.428.428,0,0,1-.3-.6L112.6,90.488a.428.428,0,0,1,.807.074l8.868,34.228a.428.428,0,0,1-.08.377l-17.741,22.01a.43.43,0,0,1-.334.16Z" transform="translate(108.121 110.826)" fill="#263238" fill-rule="evenodd"/>
    <path id="Path_36" data-name="Path 36" d="M89.076,143.305l14.878,3.128,17.44-21.636-8.516-32.862Zm15.047,4.031-.089-.011-15.662-3.293a.428.428,0,0,1-.3-.6L112.6,90.488a.428.428,0,0,1,.807.074l8.868,34.228a.428.428,0,0,1-.08.377l-17.741,22.01a.43.43,0,0,1-.334.16Z" transform="translate(108.121 110.826)" fill="#263238" fill-rule="evenodd"/>
    <path id="Path_37" data-name="Path 37" d="M105.255,112.124,136.212,147.3l-6.012,6.769L91.191,123.111s-5.35-2.567-2.139-7.788" transform="translate(108.114 137.712)" fill="#fff" fill-rule="evenodd"/>
    <path id="Path_38" data-name="Path 38" d="M130.439,154.736a.428.428,0,0,1-.267-.091L91.193,123.71a6.512,6.512,0,0,1-3.169-3.61,5.805,5.805,0,0,1,.9-4.764.43.43,0,0,1,.731.446,5,5,0,0,0-.807,4.069,5.78,5.78,0,0,0,2.765,3.111l.082.051,38.691,30.709,5.49-6.183-30.707-34.9a.429.429,0,0,1,.646-.564l30.957,35.181a.428.428,0,0,1,0,.566l-6.012,6.769a.428.428,0,0,1-.321.143" transform="translate(107.875 137.476)" fill="#263238" fill-rule="evenodd"/>
    <path id="Path_39" data-name="Path 39" d="M130.439,154.736a.428.428,0,0,1-.267-.091L91.193,123.71a6.512,6.512,0,0,1-3.169-3.61,5.805,5.805,0,0,1,.9-4.764.43.43,0,0,1,.731.446,5,5,0,0,0-.807,4.069,5.78,5.78,0,0,0,2.765,3.111l.082.051,38.691,30.709,5.49-6.183-30.707-34.9a.429.429,0,0,1,.646-.564l30.957,35.181a.428.428,0,0,1,0,.566l-6.012,6.769a.428.428,0,0,1-.321.143" transform="translate(107.875 137.476)" fill="#263238" fill-rule="evenodd"/>
    <path id="Path_40" data-name="Path 40" d="M109.24,128.823c.858-.479,15.789-4.04,16-2.217s4.652,3.835,6.68,3.835,4.053-1.618,4.456.8-1.82,2.629-3.641,2.823-8.106-1.814-8.106-1.814-5.874,4.844-8.3,6.052-6.867.856-8.5-.4-3.837-6.257,1.417-9.082" transform="translate(130.115 154.866)" fill="#f29066" fill-rule="evenodd"/>
    <path id="Path_41" data-name="Path 41" d="M109.476,129.056l.2.379a5.1,5.1,0,0,0-3.057,4.073,5.411,5.411,0,0,0,1.7,4.289c1.471,1.132,5.715,1.515,8.048.357,2.357-1.17,8.162-5.949,8.222-5.994l.178-.152.225.071c1.725.553,6.5,1.945,7.928,1.8l.076-.009c1.143-.123,2.44-.263,2.964-.954a1.7,1.7,0,0,0,.223-1.366,1.252,1.252,0,0,0-.4-.869c-.336-.221-1-.058-1.7.114a8.072,8.072,0,0,1-1.925.307c-2.059,0-6.8-2.012-7.1-4.173-.138-.1-1.205-.586-7.692.66a66.876,66.876,0,0,0-7.676,1.843l-.209-.374Zm3.213,10.66a8.6,8.6,0,0,1-4.893-1.241,6.17,6.17,0,0,1-2.032-5.036c.114-1.373.813-3.313,3.507-4.759.682-.357,13.859-3.7,16.141-2.531a.819.819,0,0,1,.486.644c.172,1.52,4.367,3.454,6.255,3.454a7.283,7.283,0,0,0,1.72-.283,3.03,3.03,0,0,1,2.377,0,1.983,1.983,0,0,1,.78,1.444,2.523,2.523,0,0,1-.383,2.023c-.751.985-2.242,1.145-3.558,1.288l-.074.007c-1.711.187-6.9-1.4-8.059-1.76-1.025.84-5.972,4.846-8.206,5.954a9.477,9.477,0,0,1-4.06.8Z" transform="translate(129.878 154.633)" fill="#263238" fill-rule="evenodd"/>
    <path id="Path_42" data-name="Path 42" d="M113.6,126.862s5.669-1.618,6.872-1.009,1.827,12.716,1.827,12.716-.608,1.208-1.827,0-5.265-10.268-5.265-10.268" transform="translate(139.53 154.405)" fill="#f29066" fill-rule="evenodd"/>
    <path id="Path_43" data-name="Path 43" d="M121.553,139.765a1.923,1.923,0,0,1-1.315-.662c-1.241-1.226-4.938-9.463-5.354-10.4l.784-.348c1.116,2.5,4.22,9.2,5.174,10.141.3.292.564.437.769.408a.54.54,0,0,0,.323-.221c-.3-5.6-.976-11.671-1.609-12.233-.706-.352-4.249.4-6.535,1.054l-.238-.824c.974-.276,5.9-1.627,7.184-.98,1.239.628,1.823,8.463,2.063,13.08l0,.111-.051.1a1.459,1.459,0,0,1-1,.758,1.282,1.282,0,0,1-.2.016" transform="translate(139.464 154.174)" fill="#263238" fill-rule="evenodd"/>
    <path id="Path_44" data-name="Path 44" d="M112.774,126.654s5.874-1.41,7.092.807,4.251,12.108,1.82,12.52-3.238-2.834-3.238-2.834l-3.846-7.059-2.636-.4" transform="translate(137.519 155.014)" fill="#f29066" fill-rule="evenodd"/>
    <path id="Path_45" data-name="Path 45" d="M121.308,140.685c-1.89,0-2.919-1.972-3.226-3.142l-3.719-6.825-2.424-.37.129-.847,2.848.435,3.988,7.349c.027.116.738,2.852,2.747,2.513.1-.016.227-.067.345-.312.918-1.892-1.332-9.51-2.471-11.58-.869-1.582-5.069-.965-6.618-.595l-.2-.831c.635-.154,6.232-1.419,7.571,1.014,1.058,1.923,3.652,9.978,2.491,12.367a1.3,1.3,0,0,1-.976.78,2.892,2.892,0,0,1-.486.045" transform="translate(137.483 154.773)" fill="#263238" fill-rule="evenodd"/>
    <path id="Path_46" data-name="Path 46" d="M111.423,127.556s2.834-1.208,4.251-.2,7.9,11.3,6.68,11.707-4.053.2-4.456-.608-5.666-7.7-5.666-7.7" transform="translate(136.851 155.928)" fill="#f29066" fill-rule="evenodd"/>
    <path id="Path_47" data-name="Path 47" d="M120.818,139.929c-1.337,0-2.839-.3-3.211-1.047-.283-.562-3.521-4.873-5.626-7.632l.684-.519c.541.709,5.3,6.952,5.709,7.77.272.539,2.683.731,3.8.435-.018-1.491-5.426-10.116-6.658-10.994-1-.713-3.106-.067-3.833.243l-.336-.789c.125-.053,3.075-1.288,4.668-.149,1.234.878,7.282,10.027,7,11.908a.653.653,0,0,1-.432.55,5.95,5.95,0,0,1-1.767.225" transform="translate(136.759 155.694)" fill="#263238" fill-rule="evenodd"/>
    <path id="Path_48" data-name="Path 48" d="M110.5,129.744s2.629-2.422,4.044-1.609,7.291,8.472,6.081,9.276-2.028,0-3.238-1.609a14.144,14.144,0,0,0-3.039-2.823l-2.429.8" transform="translate(135.72 157.172)" fill="#f29066" fill-rule="evenodd"/>
    <path id="Path_49" data-name="Path 49" d="M119.89,138.388c-1.11,0-1.961-1.136-2.683-2.095a13.673,13.673,0,0,0-2.765-2.607l-2.228.738-.267-.811,2.629-.873.178.123a14.657,14.657,0,0,1,3.133,2.908c1.31,1.745,1.836,2.054,2.634,1.54.078-.325-.484-1.758-2.355-4.356a21.308,21.308,0,0,0-3.672-4.211c-.934-.539-2.919.978-3.538,1.551l-.584-.628c.294-.27,2.91-2.609,4.55-1.664,1.3.746,6.391,7.179,6.46,9.211a.847.847,0,0,1-.357.791,2.044,2.044,0,0,1-1.134.385" transform="translate(135.559 156.937)" fill="#263238" fill-rule="evenodd"/>
    <path id="Path_50" data-name="Path 50" d="M143.035,112.63,132.73,147.573l7.453,5.185,16.841-26.972s6.921-7.788,2.576-12.17" transform="translate(163.02 138.333)" fill="#187ed1" fill-rule="evenodd"/>
    <path id="Path_51" data-name="Path 51" d="M140.421,153.422a.431.431,0,0,1-.245-.076l-7.456-5.187a.428.428,0,0,1-.165-.47l10.3-34.943a.43.43,0,0,1,.824.243l-10.219,34.644,6.829,4.753,16.6-26.591.045-.056c.067-.076,6.6-7.54,2.591-11.587a.429.429,0,0,1,.611-.6c1.916,1.932,2.061,4.773.423,8.213a21.576,21.576,0,0,1-2.959,4.512l-16.821,26.946a.43.43,0,0,1-.279.192Z" transform="translate(162.785 138.097)" fill="#263238" fill-rule="evenodd"/>
    <path id="Path_52" data-name="Path 52" d="M150.041,128.823c-.858-.479-15.8-4.04-16-2.217s-4.661,3.835-6.68,3.835-4.051-1.618-4.456.8,1.82,2.629,3.641,2.823,8.106-1.814,8.106-1.814,5.874,4.844,8.3,6.052,6.87.856,8.5-.4,3.846-6.257-1.417-9.082" transform="translate(150.896 154.866)" fill="#f29066" fill-rule="evenodd"/>
    <path id="Path_53" data-name="Path 53" d="M134.983,132.007l.18.149c.058.049,5.862,4.826,8.222,6,2.331,1.159,6.578.773,8.046-.357a5.417,5.417,0,0,0,1.7-4.3,5.111,5.111,0,0,0-3.062-4.071l-.007,0c-1.226-.653-14.256-3.476-15.366-2.507-.287,2.161-5.036,4.178-7.1,4.178a8.167,8.167,0,0,1-1.918-.305c-.7-.174-1.37-.336-1.707-.116a1.263,1.263,0,0,0-.408.869,1.717,1.717,0,0,0,.223,1.366c.528.691,1.823.831,2.968.954l.074.009c1.419.149,6.2-1.246,7.928-1.8l.223-.071Zm12.081,7.71a9.48,9.48,0,0,1-4.062-.8c-2.233-1.107-7.179-5.114-8.2-5.954-1.163.363-6.353,1.95-8.059,1.76l-.076-.007c-1.315-.143-2.808-.3-3.556-1.288a2.539,2.539,0,0,1-.388-2.023,2.011,2.011,0,0,1,.782-1.444,3.028,3.028,0,0,1,2.384,0,7.359,7.359,0,0,0,1.716.281c1.894,0,6.087-1.934,6.252-3.454a.818.818,0,0,1,.484-.642c2.282-1.17,15.459,2.172,16.143,2.529,2.7,1.446,3.4,3.382,3.512,4.753a6.273,6.273,0,0,1-2.034,5.042,8.612,8.612,0,0,1-4.893,1.241Z" transform="translate(150.66 154.634)" fill="#263238" fill-rule="evenodd"/>
    <path id="Path_54" data-name="Path 54" d="M133.667,126.862s-5.669-1.618-6.87-1.009-1.82,12.716-1.82,12.716.608,1.208,1.82,0,5.272-10.268,5.272-10.268" transform="translate(153.498 154.405)" fill="#f29066" fill-rule="evenodd"/>
    <path id="Path_55" data-name="Path 55" d="M126.03,139.765a1.281,1.281,0,0,1-.2-.016,1.465,1.465,0,0,1-1-.758l-.049-.1,0-.111c.236-4.617.816-12.451,2.057-13.08,1.288-.646,6.208.7,7.182.98l-.236.824c-2.286-.653-5.833-1.406-6.558-1.041-.613.548-1.288,6.622-1.578,12.22a.53.53,0,0,0,.321.223,1.07,1.07,0,0,0,.758-.41c.949-.943,4.064-7.641,5.185-10.138l.784.348c-.419.936-4.129,9.169-5.361,10.4a1.91,1.91,0,0,1-1.31.662" transform="translate(153.259 154.174)" fill="#263238" fill-rule="evenodd"/>
    <path id="Path_56" data-name="Path 56" d="M135.58,126.654s-5.865-1.41-7.086.807-4.292,12.108-1.818,12.52,3.238-2.834,3.238-2.834l3.846-7.059,2.636-.4" transform="translate(154.435 155.014)" fill="#f29066" fill-rule="evenodd"/>
    <path id="Path_57" data-name="Path 57" d="M127.333,140.685a2.98,2.98,0,0,1-.49-.045,1.32,1.32,0,0,1-.994-.787c-1.181-2.422,1.413-10.372,2.507-12.36,1.337-2.433,6.93-1.165,7.56-1.014l-.2.831c-1.542-.37-5.738-.985-6.607.595-1.174,2.135-3.425,9.653-2.489,11.573.123.25.258.3.361.319,2.054.339,2.723-2.393,2.75-2.509l.04-.1,3.951-7.248,2.845-.432.129.847-2.424.368-3.719,6.825c-.294,1.17-1.3,3.142-3.22,3.142" transform="translate(154.199 154.773)" fill="#263238" fill-rule="evenodd"/>
    <path id="Path_58" data-name="Path 58" d="M137.167,127.556s-2.834-1.208-4.251-.2-7.9,11.3-6.68,11.707,4.044.2,4.456-.608,5.669-7.7,5.669-7.7" transform="translate(154.858 155.928)" fill="#f29066" fill-rule="evenodd"/>
    <path id="Path_59" data-name="Path 59" d="M128.094,139.929a6.06,6.06,0,0,1-1.76-.223.66.66,0,0,1-.432-.553c-.281-1.883,5.769-11.03,7-11.91,1.6-1.136,4.546.1,4.67.152l-.339.789c-.729-.31-2.834-.954-3.833-.245-1.232.88-6.64,9.51-6.658,11,1.257.345,3.565.027,3.8-.439.417-.813,5.167-7.057,5.706-7.765l.684.517c-2.1,2.763-5.337,7.075-5.626,7.638-.379.74-1.881,1.043-3.218,1.043" transform="translate(154.621 155.694)" fill="#263238" fill-rule="evenodd"/>
    <path id="Path_60" data-name="Path 60" d="M137.628,129.734S135,127.3,133.6,128.158s-7.293,8.474-6.072,9.278,2.028,0,3.235-1.611A14.192,14.192,0,0,1,133.8,133l2.429.8" transform="translate(156.422 157.182)" fill="#f29066" fill-rule="evenodd"/>
    <path id="Path_61" data-name="Path 61" d="M128.674,138.418a2.081,2.081,0,0,1-1.152-.39.842.842,0,0,1-.357-.773c.038-2.012,5.091-8.4,6.44-9.225,1.642-1,4.26,1.353,4.554,1.627l-.586.624c-.619-.57-2.6-2.081-3.521-1.52-1.419.862-6.324,7.545-6.03,8.572.8.512,1.328.2,2.629-1.529a14.6,14.6,0,0,1,3.142-2.919l.174-.12,2.634.869-.27.813-2.228-.735a13.68,13.68,0,0,0-2.772,2.616c-.747.992-1.571,2.09-2.658,2.09" transform="translate(156.185 156.947)" fill="#263238" fill-rule="evenodd"/>
    <path id="Path_62" data-name="Path 62" d="M118.533,83.347s-4.9,1.506-6.981,4.519.379,26.333.379,26.333l15.671-8.652,16.417,10.346s-1.511-23.886-2.834-27.273-9.626-7.333-12.46-6.956-10.192,1.685-10.192,1.685" transform="translate(135.984 100.268)" fill="#187ed1" fill-rule="evenodd"/>
    <path id="Path_63" data-name="Path 63" d="M127.839,105.355a.424.424,0,0,1,.227.067l15.707,9.9c-.283-4.256-1.6-23.374-2.75-26.306-1.255-3.215-9.35-7.041-12-6.689-2.705.359-9.648,1.589-10.147,1.678-.365.118-4.835,1.6-6.729,4.345-1.582,2.288-.312,18.525.383,25.4l15.1-8.338a.435.435,0,0,1,.209-.053m16.417,11.2a.428.428,0,0,1-.229-.067l-16.2-10.21-15.448,8.53a.432.432,0,0,1-.635-.33c-.007-.06-.619-5.911-.969-12.059-.717-12.558.323-14.064.664-14.561,2.139-3.1,7-4.621,7.208-4.684l.051-.013c.074-.013,7.4-1.315,10.212-1.689,3.008-.4,11.491,3.576,12.917,7.226,1.33,3.411,2.8,26.424,2.861,27.4a.428.428,0,0,1-.428.455" transform="translate(135.747 100.032)" fill="#263238" fill-rule="evenodd"/>
    <path id="Path_64" data-name="Path 64" d="M113.211,76.687V98.321l10.383,27.837,8.868-28.4V76.5Z" transform="translate(139.047 93.956)" fill="#fff" fill-rule="evenodd"/>
    <path id="Path_65" data-name="Path 65" d="M113.877,98.479l9.916,26.591,8.478-27.144V77.166l-18.394.18V98.479m9.953,28.343a.43.43,0,0,1-.4-.279L113.044,98.706a.414.414,0,0,1-.025-.149V76.921a.428.428,0,0,1,.423-.426l19.252-.189a.468.468,0,0,1,.307.125.428.428,0,0,1,.127.3V97.991a.444.444,0,0,1-.02.127l-8.868,28.4a.43.43,0,0,1-.4.3h-.009" transform="translate(138.811 93.72)" fill="#263238" fill-rule="evenodd"/>
    <path id="Path_66" data-name="Path 66" d="M113.2,84.456a17.47,17.47,0,0,0,19.252.488V76.5l-19.252.212Z" transform="translate(139.033 93.957)" fill="#263238" fill-rule="evenodd"/>
    <path id="Path_67" data-name="Path 67" d="M113.867,84.47a16.89,16.89,0,0,0,9.546,2.935h.045a16.92,16.92,0,0,0,8.8-2.462V77.166l-18.392.2Zm9.543,3.792a17.751,17.751,0,0,1-10.221-3.22.428.428,0,0,1-.183-.35V76.948a.43.43,0,0,1,.423-.428l19.252-.214a.42.42,0,0,1,.307.125.425.425,0,0,1,.129.3v8.447a.428.428,0,0,1-.2.361,17.792,17.792,0,0,1-9.463,2.718h-.045Z" transform="translate(138.796 93.72)" fill="#263238" fill-rule="evenodd"/>
    <path id="Path_68" data-name="Path 68" d="M153.393,89.272c.749,7.6,1.324,16.614,1.361,17.217a.428.428,0,0,1-.657.388l-13-8.193L137.373,110.6a.43.43,0,0,1-.4.3h-.009a.43.43,0,0,1-.4-.279L132.475,99.66,122.446,105.2a.437.437,0,0,1-.406,0,.428.428,0,0,1-.229-.334q-.293-2.872-.526-5.749c-6.341-.92-12.683-3.964-18.96-9.113,7.58,19.954,22.164,28.713,35.654,28.713,14.63,0,27.971-10.3,29.718-27.8.045-.2-5.932-.911-14.3-1.649" transform="translate(125.677 109.645)" fill="#c5ced2" fill-rule="evenodd"/>
    <path id="Path_69" data-name="Path 69" d="M138.244,89.11a44.714,44.714,0,0,1-6.651,5.212l-1.161,3.714,12.485,7.868q-.542-8.264-1.319-16.511c-1.085-.094-2.206-.187-3.354-.281M121.16,98.823a28.618,28.618,0,0,1-9.938.606c.156,1.874.312,3.565.448,4.9l9.575-5.283-.085-.225" transform="translate(136.604 109.446)" fill="#2c79b3" fill-rule="evenodd"/>
    <path id="Path_70" data-name="Path 70" d="M142.072,89.237c.635,6.446,1.154,14.02,1.321,16.511l-12.485-7.866-.265.844,13,8.193a.432.432,0,0,0,.448.007.428.428,0,0,0,.209-.394c-.038-.6-.613-9.613-1.359-17.22l-.873-.076m-20.35,9.655-9.575,5.285c-.134-1.337-.292-3.03-.446-4.9-.29-.033-.579-.071-.869-.111.274,3.32.524,5.711.528,5.749a.428.428,0,0,0,.428.381.437.437,0,0,0,.207-.051L122.023,99.7l-.3-.811" transform="translate(136.126 109.602)" fill="#36474f" fill-rule="evenodd"/>
    <path id="Path_71" data-name="Path 71" d="M124.539,91.754a34.365,34.365,0,0,1-8.481,3.61l4,10.733,4.479-14.343" transform="translate(142.544 112.693)" fill="#c5ced2" fill-rule="evenodd"/>
    <path id="Path_72" data-name="Path 72" d="M126.114,91.449c-.368.232-.735.459-1.114.68l-4.479,14.343-4-10.733c-.279.074-.557.145-.838.212l.085.223.3.813,4.089,10.958a.426.426,0,0,0,.4.279h.011a.43.43,0,0,0,.4-.3l3.721-11.912.263-.847,1.159-3.714" transform="translate(142.082 112.319)" fill="#36474f" fill-rule="evenodd"/>
    <path id="Path_73" data-name="Path 73" d="M160.3,118.658c1.823-6.232,3.98-41.244,2.843-47.468s-11.772-17.77-26.418-19.744c-14.715,2.271-25.91,11.408-27.485,17.585-2.3,9.029,1.3,36.008,3.855,37.888.343,3.133-.107,25.709-10.907,28.737,30.934,26.032,55.2-7.055,58.112-17" transform="translate(125.511 63.186)" fill="#0d724c" fill-rule="evenodd"/>
    <path id="Path_74" data-name="Path 74" d="M103.3,136.057c10.187,8.349,20.515,11.03,30.709,7.966,14.336-4.309,24.234-18.806,26.119-25.25,1.849-6.31,3.942-41.213,2.837-47.271-1.181-6.473-12.144-17.491-25.992-19.388-15.2,2.366-25.656,11.7-27.073,17.257-2.3,9.033,1.355,35.718,3.692,37.441a.415.415,0,0,1,.172.3c.336,3.075.007,25.012-10.464,28.944m22.5,10.054c-7.906,0-15.827-3.307-23.65-9.891a.426.426,0,0,1,.16-.738c10.308-2.89,10.9-24.637,10.611-28.12-2.8-2.948-6.067-29.524-3.857-38.2.831-3.264,4.189-7.19,8.984-10.5a46.126,46.126,0,0,1,18.851-7.4.414.414,0,0,1,.122,0,36.734,36.734,0,0,1,18.494,8.374c4.485,3.788,7.663,8.278,8.289,11.716,1.114,6.112-.994,41.3-2.857,47.666l-.41-.12.41.12c-1.93,6.6-12.048,21.426-26.694,25.829a29.2,29.2,0,0,1-8.456,1.266" transform="translate(125.274 62.951)" fill="#263238" fill-rule="evenodd"/>
    <path id="Path_75" data-name="Path 75" d="M113.166,79.61c.9,8.779-4.218,24.056-11.032,28.722,13.262,10.729,51.9-12.309,51.683-34.651-5.894,13.844-10.461,15.384-17.569,16.52-13.512,2.161-23.084-10.591-23.084-10.591" transform="translate(125.442 90.496)" fill="#0d724c" fill-rule="evenodd"/>
    <path id="Path_76" data-name="Path 76" d="M103.088,108.573c5.009,3.6,13.842,2.926,23.8-1.861,12.594-6.052,25.275-18.216,26.616-30.5-5.279,11.551-9.546,13.458-16.957,14.644-11.295,1.807-19.958-6.707-22.632-9.728.31,8.761-4.39,22.536-10.831,27.443m8.238,3.133A14.393,14.393,0,0,1,102.1,108.9a.428.428,0,0,1,.027-.686c5.664-3.877,11.908-17.991,10.847-28.323a.428.428,0,0,1,.771-.3c.094.127,9.577,12.523,22.672,10.426,6.863-1.1,11.368-2.473,17.24-16.266a.43.43,0,0,1,.824.163c.129,13.392-13.592,27.028-27.218,33.572-5.838,2.805-11.324,4.222-15.938,4.222" transform="translate(125.205 90.261)" fill="#263238" fill-rule="evenodd"/>
    <path id="Path_77" data-name="Path 77" d="M144.691,82.3c.078-5.065-1.3-13.98-3.677-16.54-.746-.8-8.071-6.462-13.293-7.086a34.672,34.672,0,0,0-14.261,6.734c-3.654,3.873-3.79,13.844-3.792,15.932,0,0-2.148,11.524,2.511,18.57,2.5,3.779,13.258,9.65,15.606,9.766,4.4-.143,11.647-5.5,14.88-9.341,4.185-4.962,1.95-13.115,2.028-18.035" transform="translate(134.089 72.068)" fill="#263238" fill-rule="evenodd"/>
    <path id="Path_78" data-name="Path 78" d="M127.974,59.347A34.7,34.7,0,0,0,114,65.942c-3.394,3.6-3.665,12.877-3.67,15.633l-.007.078c-.022.111-2.061,11.44,2.449,18.258,2.442,3.692,13.057,9.468,15.268,9.575,4.247-.138,11.453-5.535,14.532-9.189,3.03-3.594,2.549-9.118,2.161-13.556-.131-1.526-.256-2.964-.236-4.209.076-4.976-1.275-13.779-3.565-16.244-.675-.729-7.841-6.288-12.962-6.941m.062,50.995c-2.491-.12-13.407-6.072-15.976-9.96-2.467-3.726-3.035-8.668-3.075-12.157a38.235,38.235,0,0,1,.49-6.689c.007-2.883.312-12.367,3.908-16.184a34.923,34.923,0,0,1,14.492-6.858.432.432,0,0,1,.134,0c5.392.646,12.757,6.355,13.556,7.219,2.469,2.656,3.873,11.6,3.792,16.836-.018,1.2.1,2.618.236,4.122.4,4.595.9,10.317-2.362,14.183s-10.613,9.343-15.2,9.492" transform="translate(133.852 71.833)" fill="#263238" fill-rule="evenodd"/>
    <path id="Path_79" data-name="Path 79" d="M142.7,100.271c-3.271,3.861-10.791,9.263-15.234,9.423-2.362-.125-12.15-5.243-14.887-8.891-4.728-6.341-2.964-14.069-2.943-20.477,0-.39,0-1.1.018-1.983.089-3.9.6-11.531,3.587-14.7a35.109,35.109,0,0,1,14.379-6.783c5.259.619,12.652,6.324,13.4,7.137,2.4,2.585,3.786,11.564,3.714,16.667-.018.9.053,1.912.143,3.008.372,4.835,1.272,12.509-2.175,16.6" transform="translate(134.237 69.835)" fill="#f29066" fill-rule="evenodd"/>
    <path id="Path_80" data-name="Path 80" d="M127.866,57.53a34.935,34.935,0,0,0-14.089,6.656c-2.792,2.966-3.369,10.3-3.46,14.405-.02.88-.02,1.584-.02,1.972,0,1.339-.08,2.705-.163,4.149-.312,5.493-.633,11.17,3.021,16.074,2.689,3.587,12.331,8.6,14.568,8.719,1.9-.071,4.684-1.226,7.8-3.253a34.925,34.925,0,0,0,7.081-6.016c3.1-3.679,2.556-10.377,2.157-15.263l-.082-1.029q-.145-1.522-.143-3.053c.069-5.013-1.3-13.882-3.6-16.364-.646-.709-7.952-6.35-13.068-7m-.149,52.831c-2.447-.127-12.382-5.241-15.25-9.062-3.841-5.154-3.5-11.252-3.191-16.634.082-1.433.158-2.787.163-4.1,0-.39,0-1.1.018-1.992.118-5.165.856-11.957,3.706-14.982a35.2,35.2,0,0,1,14.608-6.91l.067-.013.067.007c5.437.642,12.962,6.509,13.663,7.275,2.48,2.674,3.9,11.678,3.826,16.959-.018.918.06,1.972.143,2.97l.082,1.025c.408,5.036.969,11.937-2.355,15.885-3.213,3.792-10.865,9.405-15.546,9.572" transform="translate(134.002 69.597)" fill="#263238" fill-rule="evenodd"/>
    <path id="Path_81" data-name="Path 81" d="M143.854,74.6c-.657-3.186-1.618-6.038-2.825-7.331-.764-.833-8.44-6.765-13.915-7.4a36.183,36.183,0,0,0-14.929,7.048,11.774,11.774,0,0,0-2.5,5.169c.463-3.258,1.353-6.6,3.093-8.445a35.078,35.078,0,0,1,14.376-6.783c5.259.619,12.652,6.321,13.4,7.137,1.6,1.716,2.738,6.25,3.307,10.606" transform="translate(134.71 69.835)" fill="#263238" fill-rule="evenodd"/>
    <path id="Path_82" data-name="Path 82" d="M127.348,59.678l.049,0c5.633.655,13.452,6.743,14.183,7.538a5.707,5.707,0,0,1,.662.88,9.973,9.973,0,0,0-1.774-3.576c-.646-.709-7.95-6.35-13.068-7a34.986,34.986,0,0,0-14.091,6.656,9.657,9.657,0,0,0-1.95,3.61,7.522,7.522,0,0,1,.753-.934,36.6,36.6,0,0,1,15.156-7.173Zm16.738,15.589a.428.428,0,0,1-.419-.341c-.72-3.489-1.685-6.021-2.718-7.126-.677-.735-8.28-6.6-13.585-7.262a35.921,35.921,0,0,0-14.633,6.912,11.219,11.219,0,0,0-2.4,4.982.43.43,0,0,1-.84-.167c.586-4.131,1.664-7.052,3.2-8.681a35.184,35.184,0,0,1,14.608-6.91.426.426,0,0,1,.131,0c5.437.639,12.964,6.506,13.666,7.273,2.1,2.253,3.086,8.334,3.414,10.842a.428.428,0,0,1-.357.477Z" transform="translate(134.475 69.598)" fill="#263238" fill-rule="evenodd"/>
    <path id="Path_83" data-name="Path 83" d="M116.02,72.455a4.054,4.054,0,0,0,3.126,2.181c.512-.029,2.957-1.13,3.222-2.273" transform="translate(142.497 88.878)" fill="#f29066" fill-rule="evenodd"/>
    <path id="Path_84" data-name="Path 84" d="M119.319,75.121a4.519,4.519,0,0,1-3.476-2.442l.787-.341a3.686,3.686,0,0,0,2.71,1.925c.408-.025,2.625-1.07,2.828-1.943l.836.192c-.323,1.395-2.975,2.569-3.614,2.607h-.069Z" transform="translate(142.28 88.824)" fill="#263238" fill-rule="evenodd"/>
    <path id="Path_85" data-name="Path 85" d="M111,71.247a8.063,8.063,0,0,0,3.509,1.812,12.015,12.015,0,0,0,4.055.33,9.135,9.135,0,0,0,2.429-.521,15.712,15.712,0,0,0,.2-2.9,9.54,9.54,0,0,0-1.337-1.114,6.988,6.988,0,0,0-3.692-1.426,6.248,6.248,0,0,0-1.306.118l0,0a6.2,6.2,0,0,0-3.661,2.11s-.651,1.154-.189,1.589" transform="translate(136.122 82.812)" fill="#fff" fill-rule="evenodd"/>
    <path id="Path_86" data-name="Path 86" d="M111.936,70.4a3.441,3.441,0,0,0,1.21,2.658,12.029,12.029,0,0,0,4.055.33,3.447,3.447,0,0,0,1.288-4.534,6.958,6.958,0,0,0-3.692-1.426,6.254,6.254,0,0,0-1.306.116l0,0a3.451,3.451,0,0,0-1.551,2.852" transform="translate(137.481 82.813)" fill="#263238" fill-rule="evenodd"/>
    <path id="Path_87" data-name="Path 87" d="M113.905,67.4a6.352,6.352,0,0,0-1.234.143l-.067.038.062-.011,0,0a6.312,6.312,0,0,1,1.306-.116,6.965,6.965,0,0,1,3.694,1.426h0q-.033-.071-.069-.14a6.666,6.666,0,0,0-3.63-1.332h-.071" transform="translate(138.301 82.786)" fill="#e9916b" fill-rule="evenodd"/>
    <path id="Path_88" data-name="Path 88" d="M113.487,67.48l-.062.011a3.189,3.189,0,0,0-1.246,1.593,3.464,3.464,0,0,1,1.308-1.6m5,1.306h0m.336,1.014a3.546,3.546,0,0,1,.045.41h0a2.086,2.086,0,0,0-.049-.41m-6.872.183q-.011.081-.02.163h0l.016-.163" transform="translate(137.481 82.88)" fill="#f5f5f5" fill-rule="evenodd"/>
    <path id="Path_89" data-name="Path 89" d="M114.689,67.425a6.361,6.361,0,0,0-1.2.118l0,0a3.481,3.481,0,0,0-1.308,1.607,4.121,4.121,0,0,0-.236,1.061l6.93.067a3.419,3.419,0,0,0-.045-.412,4.869,4.869,0,0,0-.339-1.016,6.988,6.988,0,0,0-3.692-1.426h-.1" transform="translate(137.485 82.812)" fill="#323d42" fill-rule="evenodd"/>
    <path id="Path_90" data-name="Path 90" d="M122.1,70.483l0-.016a2.037,2.037,0,0,0-.769-1.1c-1.6-1.19-2.754-2.222-4.029-2.248-2.66-.051-5.381.653-5.811-.116-.078.6.784,1.09.951,1.321-.363.127-1.112.12-2.362-.624,0,0,.963,2.25,2.025,2.478a33,33,0,0,1,4.947-2.057,11.649,11.649,0,0,1,5.051,2.362" transform="translate(135.203 82.294)" fill="#263238" fill-rule="evenodd"/>
    <path id="Path_91" data-name="Path 91" d="M129.625,71.42a8.034,8.034,0,0,1-3.543,1.747,12.07,12.07,0,0,1-4.062.254,9.322,9.322,0,0,1-2.418-.566,16.129,16.129,0,0,1-.14-2.906,9.5,9.5,0,0,1,1.357-1.087,6.978,6.978,0,0,1,3.719-1.357,6.213,6.213,0,0,1,1.3.143l0,0a6.169,6.169,0,0,1,3.621,2.181s.628,1.165.158,1.589" transform="translate(146.723 82.91)" fill="#fff" fill-rule="evenodd"/>
    <path id="Path_92" data-name="Path 92" d="M126.826,70.531a3.445,3.445,0,0,1-1.263,2.636,12.07,12.07,0,0,1-4.062.254,3.445,3.445,0,0,1-1.2-4.559,6.985,6.985,0,0,1,3.719-1.357,6.24,6.24,0,0,1,1.3.143l0,0a3.462,3.462,0,0,1,1.5,2.881" transform="translate(147.242 82.91)" fill="#263238" fill-rule="evenodd"/>
    <path id="Path_93" data-name="Path 93" d="M123.795,67.484a6.664,6.664,0,0,0-3.654,1.268l-.074.14.007,0a6.978,6.978,0,0,1,3.719-1.357,6.214,6.214,0,0,1,1.3.143l0,0,.065.013-.067-.04a6.3,6.3,0,0,0-1.306-.165" transform="translate(147.467 82.885)" fill="#e9916b" fill-rule="evenodd"/>
    <path id="Path_94" data-name="Path 94" d="M125.324,67.57a3.477,3.477,0,0,1,1.27,1.613,3.177,3.177,0,0,0-1.208-1.6l-.062-.013M120.3,68.782l-.007,0-.031.069.038-.074m-.357,1.009a2.093,2.093,0,0,0-.056.408h0a3.512,3.512,0,0,1,.051-.408m6.87.334.009.14h0q-.006-.07-.013-.14" transform="translate(147.244 82.99)" fill="#f5f5f5" fill-rule="evenodd"/>
    <path id="Path_95" data-name="Path 95" d="M124.014,67.5a6.969,6.969,0,0,0-3.719,1.359l-.038.071a4.877,4.877,0,0,0-.319.936,3.517,3.517,0,0,0-.051.408l6.93.067a4.144,4.144,0,0,0-.223-1.083,3.474,3.474,0,0,0-1.272-1.613l0,0a6.236,6.236,0,0,0-1.3-.143" transform="translate(147.246 82.91)" fill="#323d42" fill-rule="evenodd"/>
    <path id="Path_96" data-name="Path 96" d="M131.08,73.341l0-.016a2.034,2.034,0,0,1,.789-1.085c1.62-1.161,2.8-2.17,4.071-2.173,2.663,0,5.37.751,5.813-.007.067.6-.807,1.072-.978,1.3.363.134,1.11.14,2.375-.579,0,0-1.007,2.233-2.072,2.44a33.016,33.016,0,0,0-4.94-2.155,11.412,11.412,0,0,0-5.062,2.273M142.8,66.795a22.116,22.116,0,0,0-4.719-.441c-1.872.189-6.3.86-6.3.86-1.032-.468-1.524-1.353-1.281-1.537.673-.515,8.534-.807,9.586-.584.575.12,2.857,1.5,2.712,1.7m-32.8-.35a14.744,14.744,0,0,1,3.877-.385c1.872.223,7.13,1.009,7.13,1.009,1.038-.446,1.546-1.321,1.31-1.511-.664-.53-8.521-.967-9.575-.764-.577.111-2.886,1.444-2.743,1.651m9.044,20.673h15.457s-2.705,5.871-7.952,5.871-7.5-5.871-7.5-5.871" transform="translate(135.105 79.518)" fill="#263238" fill-rule="evenodd"/>
    <path id="Path_97" data-name="Path 97" d="M114.968,75.447c.72,1.433,2.91,5.013,6.836,5.013s6.393-3.558,7.237-5.013Zm6.836,5.871a7.806,7.806,0,0,1-6.05-3.091,12.062,12.062,0,0,1-1.856-3.055.428.428,0,0,1,.4-.579h15.457a.43.43,0,0,1,.39.6C130.031,75.447,127.263,81.319,121.8,81.319Z" transform="translate(139.857 91.617)" fill="#263238" fill-rule="evenodd"/>
    <path id="Path_98" data-name="Path 98" d="M115.161,76.846h13.019a12.717,12.717,0,0,0,1.288-2.061H114.063a11.31,11.31,0,0,0,1.1,2.063" transform="translate(140.093 91.852)" fill="#fff" fill-rule="evenodd"/>
    <path id="Path_99" data-name="Path 99" d="M115.631,76.656H128.2a11.943,11.943,0,0,0,.789-1.208H114.958a10.836,10.836,0,0,0,.673,1.208m12.788.856H115.4a.43.43,0,0,1-.357-.189,11.679,11.679,0,0,1-1.141-2.139.428.428,0,0,1,.4-.59h15.4a.441.441,0,0,1,.365.2.428.428,0,0,1,.018.419,13.114,13.114,0,0,1-1.33,2.13.43.43,0,0,1-.341.169" transform="translate(139.856 91.616)" fill="#263238" fill-rule="evenodd"/>
    <path id="Path_100" data-name="Path 100" d="M162.68,73.192c2.545,16.455,7.159,29.448,4.9,40.649-5.967,29.6-52.953,28.053-65.213-4.893-1.406-.35,2.066-6.627,4.624-5.675,26.195,9.746,50.153-14.116,55.687-30.081" transform="translate(125.332 89.895)" fill="#0d724c" fill-rule="evenodd"/>
    <path id="Path_101" data-name="Path 101" d="M106.681,103.844a3.657,3.657,0,0,0-2.429,1.627c-1.27,1.558-1.678,3.07-1.517,3.32a.362.362,0,0,1,.272.245,39.3,39.3,0,0,0,39.535,25.575,29.445,29.445,0,0,0,15.925-5.86,24.548,24.548,0,0,0,8.928-14.757c1.564-7.761-.225-16.484-2.3-26.585-.807-3.933-1.638-7.986-2.351-12.315-3.7,9.091-13.191,21.005-26.4,27.211-9.711,4.561-19.831,5.116-29.265,1.607a1.119,1.119,0,0,0-.392-.067m33.16,31.73A40.168,40.168,0,0,1,102.263,109.5a.869.869,0,0,1-.374-.539c-.267-1.085,1.029-3.583,2.569-4.949a2.9,2.9,0,0,1,2.919-.9c9.211,3.429,19.1,2.881,28.6-1.58,13.739-6.453,23.385-19.163,26.534-28.238a.428.428,0,0,1,.829.074c.762,4.915,1.7,9.47,2.6,13.873,2.092,10.192,3.9,18.993,2.3,26.926-2.435,12.092-12.255,20.254-25.624,21.3-.907.071-1.832.107-2.767.107" transform="translate(125.097 89.658)" fill="#263238" fill-rule="evenodd"/>
    <path id="Path_102" data-name="Path 102" d="M108.357,65.3h2.34a2.332,2.332,0,0,1,2.335,2.331v9.323a2.333,2.333,0,0,1-2.335,2.328h-2.34a2.333,2.333,0,0,1-2.335-2.328V67.635a2.334,2.334,0,0,1,2.337-2.331" transform="translate(130.217 80.207)" fill="#fff" fill-rule="evenodd"/>
    <path id="Path_103" data-name="Path 103" d="M108.593,65.968a1.907,1.907,0,0,0-1.905,1.9v9.325a1.907,1.907,0,0,0,1.907,1.9h2.335a1.905,1.905,0,0,0,1.907-1.9V67.868a1.907,1.907,0,0,0-1.907-1.9H108.6Zm2.34,13.982h-2.34a2.763,2.763,0,0,1-2.763-2.756V67.868a2.763,2.763,0,0,1,2.763-2.756h2.34a2.763,2.763,0,0,1,2.763,2.756v9.325a2.763,2.763,0,0,1-2.763,2.756Z" transform="translate(129.981 79.971)" fill="#263238" fill-rule="evenodd"/>
    <path id="Path_104" data-name="Path 104" d="M127.587,65.3h2.335a2.335,2.335,0,0,1,2.34,2.331v9.323a2.334,2.334,0,0,1-2.34,2.328h-2.335a2.332,2.332,0,0,1-2.335-2.328V67.635a2.334,2.334,0,0,1,2.335-2.331" transform="translate(153.836 80.207)" fill="#fff" fill-rule="evenodd"/>
    <path id="Path_105" data-name="Path 105" d="M127.823,65.968a1.907,1.907,0,0,0-1.91,1.9v9.325a1.907,1.907,0,0,0,1.907,1.9h2.34a1.905,1.905,0,0,0,1.905-1.9V67.868a1.907,1.907,0,0,0-1.907-1.9Zm2.335,13.982h-2.335a2.763,2.763,0,0,1-2.763-2.756V67.868a2.763,2.763,0,0,1,2.763-2.756h2.34a2.763,2.763,0,0,1,2.763,2.756v9.325a2.763,2.763,0,0,1-2.763,2.756Z" transform="translate(153.6 79.971)" fill="#263238" fill-rule="evenodd"/>
    <path id="Path_106" data-name="Path 106" d="M150.677,79.684a.428.428,0,0,1-.43-.428v-7.6c0-10.715-7.649-16.859-20.99-16.859s-20.994,6.143-21,16.856v7.6a.429.429,0,1,1-.858,0v-7.6c0-5.934,2.173-10.5,6.455-13.585,3.755-2.7,9.08-4.129,15.4-4.129s11.645,1.426,15.4,4.129c4.28,3.082,6.453,7.652,6.453,13.583v7.6a.428.428,0,0,1-.43.428m-9.323,25.455a.428.428,0,0,1-.127-.836,12.675,12.675,0,0,0,8.126-6.682,11.9,11.9,0,0,0,1.174-4.561.43.43,0,0,1,.86,0c0,.089-.114,9.024-9.909,12.061a.431.431,0,0,1-.127.018" transform="translate(131.913 66.255)" fill="#263238" fill-rule="evenodd"/>
    <path id="Path_107" data-name="Path 107" d="M126.479,77.5c.446,1.283-.807,2.874-2.8,3.57s-3.966.2-4.414-1.078.807-2.874,2.8-3.57,3.993-.205,4.414,1.078" transform="translate(146.374 93.47)" fill="#fff" fill-rule="evenodd"/>
    <path id="Path_108" data-name="Path 108" d="M124.11,76.767a5.124,5.124,0,0,0-1.664.29c-1.736.6-2.9,1.99-2.536,3.026a1.5,1.5,0,0,0,.8.82,4.17,4.17,0,0,0,3.064,0c1.736-.6,2.9-1.99,2.536-3.026l0-.007a1.452,1.452,0,0,0-.769-.8,3.266,3.266,0,0,0-1.431-.294m-1.992,5.276a4.152,4.152,0,0,1-1.783-.37,2.318,2.318,0,0,1-1.237-1.31c-.53-1.524.816-3.331,3.064-4.113a5.025,5.025,0,0,1,3.759.045,2.254,2.254,0,0,1,1.2,1.3c.526,1.522-.82,3.327-3.066,4.109a5.915,5.915,0,0,1-1.939.339" transform="translate(146.136 93.234)" fill="#263238" fill-rule="evenodd"/>
    <path id="Path_109" data-name="Path 109" d="M43.985,68.678s13.507-19.624,25.5-20.243C81.232,47.829,96.125,69.32,96.125,69.32s2.941,30.919,5.588,44.4c1.506,7.663-.526,17.837,3.193,27.87,10.072,27.18-39.74,7.839-57.414,4.583-24.051-4.432-.446-33.871-7.4-44.972-3.333-5.319,3.89-32.523,3.89-32.523" transform="translate(44.702 59.473)" fill="#7c2f2f" fill-rule="evenodd"/>
    <path id="Path_110" data-name="Path 110" d="M44.62,69.094c-.408,1.56-7.039,27.144-3.924,32.115,2.774,4.432.92,11.433-1.047,18.844-2.043,7.71-4.158,15.682-.907,20.794,1.682,2.645,4.648,4.327,9.067,5.141,3.5.646,8.144,1.887,13.523,3.327,15.675,4.2,37.144,9.942,43.1,3.436,2.032-2.219,2.137-5.845.31-10.776-2.317-6.252-2.429-12.618-2.522-18.236a57.233,57.233,0,0,0-.689-9.7c-2.542-12.939-5.386-42.265-5.584-44.328a93.335,93.335,0,0,0-8.813-10.531c-6.7-6.836-12.716-10.312-17.391-10.08-6.052.312-12.558,5.726-16.952,10.216A85.07,85.07,0,0,0,44.62,69.1M94.38,156.56c-9.283,0-22.173-3.449-33.272-6.417-5.361-1.437-9.989-2.674-13.458-3.316-4.664-.86-7.817-2.665-9.633-5.521-3.454-5.428-1.288-13.583.8-21.469,1.916-7.228,3.726-14.058,1.148-18.175C36.576,96.247,43.51,69.923,43.809,68.8a.435.435,0,0,1,.06-.134c.557-.809,13.766-19.8,25.829-20.426.172-.009.343-.013.517-.013,11.754,0,25.9,20.21,26.5,21.083a.438.438,0,0,1,.074.2c.029.31,2.968,31.05,5.582,44.357a57.875,57.875,0,0,1,.7,9.853c.1,5.548.2,11.834,2.469,17.953,1.947,5.254,1.787,9.174-.479,11.649-2.135,2.331-5.94,3.233-10.687,3.233" transform="translate(44.464 59.238)" fill="#263238" fill-rule="evenodd"/>
    <path id="Path_111" data-name="Path 111" d="M39.594,125.764s6.671-1.9,8.1-1.181,2.148,14.951,2.148,14.951-.722,1.419-2.148,0-6.183-12.144-6.183-12.144" transform="translate(48.63 152.815)" fill="#f29066" fill-rule="evenodd"/>
    <path id="Path_112" data-name="Path 112" d="M48.942,140.828a2.183,2.183,0,0,1-1.488-.758c-1.466-1.462-6.076-11.832-6.272-12.273l.784-.348c1.315,2.964,4.971,10.9,6.094,12.014a1.359,1.359,0,0,0,.963.5.727.727,0,0,0,.446-.312c-.345-6.678-1.152-13.882-1.916-14.461-.914-.461-5.259.5-7.774,1.217l-.236-.824c1.141-.323,6.907-1.907,8.409-1.15,1.486.751,2.161,10.956,2.382,15.308l.007.116-.053.1a1.631,1.631,0,0,1-1.125.847,1.4,1.4,0,0,1-.216.018" transform="translate(48.565 152.583)" fill="#263238" fill-rule="evenodd"/>
    <path id="Path_113" data-name="Path 113" d="M38.629,125.527s6.87-1.662,8.329.949,5.007,14.238,2.146,14.711-3.812-3.32-3.812-3.32l-4.523-8.311-3.093-.47" transform="translate(46.273 153.534)" fill="#f29066" fill-rule="evenodd"/>
    <path id="Path_114" data-name="Path 114" d="M48.662,141.892c-2.188,0-3.385-2.286-3.739-3.632l-4.4-8.075-2.879-.439.129-.847,3.3.5,4.666,8.6c.036.138.9,3.4,3.327,3,.125-.02.307-.085.463-.408,1.1-2.279-1.562-11.252-2.914-13.672-1.067-1.905-6.032-1.181-7.854-.742l-.2-.831a21.91,21.91,0,0,1,3.7-.517c2.692-.127,4.412.437,5.1,1.673,1.248,2.233,4.309,11.631,2.941,14.461a1.471,1.471,0,0,1-1.1.88,3.354,3.354,0,0,1-.546.045" transform="translate(46.237 153.297)" fill="#263238" fill-rule="evenodd"/>
    <path id="Path_115" data-name="Path 115" d="M37.031,126.585s3.342-1.422,5.007-.232,9.292,13.289,7.857,13.793-4.766.243-5.236-.709-6.673-9.02-6.673-9.02" transform="translate(45.482 154.606)" fill="#f29066" fill-rule="evenodd"/>
    <path id="Path_116" data-name="Path 116" d="M48.055,141.056c-1.542,0-3.269-.345-3.69-1.194-.334-.668-4.147-5.718-6.629-8.949l.682-.519c.637.829,6.239,8.128,6.716,9.089.29.586,3.126.989,4.61.53.111-1.462-6.083-11.805-7.866-13.077-1.2-.86-3.717-.089-4.586.276l-.336-.787c.145-.062,3.583-1.5,5.423-.185,1.693,1.208,8.5,11.9,8.2,13.949a.7.7,0,0,1-.455.6,6.819,6.819,0,0,1-2.074.27" transform="translate(45.39 154.371)" fill="#263238" fill-rule="evenodd"/>
    <path id="Path_117" data-name="Path 117" d="M35.964,129.161s3.1-2.848,4.766-1.9,8.585,9.969,7.144,10.918-2.386,0-3.812-1.9a16.674,16.674,0,0,0-3.572-3.329l-2.861.949" transform="translate(44.171 156.067)" fill="#f29066" fill-rule="evenodd"/>
    <path id="Path_118" data-name="Path 118" d="M46.966,139.217c-1.257,0-2.217-1.281-3.088-2.442a16.32,16.32,0,0,0-3.3-3.113l-2.654.882-.272-.811,3.062-1.018.178.123a17.067,17.067,0,0,1,3.663,3.414c1.593,2.123,2.228,2.476,3.24,1.809.579-1.016-5.477-9.254-7.121-10.19-1.134-.648-3.516,1.159-4.263,1.843l-.579-.631c.339-.312,3.38-3.03,5.267-1.956,1.526.869,7.48,8.394,7.556,10.776a.926.926,0,0,1-.388.873,2.366,2.366,0,0,1-1.306.441" transform="translate(44.012 155.831)" fill="#263238" fill-rule="evenodd"/>
    <path id="Path_119" data-name="Path 119" d="M67.716,125.764s-6.673-1.9-8.1-1.181-2.148,14.951-2.148,14.951.713,1.419,2.148,0,6.19-12.144,6.19-12.144" transform="translate(70.586 152.815)" fill="#f29066" fill-rule="evenodd"/>
    <path id="Path_120" data-name="Path 120" d="M58.666,140.828a1.416,1.416,0,0,1-.223-.02,1.618,1.618,0,0,1-1.114-.849l-.053-.1.007-.111c.223-4.354.894-14.559,2.382-15.31s7.268.824,8.409,1.152l-.236.822c-2.518-.717-6.856-1.678-7.785-1.21-.755.573-1.56,7.776-1.905,14.457a.716.716,0,0,0,.441.31c.258.04.595-.134.967-.5,1.13-1.119,4.786-9.051,6.1-12.014l.784.348c-.194.441-4.806,10.814-6.279,12.273a2.191,2.191,0,0,1-1.493.758" transform="translate(70.347 152.583)" fill="#263238" fill-rule="evenodd"/>
    <path id="Path_121" data-name="Path 121" d="M69.937,125.527s-6.87-1.662-8.338.949-5,14.238-2.139,14.744,3.806-3.32,3.806-3.32l4.523-8.311,3.1-.468" transform="translate(71.697 153.534)" fill="#f29066" fill-rule="evenodd"/>
    <path id="Path_122" data-name="Path 122" d="M60.2,141.929a3.292,3.292,0,0,1-.579-.051,1.483,1.483,0,0,1-1.1-.9c-1.312-2.761,1.633-12.157,2.937-14.474.7-1.237,2.415-1.8,5.114-1.671a22.21,22.21,0,0,1,3.7.513l-.2.833c-1.823-.439-6.789-1.163-7.863.742-1.35,2.4-4.011,11.368-2.91,13.69.16.334.345.4.472.423,2.429.435,3.278-2.859,3.313-3l.038-.1,4.628-8.5,3.311-.5.129.847-2.89.437-4.4,8.075c-.35,1.353-1.533,3.636-3.7,3.636" transform="translate(71.467 153.298)" fill="#263238" fill-rule="evenodd"/>
    <path id="Path_123" data-name="Path 123" d="M71.84,126.585s-3.331-1.422-5-.232-9.316,13.289-7.881,13.793,4.757.243,5.236-.709,6.662-9.02,6.662-9.02" transform="translate(72.198 154.606)" fill="#f29066" fill-rule="evenodd"/>
    <path id="Path_124" data-name="Path 124" d="M61.123,141.056a6.867,6.867,0,0,1-2.07-.267.711.711,0,0,1-.452-.6c-.178-1.254,2.057-5.127,3.4-7.326,1.673-2.725,3.9-5.963,4.824-6.624,1.841-1.315,5.272.123,5.415.185l-.334.787c-.869-.368-3.378-1.136-4.581-.276-.691.495-2.743,3.353-4.67,6.506-2.429,3.975-3.235,6.052-3.215,6.573,1.482.455,4.312.049,4.608-.535.486-.958,6.07-8.258,6.707-9.087l.682.519c-1.713,2.235-6.241,8.2-6.622,8.953-.428.844-2.155,1.19-3.694,1.19" transform="translate(71.961 154.371)" fill="#263238" fill-rule="evenodd"/>
    <path id="Path_125" data-name="Path 125" d="M72.376,129.161s-3.1-2.848-4.766-1.9-8.588,9.969-7.144,10.918,2.378,0,3.81-1.9a16.677,16.677,0,0,1,3.574-3.329l2.859.949" transform="translate(74.024 156.067)" fill="#f29066" fill-rule="evenodd"/>
    <path id="Path_126" data-name="Path 126" d="M61.766,139.212a2.345,2.345,0,0,1-1.3-.437.931.931,0,0,1-.39-.873c.078-2.384,6.03-9.9,7.556-10.776,1.883-1.074,4.931,1.644,5.272,1.956l-.584.631c-.744-.684-3.128-2.491-4.26-1.843a25.11,25.11,0,0,0-4.412,5.069c-2.558,3.57-2.808,4.935-2.7,5.134.994.648,1.627.3,3.22-1.814a17.067,17.067,0,0,1,3.67-3.423l.178-.123,3.062,1.018-.272.811-2.652-.882a16.211,16.211,0,0,0-3.307,3.122c-.869,1.154-1.834,2.429-3.086,2.429" transform="translate(73.787 155.832)" fill="#263238" fill-rule="evenodd"/>
    <path id="Path_127" data-name="Path 127" d="M131.572,142.3l15.722,25.159,17.621-7.6L136.336,96.249l-33.341-15.43-22.148.241-35.48,16.85L15.355,161.193l12.382,10.764,22.387-28" transform="translate(18.859 99.263)" fill="#fff" fill-rule="evenodd"/>
    <path id="Path_128" data-name="Path 128" d="M27.976,172.621a.43.43,0,0,1-.283-.1L15.31,161.752a.428.428,0,0,1-.107-.506L45.215,97.963a.434.434,0,0,1,.2-.2L80.9,80.908a.437.437,0,0,1,.178-.04l22.148-.241a.368.368,0,0,1,.185.04L136.755,96.1a.435.435,0,0,1,.209.214l28.579,63.609a.428.428,0,0,1-.223.568l-17.621,7.6a.432.432,0,0,1-.535-.165l-15.722-25.161a.429.429,0,0,1,.729-.452L147.7,167.153l16.881-7.28L136.247,96.8,103.135,81.483l-21.952.238L45.926,98.466,16.119,161.32l11.8,10.259,22.106-27.652a.429.429,0,0,1,.671.535l-22.382,28a.43.43,0,0,1-.3.16h-.038Z" transform="translate(18.623 99.027)" fill="#263238" fill-rule="evenodd"/>
    <path id="Path_129" data-name="Path 129" d="M29.525,94.482l8.868,86.573h70.73l7.687-82.185" transform="translate(36.263 116.044)" fill="#fff" fill-rule="evenodd"/>
    <path id="Path_130" data-name="Path 130" d="M109.36,181.718H38.63a.43.43,0,0,1-.428-.383L29.334,94.762a.428.428,0,0,1,.385-.47.433.433,0,0,1,.47.381l8.828,86.189h69.95l7.652-81.8a.43.43,0,0,1,.856.082l-7.687,82.183a.43.43,0,0,1-.428.388" transform="translate(36.026 115.808)" fill="#263238" fill-rule="evenodd"/>
    <path id="Path_131" data-name="Path 131" d="M81.03,114.743,65.949,146.457l9.7,5.109,28.517-30.114-8.182-9.029" transform="translate(80.999 138.079)" fill="#fff" fill-rule="evenodd"/>
    <path id="Path_132" data-name="Path 132" d="M75.889,152.229a.432.432,0,0,1-.2-.049l-9.7-5.109a.428.428,0,0,1-.187-.562L80.876,114.8a.43.43,0,0,1,.778.365l-14.9,31.346,9.051,4.764,28.02-29.591-7.917-8.735a.429.429,0,0,1,.637-.575l8.182,9.029a.428.428,0,0,1,0,.582L76.2,152.1a.428.428,0,0,1-.312.134" transform="translate(80.763 137.844)" fill="#263238" fill-rule="evenodd"/>
    <path id="Path_133" data-name="Path 133" d="M86.962,128.074c-1.047-.564-18.583-4.748-18.813-2.609s-5.481,4.51-7.866,4.51-4.759-1.9-5.239.949,2.146,3.082,4.292,3.32,9.523-2.139,9.523-2.139,6.87,5.7,9.764,7.13,8.1.94,10-.481,4.523-7.36-1.667-10.68" transform="translate(67.536 153.355)" fill="#f29066" fill-rule="evenodd"/>
    <path id="Path_134" data-name="Path 134" d="M69.19,131.854l.18.151c.069.056,6.863,5.682,9.679,7.072,2.73,1.348,7.776.887,9.559-.439a6.328,6.328,0,0,0,2.023-5.058c-.149-2.01-1.408-3.706-3.636-4.9a79.386,79.386,0,0,0-9.158-2.193c-8.289-1.586-9.009-.76-9.035-.724-.265,2.5-5.86,4.869-8.284,4.869a9.564,9.564,0,0,1-2.246-.357c-.876-.216-1.631-.4-2.052-.125a1.518,1.518,0,0,0-.515,1.074,2.074,2.074,0,0,0,.27,1.658c.631.831,2.161,1,3.514,1.152l.134.013c1.689.192,7.315-1.466,9.343-2.119Zm14.1,8.906a10.749,10.749,0,0,1-4.617-.914c-2.674-1.324-8.534-6.105-9.666-7.034-1.283.406-7.456,2.311-9.477,2.086l-.134-.016c-1.522-.169-3.251-.361-4.1-1.486a2.9,2.9,0,0,1-.43-2.315,2.293,2.293,0,0,1,.891-1.649c.733-.481,1.7-.243,2.727.009a8.678,8.678,0,0,0,2.041.334c2.253,0,7.242-2.313,7.44-4.129a.872.872,0,0,1,.519-.691c2.571-1.348,18.187,2.576,18.924,2.97,3.16,1.693,3.966,3.977,4.089,5.593a7.165,7.165,0,0,1-2.369,5.807A10.705,10.705,0,0,1,83.285,140.76Z" transform="translate(67.299 153.127)" fill="#263238" fill-rule="evenodd"/>
    <path id="Path_135" data-name="Path 135" d="M33.08,117.409,58.8,141.38l-7.146,8.309-6.589-4.073-30.8-19.042,4.294-11.388" transform="translate(17.523 141.471)" fill="#fff" fill-rule="evenodd"/>
    <path id="Path_136" data-name="Path 136" d="M51.891,150.335a.435.435,0,0,1-.225-.065L14.276,127.157a.428.428,0,0,1-.174-.515L18.4,115.252a.43.43,0,0,1,.8.3l-4.167,11.063L51.806,149.35l6.636-7.721-25.417-23.69a.428.428,0,0,1-.02-.6.432.432,0,0,1,.608-.022l25.718,23.973a.427.427,0,0,1,.031.59l-7.144,8.309a.428.428,0,0,1-.328.149" transform="translate(17.286 141.253)" fill="#263238" fill-rule="evenodd"/>
    <path id="Path_137" data-name="Path 137" d="M34.471,128.074c1.047-.564,18.572-4.748,18.813-2.609s5.479,4.51,7.857,4.51,4.768-1.9,5.239.949-2.139,3.082-4.294,3.32-9.521-2.139-9.521-2.139-6.872,5.7-9.764,7.13-8.1.94-10-.481-4.517-7.36,1.676-10.68" transform="translate(37.567 153.355)" fill="#f29066" fill-rule="evenodd"/>
    <path id="Path_138" data-name="Path 138" d="M55.722,159.332a43.5,43.5,0,0,0-7.52.971,79.3,79.3,0,0,0-9.158,2.195c-2.233,1.2-3.492,2.9-3.643,4.909a6.316,6.316,0,0,0,2.023,5.051c1.78,1.328,6.829,1.787,9.555.439,2.816-1.39,9.612-7.019,9.679-7.072l.183-.152.225.071c2.025.655,7.656,2.315,9.343,2.121l.127-.013c1.353-.149,2.883-.319,3.516-1.15a2.09,2.09,0,0,0,.274-1.662,1.512,1.512,0,0,0-.51-1.072c-.423-.279-1.183-.091-2.063.123a9.413,9.413,0,0,1-2.242.357c-2.415,0-8-2.362-8.282-4.889-.011-.007-.2-.227-1.506-.227M42.742,174.579a10.716,10.716,0,0,1-5.833-1.435,7.148,7.148,0,0,1-2.364-5.8c.12-1.618.929-3.9,4.091-5.6.735-.394,16.344-4.316,18.924-2.972a.888.888,0,0,1,.521.691c.2,1.816,5.185,4.131,7.429,4.131a8.661,8.661,0,0,0,2.037-.334c1.032-.252,2.005-.49,2.741-.007a2.272,2.272,0,0,1,.885,1.649,2.916,2.916,0,0,1-.437,2.317c-.853,1.123-2.58,1.315-4.1,1.484l-.127.013c-2.028.223-8.2-1.68-9.479-2.086-1.13.931-6.99,5.711-9.666,7.032a10.7,10.7,0,0,1-4.617.914m-7.629-54.163a.722.722,0,0,1-.617-.348l-7.467-12.148.731-.446,6.952,11.3L28.348,97.385l.824-.245,6.642,22.34a.72.72,0,0,1-.4.869.742.742,0,0,1-.3.065" transform="translate(33.197 119.308)" fill="#263238" fill-rule="evenodd"/>
    <path id="Path_139" data-name="Path 139" d="M56.406,96.237v11.344a3.581,3.581,0,0,0,3.587,3.576h7.4a3.582,3.582,0,0,0,3.59-3.576V96.237" transform="translate(69.278 118.199)" fill="#fff" fill-rule="evenodd"/>
    <path id="Path_140" data-name="Path 140" d="M74.666,119.03h-7.4a4.16,4.16,0,0,1-4.165-4.149V103.537a.575.575,0,0,1,1.15,0v11.344a3.011,3.011,0,0,0,3.013,3h7.4a3.01,3.01,0,0,0,3.015-3V103.537a.575.575,0,0,1,1.15,0v11.344a4.16,4.16,0,0,1-4.162,4.149M51.753,103.6a1.27,1.27,0,1,1-1.268,1.272,1.27,1.27,0,0,1,1.268-1.272m0-13.309a1.27,1.27,0,1,1-1.268,1.272,1.27,1.27,0,0,1,1.268-1.272m0,27.1a1.27,1.27,0,1,1-1.268,1.272,1.27,1.27,0,0,1,1.268-1.272m0,13.79a1.27,1.27,0,1,1-1.268,1.272,1.27,1.27,0,0,1,1.268-1.272m0,13.79a1.27,1.27,0,1,1-1.268,1.272,1.27,1.27,0,0,1,1.268-1.272" transform="translate(62.006 110.899)" fill="#263238" fill-rule="evenodd"/>
    <path id="Path_141" data-name="Path 141" d="M44.284,96.741h29.3V72.275h-29.3Z" transform="translate(54.39 88.769)" fill="#eb7e57" fill-rule="evenodd"/>
    <path id="Path_142" data-name="Path 142" d="M44.951,96.549H73.39V72.939H44.951ZM73.82,97.4h-29.3a.428.428,0,0,1-.43-.428V72.511a.43.43,0,0,1,.43-.428h29.3a.43.43,0,0,1,.43.428V96.977a.428.428,0,0,1-.43.428Z" transform="translate(54.153 88.533)" fill="#263238" fill-rule="evenodd"/>
    <path id="Path_143" data-name="Path 143" d="M66.9,61.22c-2.037-.844-4.626.829-6.6,4.7V76.234c1.97.992,3.378-.2,5.3-3.645,1.729-3.1,3.131-2.819,3.592-5.163.787-4-.47-5.45-2.3-6.206" transform="translate(74.071 74.928)" fill="#f29066" fill-rule="evenodd"/>
    <path id="Path_144" data-name="Path 144" d="M61.3,70.2c1.776.325,9.443-9.434,1.2-7.4-2.451.606-2.525,7.157-1.2,7.4" transform="translate(74.241 76.789)" fill="#eb7e57" fill-rule="evenodd"/>
    <path id="Path_145" data-name="Path 145" d="M40.267,61.22c2.039-.844,4.5.829,6.462,4.7V76.234c-1.965.992-3.242-.2-5.165-3.645-1.731-3.1-3.133-2.819-3.592-5.163-.787-4,.468-5.45,2.3-6.206" transform="translate(46.344 74.928)" fill="#f29066" fill-rule="evenodd"/>
    <path id="Path_146" data-name="Path 146" d="M44.1,70.2c-1.776.325-9.443-9.434-1.2-7.4,2.451.606,2.527,7.157,1.2,7.4" transform="translate(48.081 76.789)" fill="#eb7e57" fill-rule="evenodd"/>
    <path id="Path_147" data-name="Path 147" d="M88.895,62.441c-1.742-1.5-15.671-13.18-22.291-14.232a4.166,4.166,0,0,0-.862-.076l-.238.007c-.042,0,.009.127-.031.131l.045.129-.163-.129c-.042,0-.143-.131-.185-.131a4.3,4.3,0,0,0-1.143.067c-6.618,1.054-20.553,12.73-22.3,14.234-6.061,4.5,2.317,21.094,2.317,21.094.495,4.156-.178,17.688,2.549,22.957,2.556,4.935,11.994,9.292,18.713,9.292,5.738,0,16.411-4.2,18.967-9.136,2.727-5.267,1.852-18.958,2.349-23.113,0,0,8.333-16.593,2.271-21.094" transform="translate(48.55 59.112)" fill="#263238" fill-rule="evenodd"/>
    <path id="Path_148" data-name="Path 148" d="M88.922,56.37c-1.19-1.025-13.084-3.32-23.49-3.3-10.406-.022-22.5,2.273-23.693,3.3-6.063,4.5,2.66,20.321,2.66,20.321a20.259,20.259,0,0,0,3,8.3c.684,1.1,2.892,1.985,5.891,2.647v0c-.824,3.278,1.395,11.007.969,7.424a13.923,13.923,0,0,1,.274-4.494,2.836,2.836,0,0,1,3.148-2.19,83.4,83.4,0,0,0,14.929.457,2.845,2.845,0,0,1,3,2.357,13.547,13.547,0,0,1,.127,3.87c-.4,3.329,1.493-3.106,1.1-6.665,3.581-.533,6.221-1.435,6.863-2.756a36.291,36.291,0,0,0,2.355-8.951s8.928-15.82,2.865-20.321" transform="translate(48.632 65.183)" fill="#f29066" fill-rule="evenodd"/>
    <path id="Path_149" data-name="Path 149" d="M83.271,61.3a5.993,5.993,0,0,1,2.317,3.289c.149.392.283.809.412,1.248a27.96,27.96,0,0,1,.653,2.843c1.326,7.387-.29,13.392-.348,14.818l.851-1.7s5.4-8.864,5.4-15.646c0-14.519-5.637-10.205-8.173-12.38-.067-.053-.129-.111-.194-.172l-.018.143-.9,7.56Zm-34.544.2a5.623,5.623,0,0,0-2.473,3.093q-.227.616-.41,1.248a28.573,28.573,0,0,0-.653,2.843c-1.326,7.387.421,13.61.481,15.036L44.687,81.8S37.6,74.493,39.29,57.22c.856-8.73,10.771-7.427,10.836-7.487L48.727,61.5Z" transform="translate(47.937 61.038)" fill="#263238" fill-rule="evenodd"/>
    <path id="Path_150" data-name="Path 150" d="M64.164,76.33l-3.645-.178.713-14.4,3.645.178A3.5,3.5,0,0,1,68.2,65.588l-.37,7.444a3.5,3.5,0,0,1-3.67,3.3" transform="translate(74.33 75.841)" fill="#fff" fill-rule="evenodd"/>
    <path id="Path_151" data-name="Path 151" d="M64.421,76.139a3.064,3.064,0,0,0,3.222-2.892L68.01,65.8A3.057,3.057,0,0,0,65.091,62.6l-3.215-.16-.671,13.548,3.215.156Zm.154.86c-.067,0-.129,0-.2,0l-3.645-.178a.428.428,0,0,1-.406-.448l.713-14.4a.428.428,0,0,1,.448-.408l3.645.18a3.926,3.926,0,0,1,3.734,4.107L68.5,73.289A3.937,3.937,0,0,1,64.574,77Z" transform="translate(74.094 75.605)" fill="#263238" fill-rule="evenodd"/>
    <path id="Path_152" data-name="Path 152" d="M56.751,80.413a.428.428,0,0,1-.116-.84,17.151,17.151,0,0,0,9.826-6.64,12.963,12.963,0,0,0,2.059-4.49.426.426,0,0,1,.5-.343.43.43,0,0,1,.345.5,13.54,13.54,0,0,1-2.17,4.784A18,18,0,0,1,56.866,80.4Z" transform="translate(69.174 83.632)" fill="#263238" fill-rule="evenodd"/>
    <path id="Path_153" data-name="Path 153" d="M60.413,74.093c.383,1.306-.949,2.834-2.972,3.427s-3.973.011-4.356-1.292.949-2.832,2.972-3.427,4-.009,4.356,1.292" transform="translate(65.119 89.128)" fill="#fff" fill-rule="evenodd"/>
    <path id="Path_154" data-name="Path 154" d="M57.85,73.177a5.308,5.308,0,0,0-1.464.216c-1.78.524-3.017,1.869-2.7,2.941a1.541,1.541,0,0,0,.775.878,4.2,4.2,0,0,0,3.088.147c1.78-.524,3.019-1.869,2.705-2.939l0-.007a1.478,1.478,0,0,0-.744-.862,3.474,3.474,0,0,0-1.656-.374m-1.763,5.185A4.237,4.237,0,0,1,54.08,77.9a2.277,2.277,0,0,1-1.154-1.35c-.45-1.529.974-3.249,3.238-3.915a5.015,5.015,0,0,1,3.728.227A2.216,2.216,0,0,1,61.01,74.2c.446,1.531-.976,3.247-3.24,3.913a6.043,6.043,0,0,1-1.682.247" transform="translate(64.902 88.911)" fill="#fff" fill-rule="evenodd"/>
    <path id="Path_155" data-name="Path 155" d="M64.336,71.534a18.63,18.63,0,0,1-7.821,4.225" transform="translate(69.412 87.859)" fill="#263238" fill-rule="evenodd"/>
    <path id="Path_156" data-name="Path 156" d="M56.729,76.37a.394.394,0,0,1-.1-.773,18.3,18.3,0,0,0,7.658-4.136.4.4,0,0,1,.559.022.392.392,0,0,1-.02.555,19.119,19.119,0,0,1-7.986,4.316Z" transform="translate(69.196 87.641)" fill="#fff" fill-rule="evenodd"/>
    <path id="Path_157" data-name="Path 157" d="M79.012,62.832c-.958-.323-12.369.194-13.585.241-.811.031-1.259-4.113-.931-4.1,5.236.172,10.963.472,12.039.891.59.227,2.861,3.1,2.476,2.968m-36.077.131c.954-.325,12.367.178,13.583.223.811.031,1.254-4.113.927-4.1-5.236.178-10.963.486-12.039.9-.588.232-2.857,3.1-2.473,2.975" transform="translate(52.675 72.431)" fill="#263238" fill-rule="evenodd"/>
    <path id="Path_158" data-name="Path 158" d="M49.428,66.966a4.233,4.233,0,0,0,3.928,2.919,4.328,4.328,0,0,0,3.931-2.919" transform="translate(60.708 82.248)" fill="#f29066" fill-rule="evenodd"/>
    <path id="Path_159" data-name="Path 159" d="M53.662,70.54A4.8,4.8,0,0,1,49.179,67.2l1.11-.3a3.649,3.649,0,0,0,3.374,2.493,3.756,3.756,0,0,0,3.376-2.5l1.11.3a4.933,4.933,0,0,1-4.485,3.342" transform="translate(60.402 82.166)" fill="#263238" fill-rule="evenodd"/>
    <path id="Path_160" data-name="Path 160" d="M63.091,71.082a.44.44,0,0,1,.475.7c-1.774,2.023-4.857,4.207-8.008,4.2-2.787,0-6.373-2.859-8.113-4.673a.44.44,0,0,1,.455-.726c4.385,1.506,11.181,1.783,15.192.492" transform="translate(58.114 86.667)" fill="#fffee9" fill-rule="evenodd"/>
    <path id="Path_161" data-name="Path 161" d="M44.011,65.869a8.814,8.814,0,0,0,3.866,1.95,13.2,13.2,0,0,0,4.45.321,10.206,10.206,0,0,0,2.656-.595,12.133,12.133,0,0,0,.183-2.707,6.1,6.1,0,0,0-1.475-1.682,7.648,7.648,0,0,0-4.062-1.526,6.873,6.873,0,0,0-1.43.143l0,0A6.775,6.775,0,0,0,44.2,64.127s-.7,1.272-.192,1.742" transform="translate(53.827 75.693)" fill="#263238" fill-rule="evenodd"/>
    <path id="Path_162" data-name="Path 162" d="M44.011,66.023a8.814,8.814,0,0,0,3.866,1.95,13.2,13.2,0,0,0,4.45.321,10.206,10.206,0,0,0,2.656-.595,17.662,17.662,0,0,0,.183-3.184,11.843,11.843,0,0,0-1.555-1.092,7.234,7.234,0,0,0-3.96-1.453,7.079,7.079,0,0,0-1.453-.045l0,0A6.775,6.775,0,0,0,44.2,64.281s-.7,1.272-.192,1.742" transform="translate(53.827 76.016)" fill="#fff" fill-rule="evenodd"/>
    <path id="Path_163" data-name="Path 163" d="M45.035,65.132a3.773,3.773,0,0,0,1.357,2.9,13.2,13.2,0,0,0,4.45.321,3.779,3.779,0,0,0,1.364-4.984,7.666,7.666,0,0,0-4.062-1.526,6.874,6.874,0,0,0-1.431.143l0,0a3.78,3.78,0,0,0-1.671,3.142" transform="translate(55.312 75.956)" fill="#263238" fill-rule="evenodd"/>
    <path id="Path_164" data-name="Path 164" d="M47.218,61.82a6.894,6.894,0,0,0-1.388.167l-.076.045.071-.013,0,0a6.764,6.764,0,0,1,1.377-.143h.053A7.666,7.666,0,0,1,51.322,63.4l.045.089q-.054-.122-.116-.241A7.321,7.321,0,0,0,47.26,61.82h-.042" transform="translate(56.196 75.928)" fill="#323d42" fill-rule="evenodd"/>
    <path id="Path_165" data-name="Path 165" d="M46.707,61.909l-.069.013A3.456,3.456,0,0,0,45.3,63.654a3.807,3.807,0,0,1,1.4-1.745m5.878,2.482a3.743,3.743,0,0,1,.053.452l.007,0a2.221,2.221,0,0,0-.06-.455m-7.531.294q-.009.08-.016.16l0,0q0-.079.011-.158" transform="translate(55.314 76.037)" fill="#f5f5f5" fill-rule="evenodd"/>
    <path id="Path_166" data-name="Path 166" d="M48.086,61.843a6.748,6.748,0,0,0-1.377.143l0,0A3.816,3.816,0,0,0,45.3,63.735a4.51,4.51,0,0,0-.258,1.19,6.74,6.74,0,0,1,3.576-.994,9.25,9.25,0,0,1,4.02.994,3.766,3.766,0,0,0-.051-.455,5.318,5.318,0,0,0-.381-1.1,7.666,7.666,0,0,0-4.062-1.526h-.053" transform="translate(55.316 75.956)" fill="#323d42" fill-rule="evenodd"/>
    <path id="Path_167" data-name="Path 167" d="M64.44,65.869a8.826,8.826,0,0,1-3.866,1.95,13.2,13.2,0,0,1-4.452.321,10.17,10.17,0,0,1-2.656-.595,12.132,12.132,0,0,1-.183-2.707,5.357,5.357,0,0,1,1.475-1.682,7.705,7.705,0,0,1,4.062-1.526,6.658,6.658,0,0,1,1.431.143l0,0a6.775,6.775,0,0,1,3.991,2.351s.7,1.272.194,1.742" transform="translate(65.443 75.693)" fill="#263238" fill-rule="evenodd"/>
    <path id="Path_168" data-name="Path 168" d="M64.44,66.033a8.827,8.827,0,0,1-3.866,1.95,13.2,13.2,0,0,1-4.452.321,10.116,10.116,0,0,1-2.656-.595,17.661,17.661,0,0,1-.183-3.184,11.068,11.068,0,0,1,1.511-1.092,7.645,7.645,0,0,1,4.062-1.524,6.469,6.469,0,0,1,1.395.027l.04.118a6.555,6.555,0,0,1,3.955,2.237s.7,1.272.194,1.742" transform="translate(65.443 76.006)" fill="#fff" fill-rule="evenodd"/>
    <path id="Path_169" data-name="Path 169" d="M61.357,65.132A3.778,3.778,0,0,1,60,68.033a13.2,13.2,0,0,1-4.452.321,3.779,3.779,0,0,1-1.364-4.985,7.673,7.673,0,0,1,4.064-1.526,6.818,6.818,0,0,1,1.431.143l0,0a3.78,3.78,0,0,1,1.671,3.142" transform="translate(66.014 75.956)" fill="#263238" fill-rule="evenodd"/>
    <path id="Path_170" data-name="Path 170" d="M58.07,61.82h-.042a7.314,7.314,0,0,0-3.988,1.426q-.059.113-.111.23l.038-.078a7.673,7.673,0,0,1,4.062-1.526h.056a6.743,6.743,0,0,1,1.375.143l0,0c.071.047.14.1.207.149l.08.018a2.037,2.037,0,0,0-.29-.2,6.886,6.886,0,0,0-1.39-.167" transform="translate(66.235 75.928)" fill="#323d42" fill-rule="evenodd"/>
    <path id="Path_171" data-name="Path 171" d="M59.89,61.976a3.772,3.772,0,0,1,1.2,1.6,3.61,3.61,0,0,0-1.123-1.586l-.08-.018m-6.083,2.333a2.282,2.282,0,0,0-.058.455h0a3.657,3.657,0,0,1,.053-.455m7.531.294.011.156.007,0q-.007-.08-.018-.16" transform="translate(66.015 76.12)" fill="#f5f5f5" fill-rule="evenodd"/>
    <path id="Path_172" data-name="Path 172" d="M58.3,61.843h-.056a7.673,7.673,0,0,0-4.062,1.526l-.04.078a5.291,5.291,0,0,0-.339,1.025,3.743,3.743,0,0,0-.053.452,9.282,9.282,0,0,1,4.02-.994,6.735,6.735,0,0,1,3.576.994,4.523,4.523,0,0,0-.256-1.181,3.8,3.8,0,0,0-1.41-1.754l0,0a6.876,6.876,0,0,0-1.375-.143" transform="translate(66.018 75.956)" fill="#323d42" fill-rule="evenodd"/>
    <path id="Path_173" data-name="Path 173" d="M73.566,69.2s5.236,5.156,11.386,2.511c3.67-1.578,9.035-1.092,9.035-1.092s4.084,15.6,4.96,22.933L99,95.568a50.534,50.534,0,0,1,1.451,11.7c0,14.757,7.251,23.267-1.165,26.4l13.672,6.072c3.63-3.812-2.117-21.725-3.03-25.076-4.829-17.69,8.853-29.88-7.687-48.138,0,0-8.311-21.645-28.216-22.117-20.3-.481-27.1,21.812-27.1,21.812C32.732,83.168,36.408,96.7,38.463,111.774c.666,4.893-11.923,18.32-2.09,29.615,1.529.323,11.832-4.3,11.81-5.691-6.4-2.2-.706-14.925-1-27.291a63.771,63.771,0,0,1,.76-12.814l.241-2.043C49.06,86.212,54.147,71.1,54.147,71.1a14.924,14.924,0,0,1,8.033.606C68.33,74.354,73.566,69.2,73.566,69.2" transform="translate(40.044 54.528)" fill="#ff5f5f" fill-rule="evenodd"/>
    <path id="Path_174" data-name="Path 174" d="M36.84,141.221h.045c1.812,0,9.719-3.677,10.963-5.058-3.926-1.756-3.075-7.444-2.01-14.579A76.505,76.505,0,0,0,47,108.652a65.1,65.1,0,0,1,.769-12.9l.234-2.014c.871-7.3,5.934-22.382,5.985-22.534a.43.43,0,0,1,.312-.281,15.193,15.193,0,0,1,8.3.631c5.807,2.5,10.865-2.375,10.916-2.424a.43.43,0,0,1,.6,0c.051.049,5.109,4.92,10.918,2.424,3.726-1.6,9.018-1.145,9.24-1.125a.43.43,0,0,1,.379.319c.04.156,4.1,15.707,4.969,22.991l.051,2.012a51.006,51.006,0,0,1,1.453,11.754,62.883,62.883,0,0,0,1.825,13.848c1.337,6.154,2.248,10.341-2.344,12.558l12.476,5.542c2.712-3.668-1.5-18.164-2.91-23-.178-.611-.321-1.1-.414-1.442-1.872-6.863-1-12.895-.152-18.73,1.353-9.318,2.629-18.118-7.442-29.234a.43.43,0,0,1-.08-.134C102,66.7,93.64,45.529,74.261,45.067,54.517,44.6,47.649,66.356,47.582,66.574a.432.432,0,0,1-.08.152c-12.768,15.252-10.918,27.815-8.957,41.11.2,1.361.4,2.732.593,4.116.218,1.613-.809,3.895-2.11,6.785-2.83,6.281-6.7,14.869-.187,22.485m-.067.844a1.158,1.158,0,0,1-.241-.022.426.426,0,0,1-.234-.138c-7.017-8.059-2.992-16.995-.053-23.519,1.194-2.656,2.228-4.949,2.041-6.319s-.386-2.737-.59-4.1c-1.985-13.476-3.861-26.2,9.091-41.723.495-1.5,7.587-22.035,26.845-22.035.214,0,.428,0,.646.009,19.363.457,28,20.887,28.577,22.313,10.285,11.388,8.98,20.366,7.6,29.874-.833,5.749-1.693,11.694.131,18.383.091.339.234.824.41,1.428,5.332,18.329,3.988,22.5,2.518,24.054a.428.428,0,0,1-.486.1l-13.672-6.072a.426.426,0,0,1,.025-.791c4.724-1.756,4.218-5.125,2.73-11.968a63.579,63.579,0,0,1-1.845-14.029,50.289,50.289,0,0,0-1.437-11.6l-.013-.089L98.769,93.8c-.793-6.633-4.3-20.348-4.871-22.538-1.168-.071-5.488-.227-8.527,1.078-5.493,2.362-10.326-1.277-11.555-2.328-1.23,1.052-6.063,4.693-11.555,2.328a14.294,14.294,0,0,0-7.534-.624c-.646,1.947-5.065,15.41-5.867,22.124l-.241,2.041a64.731,64.731,0,0,0-.758,12.754,76.974,76.974,0,0,1-1.174,13.08c-1.047,7-1.872,12.527,1.885,13.819a.428.428,0,0,1,.29.4c.007.35-.234.706-.78,1.152-2.045,1.682-9.318,4.987-11.31,4.987" transform="translate(39.795 54.293)" fill="#263238" fill-rule="evenodd"/>
  </g>
  <g id="Group_495" data-name="Group 495" transform="translate(1.78 83.426)">
    <path id="Path_655" data-name="Path 655" d="M94.53,62.523c1.62-.31,1.217-3.7-1.843-4a204.753,204.753,0,0,0-51.436-.263c-2.848.992-3.284,3.3-1.477,4.26a2.6,2.6,0,0,0,.216,4.817,397.088,397.088,0,0,1,55.311.307c1.3.261,2.941-4.323-.771-5.125" transform="translate(45.197 -13.701)" fill="#263238" fill-rule="evenodd"/>
    <path id="Path_656" data-name="Path 656" d="M64.669,66.264c9.552,0,19.5.374,30.992,1.13l.074.009a2.3,2.3,0,0,0-1.007-4,.575.575,0,0,1,.016-1.125c.477-.089.472-.717.468-.842a2.282,2.282,0,0,0-2.259-2.021,204.149,204.149,0,0,0-51.249-.27c-1.482.533-2.063,1.375-2.112,1.994a1.251,1.251,0,0,0,.773,1.2.575.575,0,0,1-.027,1.025,1.89,1.89,0,0,0-1.174,2.059,1.955,1.955,0,0,0,1.192,1.662c8.28-.541,16.155-.816,24.314-.816M95.744,68.55a1.172,1.172,0,0,1-.192-.013,396.909,396.909,0,0,0-55.2-.307.544.544,0,0,1-.143-.007,3.018,3.018,0,0,1-2.184-2.658A2.986,2.986,0,0,1,39.089,62.8a2.246,2.246,0,0,1-.644-1.751c.1-1.277,1.2-2.4,2.937-3.008a.558.558,0,0,1,.123-.029,205.447,205.447,0,0,1,51.572.263,3.437,3.437,0,0,1,3.282,3.111,2.184,2.184,0,0,1-.312,1.277,3.222,3.222,0,0,1,1.571,3.672c-.234,1.125-.958,2.219-1.874,2.219" transform="translate(44.876 -14.017)" fill="#263238" fill-rule="evenodd"/>
    <path id="Path_657" data-name="Path 657" d="M43.883,86.68S52.769,92.941,60.06,95.2c0,0-5.987,6.386-6.379,13.06-6.214-4.416-11.921-7.883-9.8-21.578" transform="translate(51.562 23.035)" fill="#fff" fill-rule="evenodd"/>
    <path id="Path_658" data-name="Path 658" d="M44.441,87.659c-1.729,12.389,3.273,15.925,9.047,20.012l.062.045c.646-5.464,4.628-10.5,5.985-12.075C53.463,93.6,46.46,89.025,44.441,87.659m9.47,21.266a.432.432,0,0,1-.247-.08l-.671-.475c-5.858-4.144-11.391-8.057-9.3-21.52a.428.428,0,0,1,.671-.283c.089.06,8.917,6.248,16.056,8.458a.428.428,0,0,1,.187.7c-.058.062-5.887,6.355-6.266,12.79a.428.428,0,0,1-.43.406" transform="translate(51.33 22.8)" fill="#263238" fill-rule="evenodd"/>
    <path id="Path_659" data-name="Path 659" d="M67.036,86.68S58.147,92.941,50.859,95.2c0,0,5.987,6.386,6.379,13.06,6.212-4.416,11.921-7.883,9.8-21.578" transform="translate(60.685 23.035)" fill="#fff" fill-rule="evenodd"/>
    <path id="Path_660" data-name="Path 660" d="M51.854,95.642c1.357,1.578,5.339,6.611,5.985,12.075l.06-.045c5.776-4.087,10.776-7.623,9.047-20.009-2.019,1.364-9.02,5.938-15.092,7.979m5.622,13.285a.43.43,0,0,1-.428-.4c-.379-6.44-6.208-12.73-6.266-12.794a.428.428,0,0,1,.185-.7c7.141-2.21,15.97-8.4,16.059-8.461a.428.428,0,0,1,.671.285c2.088,13.463-3.445,17.376-9.3,21.52l-.671.475a.428.428,0,0,1-.25.08" transform="translate(60.448 22.798)" fill="#263238" fill-rule="evenodd"/>
    <path id="Path_661" data-name="Path 661" d="M48.916,93.482v91.833h5.9" transform="translate(58.299 31.389)" fill="#fff" fill-rule="evenodd"/>
    <path id="Path_662" data-name="Path 662" d="M55.129,186.207h-5.9a.575.575,0,0,1-.575-.575V93.8a.575.575,0,1,1,1.15,0V185.06h5.321a.575.575,0,1,1,0,1.148" transform="translate(57.982 31.072)" fill="#263238" fill-rule="evenodd"/>
    <path id="Path_663" data-name="Path 663" d="M34.627,147.972,41.6,135.739,35.788,130.8l-7.881,13.837Z" transform="translate(32.495 77.225)" fill="#fff" fill-rule="evenodd"/>
    <path id="Path_664" data-name="Path 664" d="M28.743,144.695l5.949,2.95,6.6-11.573L36.143,131.7l-7.4,12.995Zm6.121,3.944a.435.435,0,0,1-.192-.045l-6.718-3.333a.428.428,0,0,1-.183-.6l7.879-13.837a.43.43,0,0,1,.653-.116l5.816,4.938a.43.43,0,0,1,.1.537L35.236,148.42a.43.43,0,0,1-.372.216Z" transform="translate(32.259 76.988)" fill="#263238" fill-rule="evenodd"/>
    <path id="Path_665" data-name="Path 665" d="M30.482,136.19a.847.847,0,1,1-.847.847.847.847,0,0,1,.847-.847" transform="translate(34.618 83.843)" fill="#263238" fill-rule="evenodd"/>
    <path id="Path_666" data-name="Path 666" d="M25,143.872H129.022v-4.193H25Z" transform="translate(28.925 88.129)" fill="#fff" fill-rule="evenodd"/>
    <path id="Path_667" data-name="Path 667" d="M25.667,143.68H128.827v-3.338H25.667Zm103.589.858H25.237a.43.43,0,0,1-.43-.43v-4.193a.43.43,0,0,1,.43-.428H129.259a.428.428,0,0,1,.428.428v4.193a.43.43,0,0,1-.428.43Z" transform="translate(28.688 87.893)" fill="#263238" fill-rule="evenodd"/>
    <path id="Path_668" data-name="Path 668" d="M38.164,143.872h90.67v-4.193H38.164Z" transform="translate(45.093 88.129)" fill="#fff" fill-rule="evenodd"/>
    <path id="Path_669" data-name="Path 669" d="M38.83,143.68h89.81v-3.338H38.83Zm90.24.858H38.4a.43.43,0,0,1-.428-.43v-4.193a.428.428,0,0,1,.428-.428h90.67a.428.428,0,0,1,.428.428v4.193a.43.43,0,0,1-.428.43Z" transform="translate(44.857 87.893)" fill="#263238" fill-rule="evenodd"/>
    <path id="Path_670" data-name="Path 670" d="M127.46,172.8H40.716l9.35-66.151H136.81Z" transform="translate(48.227 47.557)" fill="#fff" fill-rule="evenodd"/>
    <path id="Path_671" data-name="Path 671" d="M41.445,172.606h85.877l9.231-65.3H50.677Zm86.252.858H40.953a.43.43,0,0,1-.426-.49l9.35-66.151a.43.43,0,0,1,.426-.37h86.744a.43.43,0,0,1,.426.49l-9.352,66.151A.43.43,0,0,1,127.7,173.464Z" transform="translate(47.991 47.32)" fill="#263238" fill-rule="evenodd"/>
    <path id="Path_672" data-name="Path 672" d="M129.07,172.8H42.326l9.352-66.151h86.744Z" transform="translate(50.205 47.557)" fill="#263238" fill-rule="evenodd"/>
    <path id="Path_673" data-name="Path 673" d="M43.056,172.606h85.875l9.231-65.3H52.288l-9.231,65.3Zm86.25.858H42.562a.43.43,0,0,1-.423-.49l9.35-66.151a.43.43,0,0,1,.423-.37h86.746a.43.43,0,0,1,.423.49l-9.35,66.151a.43.43,0,0,1-.423.37Z" transform="translate(49.969 47.32)" fill="#263238" fill-rule="evenodd"/>
    <path id="Path_674" data-name="Path 674" d="M66.478,135.118a.8.8,0,0,0,.773.6l12.683-.123a.8.8,0,0,0,.764-.978l-1.152-4.751a.789.789,0,0,0-.771-.608l-12.683.118a.789.789,0,0,0-.758.98l1.143,4.759Zm15.19-12.583,8.7,42.387H67.98l-8.7-42.387H81.668Z" transform="translate(71.032 67.072)" fill="#fff" fill-rule="evenodd"/>
    <path id="Path_675" data-name="Path 675" d="M67.132,135.25a.369.369,0,0,0,.357.276l12.679-.12a.368.368,0,0,0,.359-.374l-.009-.076-1.15-4.751a.359.359,0,0,0-.352-.281l-12.683.12a.361.361,0,0,0-.352.365l.011.082,1.141,4.757Zm.361,1.132a1.228,1.228,0,0,1-1.194-.922v-.007l-1.143-4.759a1.219,1.219,0,0,1,1.168-1.506l12.685-.12h0a1.213,1.213,0,0,1,1.19.94l1.15,4.748a1.227,1.227,0,0,1-1.174,1.508l-12.685.118Zm1.076,28.347H90.078L81.555,123.2H60.046l8.523,41.529Zm22.035.858H68.219a.43.43,0,0,1-.423-.343l-8.7-42.385a.428.428,0,0,1,.421-.517H81.9a.436.436,0,0,1,.423.343l8.7,42.387a.428.428,0,0,1-.423.512Z" transform="translate(70.794 66.835)" fill="#263238" fill-rule="evenodd"/>
    <path id="Path_676" data-name="Path 676" d="M183.278,50.328a97.718,97.718,0,0,1-6.5,21.906H178.1v.858H176.4a97.5,97.5,0,0,1-4.679,9.243c.8,3.886,1.368,6.284,1.368,6.284a42.393,42.393,0,0,0-3.476-2.785,102.828,102.828,0,0,1-15.858,19.332,316.521,316.521,0,0,0,7.3,32.519H178.1v.858H161.29q2.063,7.563,4.381,15.052a130.7,130.7,0,0,0-8.236-15.052H143.714c2.157,16.351,13.49,49.3,18.962,64.591H178.1v.858H162.984q1.3,3.649,2.652,7.282s-8.144-6.061-13.057-6.059a4.648,4.648,0,0,0-1.248.156c-4.619,1.306,16.642,46.556,16.642,46.556l1.21,4.59,13.164-1.339S205.609,214.514,204.6,201.4c-.388-5.045-2.215-6.6-4.32-6.6-3.365,0-7.436,3.971-7.436,3.971s12.647-63.615,8.416-79.353c-1.337-4.969-3.013-6.669-4.679-6.669-3.605,0-7.173,7.981-7.173,7.981s11.68-50.491,6.123-65.576c-.675-1.836-1.337-2.643-1.976-2.643-4.619,0-8.131,41.991-8.131,41.991s.147-23.782-2.15-44.179m-36.6,78.2a3.282,3.282,0,0,0-2.1.764c-1.25,1-1.466,4.04-.965,8.387h13.258c-3.34-4.958-7.083-9.151-10.19-9.151" transform="translate(174.292 -21.613)" fill="#c5ced2" fill-rule="evenodd"/>
    <path id="Path_677" data-name="Path 677" d="M167.208,37.441a3.734,3.734,0,0,0-.86.1c-9.283,2.2-5.66,31.429-2.25,50.516h7a97.731,97.731,0,0,0,6.5-21.9c-.519-4.61-1.163-9.047-1.961-13L162.895,66.588,162.271,66l13.158-13.862c-1.845-8.63-4.474-14.7-8.222-14.7m3.521,51.478h-6.475c.642,3.547,1.27,6.711,1.794,9.243a97.506,97.506,0,0,0,4.679-9.243m-17.4,8.124a5.234,5.234,0,0,0-3.806,1.455v20.339c-.508.506-1.016,1-1.537,1.5l.1.655a102.821,102.821,0,0,0,15.858-19.334c-2.9-2.1-7.108-4.612-10.617-4.612" transform="translate(179.969 -37.441)" fill="#a6bdcc" fill-rule="evenodd"/>
    <path id="Path_678" data-name="Path 678" d="M150.111,64.843c-1.254,1.226-2.155,3.316-2.473,6.6a67.045,67.045,0,0,0,.934,15.243c.521-.5,1.029-.994,1.537-1.5V64.843" transform="translate(179.376 -3.786)" fill="#6c9cc0" fill-rule="evenodd"/>
    <path id="Path_679" data-name="Path 679" d="M177.956,210.859H162.537l.305.858h15.114v-.858m0-65.449H160.917l.234,2.228h16.805v-2.228m-21.228,0H143.47c.031.731.067,1.471.1,2.228H157.3c-.187-.746-.379-1.493-.568-2.228m21.228-65.447h-8.322l.156.856h8.169V79.96m3.008-35.923L167.809,57.9l.624.593L181.178,45.06q-.1-.512-.212-1.023" transform="translate(174.431 -29.34)" fill="#36474f" fill-rule="evenodd"/>
    <path id="Path_680" data-name="Path 680" d="M168.065,248.34a.43.43,0,0,1-.377-.218c-.729-1.292-17.8-31.754-14.443-37.8a2.928,2.928,0,0,1,2.458-1.689c3.033-.169,7.155,4.236,9.53,7.117-4.811-12.188-20.874-53.8-17.884-58.564a1.811,1.811,0,0,1,1.7-.974c3.579.234,9.557,11.876,11.916,16.774-.245-5.243-.847-19.247-1.02-33.41-.111-8.969-.45-36.26,3.119-38.811a1.221,1.221,0,0,1,1.212-.152c2.513,1,4.456,6.513,5.784,16.4-.156-5.526-.292-11.589-.377-17.665-.573-41.641,1.939-43.354,2.765-43.918a1.021,1.021,0,0,1,1.014-.089c.974.432,3.939,1.749,5.1,51.2.457,19.535.448,39.061.423,46.115,2.322-6.994,7.859-22.467,11.384-22.467l.111,0c1.185.111,1.907,1.649,2.273,4.829,1.506,13.064-7.866,42.372-12.569,56,3.63-6.983,9.309-16.562,12.946-15.963,1.586.258,2.549,2.193,2.941,5.914,1.038,9.916-2.607,24.243-5.851,34.515-1.393,4.412-2.83,8.472-4.062,11.772.617-.8,1.2-1.263,1.689-1.17.68.134.969.958.969,2.761,0,7.87-4.445,17.487-4.635,17.893a.43.43,0,0,1-.78-.363c.047-.1,4.557-9.851,4.557-17.529,0-1.7-.285-1.916-.3-1.927-.628.04-2.571,3.454-4.372,7.663-.261.628-.41.978-.417.994a.43.43,0,0,1-.791-.33c.138-.341.29-.7.448-1.078,2.491-6.05,14.457-36.231,12.685-53.109-.334-3.191-1.1-4.973-2.222-5.156-3.973-.646-12.449,15.88-15.372,22.3a.43.43,0,0,1-.791-.325q4.516-12.4,8.276-25.063c5.243-17.75,7.594-30.787,6.8-37.7-.414-3.587-1.19-4.042-1.5-4.073l-.062,0c-2.366,0-7.612,12.558-11.382,24.49a.428.428,0,0,1-.838-.134c0-.241.156-24.537-.414-48.842-1.032-44.143-3.552-49.979-4.59-50.438a.152.152,0,0,0-.178.016c-3.231,2.2-2.781,43.236-1.569,75.1.307,5.205.377,9.015.379,9.076a.428.428,0,0,1-.417.434.42.42,0,0,1-.443-.408c0-.082-.154-3.454-.35-8.79-.709-12.028-2.562-28.539-6.575-30.139a.37.37,0,0,0-.394.051c-4.289,3.064-2.636,54.2-1.635,73.64a.428.428,0,0,1-.82.2c-3.307-7.228-9.265-18.048-12.117-18.236-.236-.016-.577.027-.92.575-2.6,4.144,12.886,45.15,19.073,60.6a.43.43,0,0,1-.749.408c-1.865-2.609-7.413-9.341-10.651-9.162A2.111,2.111,0,0,0,154,210.732c-2.6,4.677,9.546,28.272,14.441,36.968a.428.428,0,0,1-.372.64" transform="translate(178.743 -15.583)" fill="#263238" fill-rule="evenodd"/>
    <path id="Path_681" data-name="Path 681" d="M.991,145.707H371.016v-4.149H.991Z" transform="translate(-0.563 90.437)" fill="#263238" fill-rule="evenodd"/>
    <path id="Path_682" data-name="Path 682" d="M1.657,145.516H370.824v-3.293H1.657Zm369.6.858H1.227a.43.43,0,0,1-.428-.43v-4.151a.428.428,0,0,1,.428-.428H371.252a.428.428,0,0,1,.43.428v4.151A.43.43,0,0,1,371.252,146.374Z" transform="translate(-0.799 90.199)" fill="#263238" fill-rule="evenodd"/>
    <path id="Path_683" data-name="Path 683" d="M94.05,143.872H198.074v-4.193H94.05Z" transform="translate(113.733 88.129)" fill="#fff" fill-rule="evenodd"/>
    <path id="Path_684" data-name="Path 684" d="M94.716,143.68H197.88v-3.338H94.716Zm103.592.858H94.288a.43.43,0,0,1-.43-.43v-4.193a.428.428,0,0,1,.43-.428h104.02a.428.428,0,0,1,.43.428v4.193a.43.43,0,0,1-.43.43Z" transform="translate(113.497 87.893)" fill="#263238" fill-rule="evenodd"/>
    <path id="Path_685" data-name="Path 685" d="M107.215,143.872h90.668v-4.193H107.215Z" transform="translate(129.902 88.129)" fill="#fff" fill-rule="evenodd"/>
    <path id="Path_686" data-name="Path 686" d="M107.882,143.68h89.81v-3.338h-89.81v3.338Zm90.238.858H107.452a.43.43,0,0,1-.43-.43v-4.193a.43.43,0,0,1,.43-.428H198.12a.428.428,0,0,1,.43.428v4.193a.43.43,0,0,1-.43.43Z" transform="translate(129.665 87.893)" fill="#263238" fill-rule="evenodd"/>
    <path id="Path_687" data-name="Path 687" d="M196.51,172.8H109.766l9.352-66.151h86.744Z" transform="translate(133.035 47.557)" fill="#fff" fill-rule="evenodd"/>
    <path id="Path_688" data-name="Path 688" d="M110.5,172.606h85.875l9.231-65.3H119.728l-9.231,65.3Zm86.25.858H110a.43.43,0,0,1-.423-.49l9.35-66.151a.43.43,0,0,1,.423-.37H206.1a.43.43,0,0,1,.423.49l-9.35,66.151a.43.43,0,0,1-.423.37Z" transform="translate(132.8 47.32)" fill="#263238" fill-rule="evenodd"/>
    <path id="Path_689" data-name="Path 689" d="M198.121,172.8H111.377l9.352-66.151h86.744Z" transform="translate(135.014 47.557)" fill="#263238" fill-rule="evenodd"/>
    <path id="Path_690" data-name="Path 690" d="M112.107,172.606h85.875l9.231-65.3H121.339l-9.231,65.3Zm86.25.858H111.613a.43.43,0,0,1-.423-.49l9.35-66.151a.43.43,0,0,1,.423-.37h86.746a.43.43,0,0,1,.423.49l-9.35,66.151a.43.43,0,0,1-.423.37Z" transform="translate(134.778 47.32)" fill="#263238" fill-rule="evenodd"/>
    <path id="Path_691" data-name="Path 691" d="M135.53,135.118a.793.793,0,0,0,.773.6l12.683-.123a.789.789,0,0,0,.755-.978l-1.143-4.751a.8.8,0,0,0-.773-.608l-12.683.118a.8.8,0,0,0-.764.98l1.152,4.759Zm15.181-12.583,8.708,42.387H137.032l-8.7-42.387h22.378Z" transform="translate(155.84 67.072)" fill="#fff" fill-rule="evenodd"/>
    <path id="Path_692" data-name="Path 692" d="M136.183,135.252a.359.359,0,0,0,.35.274h0l12.683-.12a.361.361,0,0,0,.352-.365l-.009-.082-1.143-4.753a.368.368,0,0,0-.357-.281l-12.679.12a.365.365,0,0,0-.359.374l.009.078Zm.35,1.13a1.214,1.214,0,0,1-1.183-.925v0L134.2,130.7a1.234,1.234,0,0,1,.312-1.134,1.221,1.221,0,0,1,.862-.374l12.687-.12a1.225,1.225,0,0,1,1.192.936l1.143,4.753a1.221,1.221,0,0,1-1.168,1.506l-12.685.12Zm1.087,28.347h21.509L150.6,123.2h-21.5l8.525,41.529Zm22.035.858H137.268a.43.43,0,0,1-.421-.343l-8.7-42.385a.428.428,0,0,1,.419-.517h22.378a.432.432,0,0,1,.421.343l8.706,42.387a.428.428,0,0,1-.419.512Z" transform="translate(155.603 66.835)" fill="#263238" fill-rule="evenodd"/>
  </g>
</svg>
