<svg xmlns="http://www.w3.org/2000/svg" width="23" height="30.831" viewBox="0 0 23 30.831">
  <path id="attach_file_add_FILL0_wght400_GRAD0_opsz48" d="M248.2-850.169a8.031,8.031,0,0,1-5.8-2.331A7.66,7.66,0,0,1,240-858.224v-16.034a5.512,5.512,0,0,1,1.7-4.056A5.584,5.584,0,0,1,245.78-880a5.58,5.58,0,0,1,4.1,1.678,5.579,5.579,0,0,1,1.678,4.1v12.454h-1.492v-12.492a4.09,4.09,0,0,0-1.241-3.018,4.148,4.148,0,0,0-3.039-1.233,4.174,4.174,0,0,0-3.047,1.233,4.077,4.077,0,0,0-1.249,3.018v16.108a6.124,6.124,0,0,0,1.972,4.605,6.618,6.618,0,0,0,4.74,1.883,6.636,6.636,0,0,0,2.667-.541,6.968,6.968,0,0,0,2.18-1.473v1.939a8.611,8.611,0,0,1-2.256,1.156A8.029,8.029,0,0,1,248.2-850.169Zm7.085-1.864v-4.475h-4.475v-2.237h4.475v-4.475h2.237v4.475H262v2.237h-4.475v4.475Zm-7.085-5.593v1.492a3.1,3.1,0,0,1-2.386-1.063,3.61,3.61,0,0,1-.969-2.517v-14.617h1.492V-859.6a1.983,1.983,0,0,0,.536,1.4A1.739,1.739,0,0,0,248.2-857.627Zm6.712-8.837v-7.868h1.492v7.868Z" transform="translate(-239.5 880.5)" fill="#fff" stroke="#fff" stroke-width="1"/>
</svg>
