<svg xmlns="http://www.w3.org/2000/svg" width="100" height="86" viewBox="0 0 100 86">
  <path id="barcode-scan" d="M47.667,85.7H56v51.6H47.667V85.7m12.489,0h4.178v51.6H60.156V85.7m8.356,0H81v51.6H68.511V85.7m16.667,0h4.178v51.6H85.178V85.7m12.489,0H106v51.6H97.667V85.7m12.489,0h4.178v51.6h-4.178V85.7M39.333,77.1V94.3H31V77.1a8.473,8.473,0,0,1,8.333-8.6H56v8.6H39.333m83.333-8.6A8.473,8.473,0,0,1,131,77.1V94.3h-8.333V77.1H106V68.5h16.667M39.333,128.7v17.2H56v8.6H39.333A8.473,8.473,0,0,1,31,145.9V128.7h8.333m83.333,17.2V128.7H131v17.2a8.473,8.473,0,0,1-8.333,8.6H106v-8.6Z" transform="translate(-31 -68.5)" opacity="0.5"/>
</svg>
