<svg id="Component_9_1" data-name="Component 9 – 1" xmlns="http://www.w3.org/2000/svg" width="22" height="28.205" viewBox="0 0 22 28.205">
  <g id="Group_504" data-name="Group 504">
    <g id="Group_503" data-name="Group 503">
      <g id="Group_502" data-name="Group 502">
        <path id="Path_698" data-name="Path 698" d="M94.885,42.708,91.5,46.093l-3.385-3.385-2.256,2.256,3.385,3.385-3.385,3.385,2.256,2.256L91.5,50.606l3.385,3.385,2.256-2.256-3.385-3.385,3.385-3.385ZM97,32.548,95.449,31h-7.9L86,32.548H80.5v3.1h22v-3.1ZM82.054,56.1a3.13,3.13,0,0,0,3.1,3.1H97.705a3.13,3.13,0,0,0,3.1-3.1v-18.9H82.054Zm3.24-15.651H97.843V56.1H85.295Z" transform="translate(-80.5 -31)" fill="#fff" fill-rule="evenodd"/>
      </g>
    </g>
  </g>
</svg>
