<svg id="edit" xmlns="http://www.w3.org/2000/svg" width="24" height="25.257" viewBox="0 0 24 25.257">
  <g id="Group_497" data-name="Group 497">
    <g id="Group_496" data-name="Group 496">
      <path id="Path_694" data-name="Path 694" d="M66.2,52.6v3.66h-24V52.6ZM55.463,34.789l4.546,4.546L49.149,50.2H44.6V45.649C44.6,45.773,55.463,34.789,55.463,34.789Zm0,3.407L47,46.66v1.134h1.134L56.6,39.335ZM59.757,31a1.358,1.358,0,0,1,.887.382l2.778,2.778a1.08,1.08,0,0,1,0,1.645l-2.15,2.144-4.546-4.423,2.144-2.144A1.657,1.657,0,0,1,59.757,31Z" transform="translate(-42.2 -31)" fill="#159966" fill-rule="evenodd"/>
    </g>
  </g>
</svg>
