<svg id="instagram" xmlns="http://www.w3.org/2000/svg" width="18.112" height="18.112" viewBox="0 0 18.112 18.112">
  <path id="instagram-2" data-name="instagram" d="M36.253,31H43.86a5.256,5.256,0,0,1,5.253,5.253V43.86a5.251,5.251,0,0,1-5.253,5.253H36.253A5.256,5.256,0,0,1,31,43.86V36.253A5.251,5.251,0,0,1,36.253,31m-.181,1.811a3.262,3.262,0,0,0-3.26,3.26h0v7.969a3.257,3.257,0,0,0,3.26,3.26h7.969a3.262,3.262,0,0,0,3.26-3.26h0V36.071a3.257,3.257,0,0,0-3.26-3.26H36.071m8.738,1.36A1.131,1.131,0,1,1,43.679,35.3a1.132,1.132,0,0,1,1.131-1.131m-4.753,1.356a4.528,4.528,0,1,1-4.528,4.528,4.53,4.53,0,0,1,4.528-4.528m0,1.811a2.717,2.717,0,1,0,2.717,2.717A2.716,2.716,0,0,0,40.056,37.339Z" transform="translate(-31 -31)" fill="#00724c"/>
</svg>
