<svg id="language" xmlns="http://www.w3.org/2000/svg" width="24" height="21.832" viewBox="0 0 24 21.832">
  <g id="language-2" data-name="language">
    <g id="Group_551" data-name="Group 551">
      <g id="Group_550" data-name="Group 550">
        <path id="Path_714" data-name="Path 714" d="M964.026,101.631l-2.774-2.774h0a20.207,20.207,0,0,0,4.1-7.116h3.259V89.571h-7.718V87.4h-2.171v2.171H951v2.171h12.3a17.443,17.443,0,0,1-3.5,5.91,24.689,24.689,0,0,1-2.534-3.616H955.1a22.6,22.6,0,0,0,3.259,5.067l-5.547,5.547,1.568,1.568,5.425-5.425,3.376,3.376Zm6.15-5.547H968l-4.944,13.148h2.171l1.205-3.254h5.185l1.205,3.254H975C975.121,109.227,970.176,96.084,970.176,96.084Zm-2.9,7.6,1.808-4.7,1.808,4.7Z" transform="translate(-951 -87.4)" fill="#fff" fill-rule="evenodd"/>
      </g>
    </g>
  </g>
</svg>
