<svg xmlns="http://www.w3.org/2000/svg" width="67.16" height="86.103" viewBox="0 0 67.16 86.103">
  <g id="remove" transform="translate(-80.5 -31)" opacity="0.5">
    <g id="Group_522" data-name="Group 522" transform="translate(80.5 31)">
      <g id="Group_521" data-name="Group 521">
        <g id="Group_520" data-name="Group 520">
          <g id="Group_519" data-name="Group 519">
            <path id="Path_705" data-name="Path 705" d="M124.412,66.742,114.08,77.074,103.748,66.742,96.859,73.63l10.332,10.332L96.859,94.295l6.888,6.888L114.08,90.851l10.332,10.332,6.888-6.888L120.968,83.963,131.3,73.63Zm6.467-31.016L126.134,31H102.026L97.3,35.726H80.5V45.2h67.16V35.726ZM85.245,107.631a9.555,9.555,0,0,0,9.471,9.471h38.306a9.555,9.555,0,0,0,9.471-9.471V49.943H85.245Zm9.892-47.777h38.306v47.777H95.137Z" transform="translate(-80.5 -31)" fill-rule="evenodd"/>
          </g>
        </g>
      </g>
    </g>
  </g>
</svg>
