<svg id="Group_2_Copy" data-name="Group 2 Copy" xmlns="http://www.w3.org/2000/svg" width="76.955" height="71.085" viewBox="0 0 76.955 71.085">
 
  <path id="policy_FILL0_wght400_GRAD0_opsz48" d="M187.517-838.235a7.426,7.426,0,0,0,5.4-2.191,7.283,7.283,0,0,0,2.234-5.414A7.394,7.394,0,0,0,192.9-851.3a7.411,7.411,0,0,0-5.414-2.234,7.353,7.353,0,0,0-5.4,2.234,7.424,7.424,0,0,0-2.234,5.457,7.254,7.254,0,0,0,2.252,5.414A7.485,7.485,0,0,0,187.517-838.235Zm-.018,21.656a32.835,32.835,0,0,0,8.25-4.34,26.669,26.669,0,0,0,6.789-6.746l-7.906-7.562a18.408,18.408,0,0,1-3.451,1.547,11.652,11.652,0,0,1-3.681.6,12.419,12.419,0,0,1-9.066-3.7,12.255,12.255,0,0,1-3.738-9.066,12.4,12.4,0,0,1,3.738-9.109,12.346,12.346,0,0,1,9.066-3.738,12.346,12.346,0,0,1,9.066,3.738A12.447,12.447,0,0,1,200.3-845.8a13.084,13.084,0,0,1-.516,3.609,9.719,9.719,0,0,1-1.633,3.266l7.219,6.875a35.9,35.9,0,0,0,3.266-8.127,34.43,34.43,0,0,0,1.2-9.061v-17.057L187.5-874.414l-22.344,8.123v17.057a35.062,35.062,0,0,0,6.23,20.324A31,31,0,0,0,187.5-816.579Zm0,5.328q-12.031-3.008-19.765-13.965A40.759,40.759,0,0,1,160-849.235v-20.453L187.5-880,215-869.688v20.453a40.759,40.759,0,0,1-7.734,24.02Q199.531-814.258,187.5-811.25ZM187.5-845.539Z" transform="translate(-160 882.336)" fill="#00724c"/>
</svg>
