<svg xmlns="http://www.w3.org/2000/svg" width="21.074" height="16.695" viewBox="0 0 21.074 16.695">
  <path id="twitter" d="M52.174,79.781a8.723,8.723,0,0,1-2.506.731,4.373,4.373,0,0,0,1.878-2.4,8.71,8.71,0,0,1-2.712,1.045A4.341,4.341,0,0,0,45.705,77.8a4.3,4.3,0,0,0-4.277,4.277,2.9,2.9,0,0,0,.1.937,12.06,12.06,0,0,1-8.764-4.487,3.871,3.871,0,0,0-.628,2.192,4.211,4.211,0,0,0,1.878,3.546,4.347,4.347,0,0,1-1.981-.52h0a4.168,4.168,0,0,0,3.443,4.174,3.963,3.963,0,0,1-1.148.1,2.319,2.319,0,0,1-.834-.1,4.17,4.17,0,0,0,3.968,2.923,8.69,8.69,0,0,1-5.321,1.878,3.6,3.6,0,0,1-1.045-.1,11.824,11.824,0,0,0,6.572,1.878A12.187,12.187,0,0,0,49.879,82.287v-.52A5.363,5.363,0,0,0,52.174,79.781Z" transform="translate(-31.1 -77.8)" fill="#00724c"/>
</svg>
