<svg xmlns="http://www.w3.org/2000/svg" width="79" height="79" viewBox="0 0 79 79">
  <g id="_172620_upload_icon" data-name="172620_upload_icon" opacity="0.8">
    <rect id="Rectangle_11" data-name="Rectangle 11" width="79" height="79" fill="none"/>
    <path id="Path_696" data-name="Path 696" d="M50.228,52.319H64.676a12.548,12.548,0,1,0,0-25.1c-.032,0-.06,0-.092,0a19.276,19.276,0,0,0-37.212-9.072A9.54,9.54,0,0,0,11.079,24.9c0,.135.016.265.021.4a13.76,13.76,0,0,0,3.668,27.025H28" transform="translate(0.588 3.261)" fill="none" stroke="#bebebe" stroke-linecap="round" stroke-linejoin="round" stroke-width="2"/>
    <path id="Path_697" data-name="Path 697" d="M20,30.94,27.94,23l7.94,7.94" transform="translate(11.76 13.524)" fill="none" stroke="#bebebe" stroke-linecap="round" stroke-width="2"/>
    <line id="Line_5" data-name="Line 5" y1="31.231" transform="translate(39.7 37.053)" fill="none" stroke="#bebebe" stroke-linecap="round" stroke-width="2"/>
  </g>
</svg>
