<svg id="vison" xmlns="http://www.w3.org/2000/svg" width="68.313" height="46.355" viewBox="0 0 68.313 46.355">
  <g id="_2030" data-name="2030">
    <path id="Shape" d="M28.052,37c-.383.2-.67.3-1.052.508.191.407.383.712.574,1.118a10.262,10.262,0,0,0,1.052-.61c-.191-.3-.383-.712-.574-1.017" transform="translate(-5.042 -6.91)" fill="#fff" fill-rule="evenodd"/>
    <path id="Shape-2" data-name="Shape" d="M2.9,22.765.166,20.635s2.569-4.015,7.128-3.605c0,0,3.9.164,5.139,3.277,0,0,1.326,4.179-1.74,6.883a75.065,75.065,0,0,1-6.879,5.326l2.321-.983h6.879v3.359H0V31.7L7.21,25.96c1.492-1.229,2.652-3.687.829-5.162a2.007,2.007,0,0,0-1.823-.41A6.311,6.311,0,0,0,2.9,22.765" transform="translate(0 -3.175)" fill="#fff" fill-rule="evenodd"/>
    <path id="Shape-3" data-name="Shape" d="M44.9,20.182V17H56.679v2.856L52.262,24.18s3.681.408,4.581,3.835c.982,3.916-2.454,7.18-6.544,6.854a8.4,8.4,0,0,1-6.3-3.1L46.454,29.4s1.8,2.366,4.417,2.04c0,0,2.29,0,2.372-2.04.164-2.611-3.027-2.774-4.99-2.529l-.573-2.366,5.644-5.63-2.209,1.305Z" transform="translate(-8.217 -3.175)" fill="#fff" fill-rule="evenodd"/>
    <path id="Shape-4" data-name="Shape" d="M70.352,17A9.17,9.17,0,0,1,79.7,25.946a9.362,9.362,0,0,1-18.7,0A9.223,9.223,0,0,1,70.352,17m0,3.435a5.513,5.513,0,1,1-5.38,5.511,5.447,5.447,0,0,1,5.38-5.511" transform="translate(-11.392 -3.175)" fill="#fff" fill-rule="evenodd"/>
    <path id="Shape-5" data-name="Shape" d="M30.813,18.627l.813-.765c-.3-.287-.508-.574-.813-.861a6.329,6.329,0,0,0-.813.861l.813.765" transform="translate(-5.602 -3.175)" fill="#fff" fill-rule="evenodd"/>
    <path id="Shape-6" data-name="Shape" d="M30.813,14.627l.813-.745c-.3-.271-.518-.61-.813-.881a4.8,4.8,0,0,0-.813.881l.813.745" transform="translate(-5.602 -2.428)" fill="#fff" fill-rule="evenodd"/>
    <path id="Shape-7" data-name="Shape" d="M31.685,16.627c.342-.244.6-.407.942-.651-.257-.325-.428-.651-.685-.976a9.019,9.019,0,0,0-.942.732,3.625,3.625,0,0,0,.685.895" transform="translate(-5.789 -2.801)" fill="#fff" fill-rule="evenodd"/>
    <path id="Shape-8" data-name="Shape" d="M34.232,20.813c-.058-.2-.174-.407-.232-.61.174-.068.407-.136.581-.2.058.2.174.407.232.678a1.809,1.809,0,0,0-.581.136" transform="translate(-6.349 -3.735)" fill="#fff" fill-rule="evenodd"/>
    <path id="Shape-9" data-name="Shape" d="M33.339,21.813A2.256,2.256,0,0,0,33,21.3c.2-.074.339-.222.542-.3a2.3,2.3,0,0,1,.271.591c-.136.074-.339.148-.474.222" transform="translate(-6.163 -3.922)" fill="#fff" fill-rule="evenodd"/>
    <path id="Shape-10" data-name="Shape" d="M33.574,19.627c-.191-.3-.383-.712-.574-1.017.383-.2.67-.407,1.052-.61a11.32,11.32,0,0,0,.574,1.118,4.987,4.987,0,0,1-1.052.508" transform="translate(-6.163 -3.361)" fill="#fff" fill-rule="evenodd"/>
    <path id="Shape-11" data-name="Shape" d="M31.712,19.813c-.2-.174-.508-.29-.712-.465L31.915,19a4.308,4.308,0,0,0,.712.523,5.557,5.557,0,0,1-.915.29" transform="translate(-5.789 -3.548)" fill="#fff" fill-rule="evenodd"/>
    <path id="Shape-12" data-name="Shape" d="M28.942,17.627c.257-.257.428-.6.685-.856-.342-.257-.6-.514-.942-.77-.257.342-.428.685-.685,1.027a9.023,9.023,0,0,1,.942.6" transform="translate(-5.229 -2.988)" fill="#fff" fill-rule="evenodd"/>
    <path id="Shape-13" data-name="Shape" d="M30.813,38l.813.765c-.3.287-.508.574-.813.861A6.329,6.329,0,0,1,30,38.765,3.01,3.01,0,0,1,30.813,38" transform="translate(-5.602 -7.096)" fill="#fff" fill-rule="evenodd"/>
    <path id="Shape-14" data-name="Shape" d="M30.813,41l.813.745c-.3.271-.518.61-.813.881A4.8,4.8,0,0,1,30,41.745,8.122,8.122,0,0,1,30.813,41" transform="translate(-5.602 -7.657)" fill="#fff" fill-rule="evenodd"/>
    <path id="Shape-15" data-name="Shape" d="M31.685,39c.342.244.6.407.942.651-.257.325-.428.651-.685.976A9.018,9.018,0,0,1,31,39.895,6.229,6.229,0,0,1,31.685,39" transform="translate(-5.789 -7.283)" fill="#fff" fill-rule="evenodd"/>
    <path id="Shape-16" data-name="Shape" d="M28.942,39c.257.257.428.6.685.856-.342.257-.6.514-.942.77-.257-.342-.428-.685-.685-1.027a3.535,3.535,0,0,0,.942-.6" transform="translate(-5.229 -7.283)" fill="#fff" fill-rule="evenodd"/>
    <path id="Shape-17" data-name="Shape" d="M36.174,19.813a2.218,2.218,0,0,1,.639-.063A3.361,3.361,0,0,0,36.7,19c-.232.063-.465.063-.7.125a4.084,4.084,0,0,1,.174.688" transform="translate(-6.723 -3.548)" fill="#fff" fill-rule="evenodd"/>
    <path id="Shape-18" data-name="Shape" d="M38.257,17.627a6.653,6.653,0,0,1,1.37-.171A8.434,8.434,0,0,0,39.455,16,8.955,8.955,0,0,0,38,16.342c.086.342.171.856.257,1.284" transform="translate(-7.096 -2.988)" fill="#fff" fill-rule="evenodd"/>
    <path id="Shape-19" data-name="Shape" d="M38.217,19.813h1.41V19A15.22,15.22,0,0,0,38,19.058a1.733,1.733,0,0,1,.217.755" transform="translate(-7.096 -3.548)" fill="#fff" fill-rule="evenodd"/>
    <path id="Shape-20" data-name="Shape" d="M38,22.3c0-.434.063-.867.063-1.3a1.972,1.972,0,0,1,.751.217c-.063.434-.063.867-.125,1.41A7.206,7.206,0,0,0,38,22.3" transform="translate(-7.096 -3.922)" fill="#fff" fill-rule="evenodd"/>
    <path id="Shape-21" data-name="Shape" d="M36.074,21.678c0-.2-.074-.474-.074-.678a3.3,3.3,0,0,1,.813.068v.745a1.578,1.578,0,0,0-.739-.136" transform="translate(-6.723 -3.922)" fill="#fff" fill-rule="evenodd"/>
    <path id="Shape-22" data-name="Shape" d="M35.222,22.681c-.074-.227-.148-.378-.222-.6A2,2,0,0,1,35.665,22c.074.227.074.454.148.681a.793.793,0,0,0-.591,0" transform="translate(-6.536 -4.108)" fill="#fff" fill-rule="evenodd"/>
    <path id="Shape-23" data-name="Shape" d="M35.383,18.627c.383-.1.765-.191,1.244-.287A7.047,7.047,0,0,0,36.244,17c-.383.191-.861.287-1.244.478a7.978,7.978,0,0,1,.383,1.148" transform="translate(-6.536 -3.175)" fill="#fff" fill-rule="evenodd"/>
    <path id="Shape-24" data-name="Shape" d="M24.7,36c.058.25.058.438.116.688a2.726,2.726,0,0,1-.7.125c-.058-.25-.058-.5-.116-.751A2.424,2.424,0,0,0,24.7,36" transform="translate(-4.482 -6.723)" fill="#fff" fill-rule="evenodd"/>
    <path id="Shape-25" data-name="Shape" d="M24.739,34.136c0,.2.074.474.074.678A3.3,3.3,0,0,1,24,34.745V34c.222.068.518.068.739.136" transform="translate(-4.482 -6.349)" fill="#fff" fill-rule="evenodd"/>
    <path id="Shape-26" data-name="Shape" d="M23.37,38l.257,1.284a8.956,8.956,0,0,1-1.455.342c-.086-.514-.086-.942-.171-1.455A7.493,7.493,0,0,0,23.37,38" transform="translate(-4.108 -7.096)" fill="#fff" fill-rule="evenodd"/>
    <path id="Shape-27" data-name="Shape" d="M26.148,38a9.8,9.8,0,0,0,.478,1.175c-.383.181-.861.271-1.244.452-.1-.452-.287-.813-.383-1.265A5.618,5.618,0,0,0,26.148,38" transform="translate(-4.669 -7.096)" fill="#fff" fill-rule="evenodd"/>
    <path id="Shape-28" data-name="Shape" d="M29.867,36a8.051,8.051,0,0,0-.867.29l.651.523.976-.349A5.335,5.335,0,0,0,29.867,36" transform="translate(-5.416 -6.723)" fill="#fff" fill-rule="evenodd"/>
    <path id="Shape-29" data-name="Shape" d="M28.5,35c-.188.074-.313.148-.5.222a2.706,2.706,0,0,0,.313.591,3.529,3.529,0,0,0,.5-.3A3.175,3.175,0,0,0,28.5,35" transform="translate(-5.229 -6.536)" fill="#fff" fill-rule="evenodd"/>
    <path id="Shape-30" data-name="Shape" d="M26.542,35a1.6,1.6,0,0,1-.542.136c.054.2.163.474.217.678a2.328,2.328,0,0,0,.6-.271A4.024,4.024,0,0,1,26.542,35" transform="translate(-4.855 -6.536)" fill="#fff" fill-rule="evenodd"/>
    <path id="Shape-31" data-name="Shape" d="M26.591,34H26a2.251,2.251,0,0,0,.148.681c.222,0,.444-.076.665-.076-.074-.227-.148-.378-.222-.6" transform="translate(-4.855 -6.349)" fill="#fff" fill-rule="evenodd"/>
    <path id="Shape-32" data-name="Shape" d="M22.759,36a3.543,3.543,0,0,0,.054.755,3.835,3.835,0,0,1-.813.058V36h.759" transform="translate(-4.108 -6.723)" fill="#fff" fill-rule="evenodd"/>
    <path id="Shape-33" data-name="Shape" d="M40,25.017c.3.2.712.407,1.017.61.2-.407.407-.712.61-1.118A5.448,5.448,0,0,0,40.508,24,9.4,9.4,0,0,0,40,25.017" transform="translate(-7.47 -4.482)" fill="#fff" fill-rule="evenodd"/>
    <path id="Shape-34" data-name="Shape" d="M36,23.665c.227.074.378.074.6.148,0-.222.076-.444.076-.665-.227-.074-.454-.074-.68-.148v.665" transform="translate(-6.723 -4.295)" fill="#fff" fill-rule="evenodd"/>
    <path id="Shape-35" data-name="Shape" d="M38,24.563a6.49,6.49,0,0,0,.626.25c.063-.188.125-.438.188-.626-.25-.063-.438-.125-.688-.188-.063.188-.063.375-.125.563" transform="translate(-7.096 -4.482)" fill="#fff" fill-rule="evenodd"/>
    <path id="Shape-36" data-name="Shape" d="M43,24.109c.354.148.636.37.99.518l.636-1.109c-.354-.148-.707-.37-1.131-.518-.141.37-.354.739-.5,1.109" transform="translate(-8.03 -4.295)" fill="#fff" fill-rule="evenodd"/>
    <path id="Shape-37" data-name="Shape" d="M41,25.942c.325.257.569.428.895.685.244-.342.488-.6.732-.942-.325-.257-.651-.428-.976-.685-.244.342-.488.685-.651.942" transform="translate(-7.657 -4.669)" fill="#fff" fill-rule="evenodd"/>
    <path id="Shape-38" data-name="Shape" d="M40,23.175a6.048,6.048,0,0,1,1.148.452,5.039,5.039,0,0,0,.478-1.265c-.383-.09-.861-.271-1.339-.361-.1.452-.191.813-.287,1.175" transform="translate(-7.47 -4.108)" fill="#fff" fill-rule="evenodd"/>
    <path id="Shape-39" data-name="Shape" d="M21.627,30.61c-.2.3-.3.712-.508,1.017-.407-.2-.712-.3-1.118-.508.2-.407.407-.712.61-1.118a2.708,2.708,0,0,0,1.017.61" transform="translate(-3.735 -5.602)" fill="#fff" fill-rule="evenodd"/>
    <path id="Shape-40" data-name="Shape" d="M23.813,27.407a1.091,1.091,0,0,0-.37.407A2.82,2.82,0,0,1,23,27.407c.148-.116.3-.29.444-.407a1.842,1.842,0,0,0,.37.407" transform="translate(-4.295 -5.042)" fill="#fff" fill-rule="evenodd"/>
    <path id="Shape-41" data-name="Shape" d="M21.813,29.712a5.274,5.274,0,0,0-.313.915,2.318,2.318,0,0,1-.5-.712A6.086,6.086,0,0,1,21.438,29a1.393,1.393,0,0,0,.375.712" transform="translate(-3.922 -5.416)" fill="#fff" fill-rule="evenodd"/>
    <path id="Shape-42" data-name="Shape" d="M18.627,31.591c-.141.37-.354.665-.5,1.035A7.685,7.685,0,0,1,17,32.109L17.636,31c.354.222.636.37.99.591" transform="translate(-3.175 -5.789)" fill="#fff" fill-rule="evenodd"/>
    <path id="Shape-43" data-name="Shape" d="M20.627,33.452c-.09.361-.271.813-.361,1.175A6.656,6.656,0,0,1,19,34.265c.181-.452.271-.813.452-1.265.452.181.813.271,1.175.452" transform="translate(-3.548 -6.163)" fill="#fff" fill-rule="evenodd"/>
    <path id="Shape-44" data-name="Shape" d="M24.68,32.148c-.227-.074-.378-.074-.6-.148,0,.222-.076.444-.076.665.227.074.454.074.68.148a1,1,0,0,1,0-.665" transform="translate(-4.482 -5.976)" fill="#fff" fill-rule="evenodd"/>
    <path id="Shape-45" data-name="Shape" d="M22.813,33.174c-.25-.058-.5-.116-.688-.174-.063.232-.063.465-.125.7.25.058.5.058.813.116a2.177,2.177,0,0,1,0-.639" transform="translate(-4.108 -6.163)" fill="#fff" fill-rule="evenodd"/>
    <path id="Shape-46" data-name="Shape" d="M22.813,31.25c-.188-.063-.438-.188-.626-.25-.063.188-.125.438-.188.626.25.063.438.125.688.188a2.322,2.322,0,0,1,.125-.563" transform="translate(-4.108 -5.789)" fill="#fff" fill-rule="evenodd"/>
    <path id="Shape-47" data-name="Shape" d="M23.813,30.313c-.148-.125-.37-.188-.518-.313-.074.188-.222.313-.3.5.222.125.37.188.591.313a3.921,3.921,0,0,0,.222-.5" transform="translate(-4.295 -5.602)" fill="#fff" fill-rule="evenodd"/>
    <path id="Shape-48" data-name="Shape" d="M19.627,29.685c-.171.342-.428.6-.6.942A7.141,7.141,0,0,1,18,29.942,9.1,9.1,0,0,1,18.77,29a3.735,3.735,0,0,0,.856.685" transform="translate(-3.361 -5.416)" fill="#fff" fill-rule="evenodd"/>
    <path id="Shape-49" data-name="Shape" d="M40,30.61c.2.3.3.712.508,1.017.407-.2.712-.3,1.118-.508-.2-.407-.407-.712-.61-1.118-.407.3-.712.407-1.017.61" transform="translate(-7.47 -5.602)" fill="#fff" fill-rule="evenodd"/>
    <path id="Shape-50" data-name="Shape" d="M39,26.915a4.351,4.351,0,0,1,.438.712l.375-.915a4.3,4.3,0,0,1-.5-.712,5.274,5.274,0,0,1-.313.915" transform="translate(-7.283 -4.855)" fill="#fff" fill-rule="evenodd"/>
    <path id="Shape-51" data-name="Shape" d="M38,27.407a1.091,1.091,0,0,1,.37.407,2.82,2.82,0,0,0,.444-.407A2.82,2.82,0,0,1,38.37,27a1.842,1.842,0,0,1-.37.407" transform="translate(-7.096 -5.042)" fill="#fff" fill-rule="evenodd"/>
    <path id="Shape-52" data-name="Shape" d="M40,27.813c.287.271.478.542.765.813l.861-.813L40.765,27a5.969,5.969,0,0,1-.765.813" transform="translate(-7.47 -5.042)" fill="#fff" fill-rule="evenodd"/>
    <path id="Shape-53" data-name="Shape" d="M39,29.712a5.274,5.274,0,0,1,.313.915,2.318,2.318,0,0,0,.5-.712A6.086,6.086,0,0,0,39.375,29a2.112,2.112,0,0,1-.375.712" transform="translate(-7.283 -5.416)" fill="#fff" fill-rule="evenodd"/>
    <path id="Shape-54" data-name="Shape" d="M43,31.591c.141.37.354.665.5,1.035a7.685,7.685,0,0,0,1.131-.518L43.99,31a6.993,6.993,0,0,1-.99.591" transform="translate(-8.03 -5.789)" fill="#fff" fill-rule="evenodd"/>
    <path id="Shape-55" data-name="Shape" d="M37,25.542c.151.068.378.2.529.271a4.38,4.38,0,0,1,.227-.542c-.227-.068-.378-.2-.6-.271a1.919,1.919,0,0,1-.151.542" transform="translate(-6.91 -4.669)" fill="#fff" fill-rule="evenodd"/>
    <path id="Shape-56" data-name="Shape" d="M41,32.452c.09.361.271.723.361,1.175a6.656,6.656,0,0,0,1.265-.361c-.181-.452-.271-.813-.452-1.265A10.135,10.135,0,0,1,41,32.452" transform="translate(-7.657 -5.976)" fill="#fff" fill-rule="evenodd"/>
    <path id="Shape-57" data-name="Shape" d="M41,29.685a5.758,5.758,0,0,1,.6.942,7.141,7.141,0,0,0,1.027-.685c-.257-.342-.514-.6-.77-.942a3.352,3.352,0,0,1-.856.685" transform="translate(-7.657 -5.416)" fill="#fff" fill-rule="evenodd"/>
    <path id="Shape-58" data-name="Shape" d="M21.627,25.017c-.3.2-.712.407-1.017.61A11.089,11.089,0,0,1,20,24.508,5.448,5.448,0,0,1,21.118,24a3.18,3.18,0,0,1,.508,1.017" transform="translate(-3.735 -4.482)" fill="#fff" fill-rule="evenodd"/>
    <path id="Shape-59" data-name="Shape" d="M18.627,24.035a6.993,6.993,0,0,0-.99.591L17,23.518A5.355,5.355,0,0,1,18.131,23c.141.37.354.739.5,1.035" transform="translate(-3.175 -4.295)" fill="#fff" fill-rule="evenodd"/>
    <path id="Shape-60" data-name="Shape" d="M19.627,25.942c-.325.257-.569.428-.895.685-.244-.342-.488-.6-.732-.942A6.768,6.768,0,0,1,18.976,25a8.964,8.964,0,0,1,.651.942" transform="translate(-3.361 -4.669)" fill="#fff" fill-rule="evenodd"/>
    <path id="Shape-61" data-name="Shape" d="M21.627,27.813c-.287-.271-.478-.542-.765-.813L20,27.813l.861.813c.287-.271.478-.542.765-.813" transform="translate(-3.735 -5.042)" fill="#fff" fill-rule="evenodd"/>
    <path id="Shape-62" data-name="Shape" d="M21.813,26.915A5.274,5.274,0,0,1,21.5,26a2.318,2.318,0,0,0-.5.712,6.086,6.086,0,0,0,.438.915,4.526,4.526,0,0,0,.375-.712" transform="translate(-3.922 -4.855)" fill="#fff" fill-rule="evenodd"/>
    <path id="Shape-63" data-name="Shape" d="M20.627,23.175a6.048,6.048,0,0,0-1.148.452A5.039,5.039,0,0,1,19,22.361c.383-.09.861-.271,1.339-.361.1.361.191.813.287,1.175" transform="translate(-3.548 -4.108)" fill="#fff" fill-rule="evenodd"/>
    <path id="Shape-64" data-name="Shape" d="M36.125,36c-.063.25-.063.438-.125.688a3.14,3.14,0,0,0,.751.125,3.046,3.046,0,0,0,.063-.751A2.805,2.805,0,0,1,36.125,36" transform="translate(-6.723 -6.723)" fill="#fff" fill-rule="evenodd"/>
    <path id="Shape-65" data-name="Shape" d="M38,31.25c.068.188.068.375.136.563.2-.063.474-.125.678-.188-.068-.188-.136-.438-.2-.626a2.512,2.512,0,0,0-.61.25" transform="translate(-7.096 -5.789)" fill="#fff" fill-rule="evenodd"/>
    <path id="Shape-66" data-name="Shape" d="M37,32.222v.591c.227-.074.454-.074.68-.148,0-.222-.076-.444-.076-.665-.151.148-.378.148-.6.222" transform="translate(-6.91 -5.976)" fill="#fff" fill-rule="evenodd"/>
    <path id="Shape-67" data-name="Shape" d="M38,33.325c0,.434.063.867.063,1.3.25-.108.5-.108.751-.217-.063-.434-.063-.867-.125-1.41-.25.108-.438.217-.688.325" transform="translate(-7.096 -6.163)" fill="#fff" fill-rule="evenodd"/>
    <path id="Shape-68" data-name="Shape" d="M36.074,34.136a2.122,2.122,0,0,1-.074.678,3.3,3.3,0,0,0,.813-.068V34a2.361,2.361,0,0,1-.739.136" transform="translate(-6.723 -6.349)" fill="#fff" fill-rule="evenodd"/>
    <path id="Shape-69" data-name="Shape" d="M38.257,38,38,39.284c.514.086.942.257,1.455.342.086-.514.086-.942.171-1.455-.514-.086-.942-.086-1.37-.171" transform="translate(-7.096 -7.096)" fill="#fff" fill-rule="evenodd"/>
    <path id="Shape-70" data-name="Shape" d="M37,30.313c.074.188.148.313.222.5a2.706,2.706,0,0,0,.591-.313c-.074-.188-.222-.313-.3-.5a2.283,2.283,0,0,1-.518.313" transform="translate(-6.91 -5.602)" fill="#fff" fill-rule="evenodd"/>
    <path id="Shape-71" data-name="Shape" d="M35.383,38c-.1.361-.287.723-.383,1.175.383.181.861.271,1.244.452.1-.452.287-.813.383-1.265A9.278,9.278,0,0,0,35.383,38" transform="translate(-6.536 -7.096)" fill="#fff" fill-rule="evenodd"/>
    <path id="Shape-72" data-name="Shape" d="M31.38,36a3,3,0,0,1,.434.29l-.325.523L31,36.465c.163-.174.271-.349.38-.465" transform="translate(-5.789 -6.723)" fill="#fff" fill-rule="evenodd"/>
    <path id="Shape-73" data-name="Shape" d="M32.271,35c.2.074.339.148.542.222-.068.222-.2.37-.271.591a1.323,1.323,0,0,1-.542-.3A3.3,3.3,0,0,0,32.271,35" transform="translate(-5.976 -6.536)" fill="#fff" fill-rule="evenodd"/>
    <path id="Shape-74" data-name="Shape" d="M33.574,37a7.257,7.257,0,0,0,1.052.217,6.074,6.074,0,0,1-.574.6c-.383-.108-.765-.217-1.052-.325L33.574,37" transform="translate(-6.163 -6.91)" fill="#fff" fill-rule="evenodd"/>
    <path id="Shape-75" data-name="Shape" d="M34.271,35a1.6,1.6,0,0,0,.542.136,3.277,3.277,0,0,1-.217.678c-.217-.068-.38-.136-.6-.2a3,3,0,0,0,.271-.61" transform="translate(-6.349 -6.536)" fill="#fff" fill-rule="evenodd"/>
    <path id="Shape-76" data-name="Shape" d="M30.375,35a1.148,1.148,0,0,0,.438.37,2.909,2.909,0,0,1-.438.444L30,35.37a1.757,1.757,0,0,0,.375-.37" transform="translate(-5.602 -6.536)" fill="#fff" fill-rule="evenodd"/>
    <path id="Shape-77" data-name="Shape" d="M35.222,34h.591a2.251,2.251,0,0,1-.148.681c-.222,0-.444-.076-.665-.076a5.285,5.285,0,0,0,.222-.6" transform="translate(-6.536 -6.349)" fill="#fff" fill-rule="evenodd"/>
    <path id="Shape-78" data-name="Shape" d="M38.054,36a3.543,3.543,0,0,1-.054.755c.271,0,.542.058.813.058A4.1,4.1,0,0,0,38.759,36h-.7" transform="translate(-7.096 -6.723)" fill="#fff" fill-rule="evenodd"/>
    <path id="Shape-79" data-name="Shape" d="M24.688,19.813A2.566,2.566,0,0,0,24,19.751c0-.25.063-.5.063-.751.25.063.5.063.751.125a2.66,2.66,0,0,1-.125.688" transform="translate(-4.482 -3.548)" fill="#fff" fill-rule="evenodd"/>
    <path id="Shape-80" data-name="Shape" d="M29.434,19.813a3,3,0,0,1-.434-.29L29.325,19l.488.349a3.262,3.262,0,0,0-.38.465" transform="translate(-5.416 -3.548)" fill="#fff" fill-rule="evenodd"/>
    <path id="Shape-81" data-name="Shape" d="M28.542,20.813c-.2-.074-.339-.148-.542-.222.068-.222.2-.37.271-.591a1.323,1.323,0,0,1,.542.3,1.9,1.9,0,0,1-.271.518" transform="translate(-5.229 -3.735)" fill="#fff" fill-rule="evenodd"/>
    <path id="Shape-82" data-name="Shape" d="M28.052,18.813A7.258,7.258,0,0,0,27,18.6a6.074,6.074,0,0,1,.574-.6c.383.108.765.217,1.052.325a.95.95,0,0,0-.574.488" transform="translate(-5.042 -3.361)" fill="#fff" fill-rule="evenodd"/>
    <path id="Shape-83" data-name="Shape" d="M26.542,20.813A1.6,1.6,0,0,0,26,20.678,3.277,3.277,0,0,1,26.217,20c.217.068.38.136.6.2a1.514,1.514,0,0,0-.271.61" transform="translate(-4.855 -3.735)" fill="#fff" fill-rule="evenodd"/>
    <path id="Shape-84" data-name="Shape" d="M23.37,17.627c-.428-.086-.856-.086-1.37-.171A8.434,8.434,0,0,1,22.171,16a8.955,8.955,0,0,1,1.455.342,2.859,2.859,0,0,0-.257,1.284" transform="translate(-4.108 -2.988)" fill="#fff" fill-rule="evenodd"/>
    <path id="Shape-85" data-name="Shape" d="M30.438,20.813a1.148,1.148,0,0,0-.438-.37A2.909,2.909,0,0,1,30.438,20l.375.444c-.063.148-.188.222-.375.37" transform="translate(-5.602 -3.735)" fill="#fff" fill-rule="evenodd"/>
    <path id="Shape-86" data-name="Shape" d="M22.759,19.813h-.7c0-.29-.054-.523-.054-.813a3.835,3.835,0,0,1,.813.058,3.823,3.823,0,0,0-.054.755" transform="translate(-4.108 -3.548)" fill="#fff" fill-rule="evenodd"/>
    <path id="Shape-87" data-name="Shape" d="M22.813,24.563c-.068-.188-.068-.375-.136-.563-.2.063-.474.125-.678.188.068.188.136.438.2.626a2.512,2.512,0,0,1,.61-.25" transform="translate(-4.108 -4.482)" fill="#fff" fill-rule="evenodd"/>
    <path id="Shape-88" data-name="Shape" d="M24.68,23.591V23c-.227.074-.454.074-.68.148,0,.222.076.444.076.665a5.28,5.28,0,0,0,.6-.222" transform="translate(-4.482 -4.295)" fill="#fff" fill-rule="evenodd"/>
    <path id="Shape-89" data-name="Shape" d="M22.813,22.651c0-.217-.063-.434-.063-.651-.25.054-.5.054-.751.108.063.217.063.434.125.7.188-.054.438-.108.688-.163" transform="translate(-4.108 -4.108)" fill="#fff" fill-rule="evenodd"/>
    <path id="Shape-90" data-name="Shape" d="M24.739,21.678A2.121,2.121,0,0,1,24.813,21a3.3,3.3,0,0,0-.813.068v.745c.3-.068.518-.068.739-.136" transform="translate(-4.482 -3.922)" fill="#fff" fill-rule="evenodd"/>
    <path id="Shape-91" data-name="Shape" d="M23.813,25.5c-.074-.188-.148-.313-.222-.5a2.706,2.706,0,0,0-.591.313c.074.188.222.313.3.5a3.175,3.175,0,0,1,.518-.313" transform="translate(-4.295 -4.669)" fill="#fff" fill-rule="evenodd"/>
    <path id="Shape-92" data-name="Shape" d="M26.665,22.681a1.813,1.813,0,0,0,.148-.6c-.222,0-.444-.076-.665-.076-.074.227-.074.454-.148.681h.665" transform="translate(-4.855 -4.108)" fill="#fff" fill-rule="evenodd"/>
    <path id="Shape-93" data-name="Shape" d="M26.244,18.627c-.383-.1-.765-.191-1.244-.287A7.047,7.047,0,0,1,25.383,17a6.643,6.643,0,0,1,1.244.478c-.1.383-.287.765-.383,1.148" transform="translate(-4.669 -3.175)" fill="#fff" fill-rule="evenodd"/>
    <path id="Shape-94" data-name="Shape" d="M0,55.893v-3.72H.49v1.9l1.8-1.9h.654L1.308,53.73,2.86,55.98H2.206l-1.226-1.9-.572.606v1.3H0Zm64.149,0,1.389-3.72h.49l1.471,3.72h-.572l-.409-1.125H65.048l-.409,1.125Zm.981-1.471h1.226l-.409-1.038a4.186,4.186,0,0,0-.245-.779c-.082.26-.082.519-.163.692Zm-1.88-2.249h.49v3.72h-.49Zm-3.432,3.72v-3.72h1.307a1.511,1.511,0,0,1,.654.087.826.826,0,0,1,.409.346,1.28,1.28,0,0,1,.163.519c0,.173,0,.346-.163.433a.826.826,0,0,1-.409.346.752.752,0,0,1,.49.346,1.305,1.305,0,0,1,.163.606,1.155,1.155,0,0,1-.082.519,1.19,1.19,0,0,1-.245.346.607.607,0,0,1-.409.173c-.163,0-.327.087-.572.087H59.818Zm.49-2.163h.735c.245,0,.327,0,.409-.087.082,0,.245-.087.245-.173.082-.087.082-.173.082-.346a.544.544,0,0,0-.082-.346c-.082-.087-.163-.173-.245-.173a2.751,2.751,0,0,0-.572-.087h-.735V53.73Zm0,1.73h1.226c.082,0,.163-.087.245-.087.082-.087.163-.087.163-.173.082-.087.082-.173.082-.346s0-.26-.082-.346l-.245-.26c-.082,0-.327-.087-.49-.087H60.39v1.3Zm-4.168.433,1.389-3.72h.49l1.471,3.72h-.572l-.409-1.125H57.04l-.409,1.125Zm.981-1.471h1.226l-.409-1.038a4.186,4.186,0,0,0-.245-.779c-.082.26-.082.519-.163.692Zm-4.168,1.471v-3.72h1.553a1.72,1.72,0,0,1,.735.087.826.826,0,0,1,.409.346,1.305,1.305,0,0,1,.163.606,1.016,1.016,0,0,1-.245.692,1.5,1.5,0,0,1-.735.346c.163.087.245.087.245.173a2.713,2.713,0,0,1,.409.519l.654,1.038h-.572l-.49-.779a5.154,5.154,0,0,0-.327-.519l-.245-.26a.29.29,0,0,0-.245-.087h-.817V55.98h-.49Zm.49-2.076h.981c.245,0,.409,0,.49-.087s.245-.087.245-.26c.082-.087.082-.173.082-.346a.682.682,0,0,0-.163-.433.916.916,0,0,0-.572-.173H53.363v1.3Zm-4.168,2.076,1.389-3.72h.49l1.471,3.72h-.572l-.409-1.125H50.175l-.409,1.125Zm.981-1.471h1.226l-.409-1.038a4.186,4.186,0,0,0-.245-.779c-.082.26-.082.519-.163.692Zm-3.024-2.249h.49v3.72h-.49Zm-3.677,3.72v-3.72h1.226a1.511,1.511,0,0,1,.654.087,2.665,2.665,0,0,1,.49.26,1.553,1.553,0,0,1,.409.606,2.69,2.69,0,0,1,.163.865,2.529,2.529,0,0,1-.082.779,1.44,1.44,0,0,1-.245.519c-.082.173-.245.26-.327.346a.607.607,0,0,1-.409.173c-.163,0-.327.087-.572.087Zm.49-.433h.735a1.151,1.151,0,0,0,.572-.087c.163-.087.245-.087.327-.173a1.44,1.44,0,0,0,.245-.519,1.779,1.779,0,0,0,.082-.692,1.953,1.953,0,0,0-.163-.865,1.016,1.016,0,0,0-.409-.433,1.151,1.151,0,0,0-.572-.087h-.735v2.855ZM42.33,52.173h.49v2.163a2.545,2.545,0,0,1-.082.865.874.874,0,0,1-.409.519,1.282,1.282,0,0,1-.817.173,2.3,2.3,0,0,1-.817-.173c-.245-.087-.327-.26-.49-.519a2.809,2.809,0,0,1-.163-.952V52.087h.49v2.163c0,.346,0,.606.082.692a.658.658,0,0,0,.327.346.985.985,0,0,0,.49.087.965.965,0,0,0,.735-.26,1.45,1.45,0,0,0,.245-.952v-1.99Zm-6.047,3.72,1.389-3.72h.49l1.471,3.72h-.572l-.409-1.125H37.182l-.409,1.125Zm.981-1.471H38.49l-.409-1.038a4.187,4.187,0,0,0-.245-.779c-.082.26-.082.519-.163.692Zm-4.086.26h.409a.682.682,0,0,0,.163.433c.082.087.163.26.327.26a1.151,1.151,0,0,0,.572.087.985.985,0,0,0,.49-.087,1.138,1.138,0,0,0,.327-.26c.082-.087.082-.173.082-.346a.544.544,0,0,0-.082-.346,1.138,1.138,0,0,0-.327-.26,6.693,6.693,0,0,1-.654-.173,1.734,1.734,0,0,1-.654-.26.826.826,0,0,1-.409-.346.945.945,0,0,1-.163-.433,1.28,1.28,0,0,1,.163-.519.826.826,0,0,1,.409-.346A1.511,1.511,0,0,1,34.485,52a2.275,2.275,0,0,1,.735.173,2.2,2.2,0,0,1,.49.433,1.305,1.305,0,0,1,.163.606h-.49a.532.532,0,0,0-.245-.519,1.212,1.212,0,0,0-.654-.173,1.472,1.472,0,0,0-.654.173c-.163.087-.163.26-.163.433a.458.458,0,0,0,.163.346,1.724,1.724,0,0,0,.735.26,3.18,3.18,0,0,1,.817.26c.245.087.327.26.49.346a1.28,1.28,0,0,1,.163.519,2.3,2.3,0,0,1-.163.606.852.852,0,0,1-.49.433,1.472,1.472,0,0,1-.654.173,2.3,2.3,0,0,1-.817-.173.852.852,0,0,1-.49-.433,1.451,1.451,0,0,1-.245-.779Zm-4.249,1.211v-3.72H31.3v.433H29.337V53.73h1.634v.433H29.337v1.73Zm-4-1.817a2.107,2.107,0,0,1,.49-1.471,1.616,1.616,0,0,1,1.226-.519,1.579,1.579,0,0,1,.9.26,1.517,1.517,0,0,1,.572.692,1.93,1.93,0,0,1,.245,1.038,2.413,2.413,0,0,1-.245,1.038,1.726,1.726,0,0,1-.654.692,1.686,1.686,0,0,1-1.8,0,1.517,1.517,0,0,1-.572-.692,4.576,4.576,0,0,1-.163-1.038Zm.49,0a1.43,1.43,0,0,0,.327,1.038,1.145,1.145,0,0,0,.9.433,1.281,1.281,0,0,0,.9-.433,1.525,1.525,0,0,0,.327-1.125,1.811,1.811,0,0,0-.163-.779.874.874,0,0,0-.409-.519,1.472,1.472,0,0,0-.654-.173,1.189,1.189,0,0,0-.9.346,2.335,2.335,0,0,0-.327,1.211Zm-5.884,1.817v-3.72h.735l.817,2.682a3.546,3.546,0,0,1,.163.519,2.3,2.3,0,0,1,.163-.606l.817-2.6h.654v3.72h-.49V52.779l-1.062,3.115H20.92l-1.062-3.2v3.2Zm-4-1.817a2.107,2.107,0,0,1,.49-1.471,1.616,1.616,0,0,1,1.226-.519,1.579,1.579,0,0,1,.9.26,1.517,1.517,0,0,1,.572.692,1.93,1.93,0,0,1,.245,1.038,2.413,2.413,0,0,1-.245,1.038,1.726,1.726,0,0,1-.654.692,1.686,1.686,0,0,1-1.8,0,1.517,1.517,0,0,1-.572-.692,4.576,4.576,0,0,1-.163-1.038Zm.49,0a1.43,1.43,0,0,0,.327,1.038,1.145,1.145,0,0,0,.9.433,1.281,1.281,0,0,0,.9-.433,1.525,1.525,0,0,0,.327-1.125,1.811,1.811,0,0,0-.163-.779.874.874,0,0,0-.409-.519,1.472,1.472,0,0,0-.654-.173,1.19,1.19,0,0,0-.9.346,2.335,2.335,0,0,0-.327,1.211Zm-3.923,1.817v-3.72H13.32a1.511,1.511,0,0,1,.654.087,2.665,2.665,0,0,1,.49.26,1.553,1.553,0,0,1,.409.606,2.69,2.69,0,0,1,.163.865,2.529,2.529,0,0,1-.082.779,1.44,1.44,0,0,1-.245.519c-.082.173-.245.26-.327.346a.607.607,0,0,1-.409.173c-.163,0-.327.087-.572.087Zm.49-.433h.735a1.151,1.151,0,0,0,.572-.087c.163-.087.245-.087.327-.173a1.44,1.44,0,0,0,.245-.519,1.779,1.779,0,0,0,.082-.692,1.953,1.953,0,0,0-.163-.865,1.016,1.016,0,0,0-.409-.433,1.151,1.151,0,0,0-.572-.087h-.735v2.855Zm-2.7-1.038V53.99h1.471v1.384a3.263,3.263,0,0,1-.735.433,2.274,2.274,0,0,1-.735.173,2.08,2.08,0,0,1-.981-.26,1.724,1.724,0,0,1-.654-.692,1.93,1.93,0,0,1-.245-1.038,2.413,2.413,0,0,1,.245-1.038,1.316,1.316,0,0,1,.654-.692,1.579,1.579,0,0,1,.9-.26,2.275,2.275,0,0,1,.735.173.752.752,0,0,1,.49.346,1.331,1.331,0,0,1,.245.606l-.409.087c-.082-.173-.082-.346-.163-.433a1.137,1.137,0,0,0-.327-.26.985.985,0,0,0-.49-.087,1.151,1.151,0,0,0-.572.087c-.163.087-.245.173-.409.26-.082.087-.163.26-.245.346A2.653,2.653,0,0,0,8.5,53.9a2.69,2.69,0,0,0,.163.865.76.76,0,0,0,.49.519,1.837,1.837,0,0,0,.654.173,1.32,1.32,0,0,0,.572-.087,1.771,1.771,0,0,0,.409-.26v-.692Zm-5.23,1.471v-3.72h.49l1.88,2.942V52.173h.49v3.72h-.49l-1.88-2.942v2.942ZM3.35,52.173h.49v3.72H3.35Z" transform="translate(0 -9.711)" fill="#fff" fill-rule="evenodd"/>
    <path id="Shape-95" data-name="Shape" d="M29.88,22a1.906,1.906,0,0,1,.252.733,1.011,1.011,0,0,1,1.514-.163s-.841-.081-1.094.326c0,0,1.346-.326,1.6.9,0,0-.589-.652-1.178-.57a1.4,1.4,0,0,1,.925,1.711s-.084-1.141-1.01-1.3a1.862,1.862,0,0,1,.5,1.956A1.88,1.88,0,0,0,30.8,24.2a1.987,1.987,0,0,1-.252,1.874s.337-1.141-.252-1.548c0,0-.252-.163-.252.244a28.733,28.733,0,0,0,.084,3.585s2.44-2.037,4.627-.652c0,0-2.1-.978-4.543,1.222l1.6,1.385a.442.442,0,0,1,.337-.163.391.391,0,0,1,.421.407c0,.489-.757.489-1.01.163L29.88,29.17h0L28.2,30.719c-.252.326-1.01.326-1.01-.163a.391.391,0,0,1,.421-.407.442.442,0,0,1,.337.163l1.6-1.385C27.1,26.726,25,27.7,25,27.7c2.1-1.385,4.627.652,4.627.652.084-1.141.084-3.585.084-3.585,0-.407-.252-.244-.252-.244-.589.407-.252,1.548-.252,1.548a1.987,1.987,0,0,1-.252-1.874,1.988,1.988,0,0,0-.589,1.385,1.862,1.862,0,0,1,.5-1.956c-.841.163-1.01,1.3-1.01,1.3a1.4,1.4,0,0,1,.925-1.711c-.589-.081-1.178.57-1.178.57.252-1.222,1.6-.9,1.6-.9-.168-.407-1.094-.326-1.094-.326a1.011,1.011,0,0,1,1.514.163A1.906,1.906,0,0,1,29.88,22" transform="translate(-4.669 -4.108)" fill="#fff" fill-rule="evenodd"/>
    <path id="Shape-96" data-name="Shape" d="M3.578,49.268h.488v-.51H3.578ZM2.521,44.085H2.033v.51h.488Zm1.87,5.183H4.88v-.51H4.392Zm-2.6-5.183H1.3v.51h.488Zm5.774,1.444a.82.82,0,0,0-.407-.34.992.992,0,0,0-.488-.085H6.343v.425H6.75a.593.593,0,0,1,.325.085c.081.085.163.085.244.17s.081.17.163.255v1.7H5.449v.425H7.97V46.379a1.121,1.121,0,0,0-.081-.51c-.163-.085-.244-.255-.325-.34Zm17.16,2.719h.407V44.085h-.407Zm-1.789-.425H22.2a1.522,1.522,0,0,1-.651-.085.65.65,0,0,1-.325-.34,3.825,3.825,0,0,0,.081-.425V45.529H20.9v1.529a.99.99,0,0,1-.244.68.783.783,0,0,1-.651.255c-.163,0-.244,0-.325-.085-.081,0-.163-.085-.244-.17s-.163-.17-.163-.255c-.081-.085-.081-.17-.081-.34V45.529h-.407v1.614c0,.17,0,.255-.081.34,0,.085-.081.17-.163.255s-.163.085-.244.17c-.081,0-.163.085-.244.085H17.16V45.614h-.407v2.379H14.476l.732-1.954c-.081-.085-.244-.17-.407-.34-.163-.085-.244-.17-.407-.255a1.339,1.339,0,0,0-.407-.17,3.39,3.39,0,0,1-.407-.085c-.163,0-.325,0-.407.085s-.325.085-.407.17c-.163.085-.244.17-.407.255a1.44,1.44,0,0,0-.407.34l.813,1.954H11.223V45.359h-.732a2.16,2.16,0,0,0-.732.085,1.3,1.3,0,0,0-.569.34,2.234,2.234,0,0,0-.407.51,1.629,1.629,0,0,0-.163.595,1.658,1.658,0,0,0,.163.68,2.234,2.234,0,0,0,.407.51,1.189,1.189,0,0,0,.569.255,2.16,2.16,0,0,0,.732.085h.244V48.5a.738.738,0,0,1-.163.51,1.139,1.139,0,0,1-.569.17H9.6a1.339,1.339,0,0,1-.407-.17l-.163.425c.163.085.325.085.407.17.163,0,.244.085.407.085a1.262,1.262,0,0,0,.976-.34,1.329,1.329,0,0,0,.325-.85v-.085h6.913a1.139,1.139,0,0,0,.569-.17,1,1,0,0,0,.407-.425,1,1,0,0,0,.407.425,1.33,1.33,0,0,0,1.3,0,1,1,0,0,0,.407-.425.179.179,0,0,0,.163.17l.163.17c.081.085.163.085.325.085h1.627V44.085h-.407v3.739Zm10.735,1.444h.488v-.51h-.488Zm4.31-1.444-.651-1.784a1.7,1.7,0,0,1,.488-.34,1.95,1.95,0,0,1,1.139,0,.747.747,0,0,1,.488.34l-.732,1.784Zm3.172,0H39.28l.813-1.954c-.081-.085-.244-.17-.407-.34-.163-.085-.244-.17-.407-.255s-.244-.085-.407-.17a3.39,3.39,0,0,1-.407-.085c-.163,0-.325,0-.407.085a.608.608,0,0,0-.407.17c-.163.085-.244.17-.407.255a1.44,1.44,0,0,0-.407.34c.813,1.869.813,1.954.813,1.954H36.027V45.1H35.62v3.569c0,.085,0,.17-.081.17,0,.085-.081.085-.163.085h-.325l-.081.425c.163,0,.244.085.325.085.163,0,.325,0,.407-.085s.163-.085.244-.255c.081-.085.081-.255.163-.34v-.595H41.8V44h-.407v3.823Zm-9.108,1.444h.488v-.51h-.488Zm-2.684-1.444h-.407a.992.992,0,0,1-.488-.085,1.075,1.075,0,0,1-.407-.255,1.169,1.169,0,0,1-.244-.34.96.96,0,0,1-.081-.425.66.66,0,0,1,.081-.425c.081-.085.163-.255.244-.34a1.765,1.765,0,0,1,.407-.255.851.851,0,0,1,.407-.085h.407v2.209ZM34.075,45.1h-.407v2.719H32.042V45.1h-.407v2.719H29.846V45.1h-.732c-.244,0-.488.085-.732.085a1.3,1.3,0,0,0-.569.34,2.234,2.234,0,0,0-.407.51,1.629,1.629,0,0,0-.163.595,1.658,1.658,0,0,0,.163.68,2.234,2.234,0,0,0,.407.51,3.877,3.877,0,0,0,.569.255,1.938,1.938,0,0,0,.732.085h5.042V45.1ZM31.31,49.268H31.8v-.51H31.31Zm-1.545-5.1h-.407v.51h.488v-.51Zm-.732,0h-.488v.51h.488Zm13.825,4.078h.407V44.085h-.407Zm19.762-.425c-.081.17-.163.255-.244.425-.081.085-.244.17-.325.255a1.444,1.444,0,0,1-.976,0,1.129,1.129,0,0,1-.325-.255,1.875,1.875,0,0,1-.244-.425.96.96,0,0,1-.081-.425,1.121,1.121,0,0,1,.081-.51c.081-.17.163-.255.244-.425.081-.085.244-.17.325-.255a1.444,1.444,0,0,1,.976,0c.163.085.244.17.407.255a1.875,1.875,0,0,1,.244.425,1.121,1.121,0,0,1,.081.51c-.081.17-.081.34-.163.425Zm-4.31,0c-.081.17-.163.255-.244.425a1.765,1.765,0,0,1-.407.255,1.444,1.444,0,0,1-.976,0,1.129,1.129,0,0,1-.325-.255,1.875,1.875,0,0,1-.244-.425.96.96,0,0,1-.081-.425,1.121,1.121,0,0,1,.081-.51c.081-.17.163-.255.244-.425.081-.085.244-.17.325-.255a1.444,1.444,0,0,1,.976,0c.163.085.244.17.407.255a1.875,1.875,0,0,1,.244.425,1.121,1.121,0,0,1,.081.51.66.66,0,0,1-.081.425Zm-10.735.255h-.407a.992.992,0,0,1-.488-.085,1.075,1.075,0,0,1-.407-.255,1.169,1.169,0,0,1-.244-.34.96.96,0,0,1-.081-.425.66.66,0,0,1,.081-.425c.081-.085.163-.255.244-.34a1.765,1.765,0,0,1,.407-.255.851.851,0,0,1,.407-.085h.407v2.209Zm17,0H63.027a1.5,1.5,0,0,0,0-1.359c-.081-.17-.163-.425-.325-.51a1.7,1.7,0,0,0-.488-.34,1.522,1.522,0,0,0-.651-.085,1.719,1.719,0,0,0-.651.085,1.7,1.7,0,0,0-.488.34,1.786,1.786,0,0,0-.325.51,1.658,1.658,0,0,0-.163.68v.34c0,.085.081.17.081.34H58.635a1.5,1.5,0,0,0,0-1.359c-.081-.17-.163-.425-.325-.51a1.7,1.7,0,0,0-.488-.34,1.522,1.522,0,0,0-.651-.085,1.719,1.719,0,0,0-.651.085,1.7,1.7,0,0,0-.488.34,1.786,1.786,0,0,0-.325.51,1.725,1.725,0,0,0-.081.68v.34c0,.085.081.17.081.34H54.325V44.425h-.407v3.654H52.536V47.4a1.121,1.121,0,0,0-.081-.51c-.081-.17-.081-.34-.244-.425a1.791,1.791,0,0,0-.407-.34,1.159,1.159,0,0,0-.569-.085H49.283l.813-1.7h-.488L48.8,45.954a.321.321,0,0,0,.081.255.179.179,0,0,0,.163.17h2.277c.163,0,.244,0,.325.085.081,0,.163.085.244.17s.081.17.163.255v1.02H47.982V45.19H47.25c-.244,0-.488.085-.732.085a1.3,1.3,0,0,0-.569.34,1.786,1.786,0,0,0-.325.51,1.629,1.629,0,0,0-.163.595,1.658,1.658,0,0,0,.163.68,2.234,2.234,0,0,0,.407.51,3.877,3.877,0,0,0,.569.255,2.16,2.16,0,0,0,.732.085h8.783a2.18,2.18,0,0,0,.488.425,1.848,1.848,0,0,0,.651.17.848.848,0,0,0,.651-.17.638.638,0,0,0,.488-.425h1.952a2.18,2.18,0,0,0,.488.425,1.848,1.848,0,0,0,.651.17.848.848,0,0,0,.651-.17.638.638,0,0,0,.488-.425H64.9V44.085h-.407v3.993Zm1.708.425h.407V44.34H66.28ZM47.25,44.425h-.488v.51h.488Zm.732,0h-.488v.51h.488ZM4.717,45.1H4.31v2.634H2.521V45.1H1.789a2.16,2.16,0,0,0-.732.085,1.3,1.3,0,0,0-.569.34,1.786,1.786,0,0,0-.325.51A1.629,1.629,0,0,0,0,46.634a1.658,1.658,0,0,0,.163.68,2.234,2.234,0,0,0,.407.51,1.189,1.189,0,0,0,.569.255,2.16,2.16,0,0,0,.732.085H4.8V45.1Zm-2.6,2.719H1.708a.992.992,0,0,1-.488-.085,1.075,1.075,0,0,1-.407-.255,1.169,1.169,0,0,1-.244-.34.8.8,0,0,1-.081-.425.66.66,0,0,1,.081-.425,1.169,1.169,0,0,1,.244-.34A1.765,1.765,0,0,1,1.22,45.7a.851.851,0,0,1,.407-.085h.407v2.209Zm8.539,0h-.407a.992.992,0,0,1-.488-.085,1.075,1.075,0,0,1-.407-.255c-.081-.085-.244-.17-.244-.34a.8.8,0,0,1-.081-.425.66.66,0,0,1,.081-.425,1.169,1.169,0,0,1,.244-.34,1.765,1.765,0,0,1,.407-.255.992.992,0,0,1,.488-.085h.407Zm2.44,0-.732-1.784a1.7,1.7,0,0,1,.488-.34,1.159,1.159,0,0,1,.569-.085,1.329,1.329,0,0,1,.569.085,1.7,1.7,0,0,1,.488.34l-.651,1.784Z" transform="translate(0 -8.217)" fill="#fff" fill-rule="evenodd"/>
    <path id="Shape-97" data-name="Shape" d="M62.81,10.632h.732v.753H62.81Zm1.545,0h.732v.753h-.732ZM49.229,1.674H48.5V.921h.732ZM67.608,7.2a5.4,5.4,0,0,0,.976.5,6.109,6.109,0,0,0,1.22.167h.163l.244-.586v.753a1.55,1.55,0,0,1-.325.921,1.7,1.7,0,0,1-.976.251,1.743,1.743,0,0,1-.651-.084,3.287,3.287,0,0,1-.651-.251l-.244.753c.325.084.569.167.813.251a1.967,1.967,0,0,0,.651.084,2.245,2.245,0,0,0,1.627-.5,2,2,0,0,0,.488-1.423V2.6h-1.22a6.15,6.15,0,0,0-1.3.167,2.8,2.8,0,0,0-.976.586,2.117,2.117,0,0,0-.651.837,2.373,2.373,0,0,0-.244,1.088A2.74,2.74,0,0,0,66.8,6.446a7.41,7.41,0,0,0,.813.753Zm0-2.846a1.117,1.117,0,0,1,.488-.586,1.764,1.764,0,0,1,.651-.419,2.317,2.317,0,0,1,.732-.167H70.7l-.407.251V6.949h-.813a2.439,2.439,0,0,1-.813-.084,4.776,4.776,0,0,1-.651-.335,1.5,1.5,0,0,1-.407-.586,2.505,2.505,0,0,1-.163-.753,1,1,0,0,1,.163-.837ZM50.774,1.674h-.732V.921h.732Zm22.2,8.288a1.743,1.743,0,0,1-.651-.084l.163-.753a.293.293,0,0,1,.244.084h.163c.163,0,.244,0,.325-.084.081,0,.163-.084.244-.167a.642.642,0,0,0,.081-.419V2.512h.732V7.953a2.654,2.654,0,0,1-.081.837c-.081.251-.163.419-.244.67a1,1,0,0,1-.407.419,4.463,4.463,0,0,1-.569.084ZM48.66,9.879H50.2V9.293a.081.081,0,0,0,.081.084.84.84,0,0,0,.488.419,1.5,1.5,0,0,0,.651.167H65.331V2.6H64.6V9.209H51.425a.715.715,0,0,1-.407-.084c-.081-.084-.163-.084-.244-.251-.081-.084-.081-.251-.163-.419V2.428H48.578A3.561,3.561,0,0,0,45,6.111h0a3.809,3.809,0,0,0,3.66,3.767ZM45.976,6.111a2.791,2.791,0,0,1,2.684-2.93h1.789l-.488.251V7.869a2.654,2.654,0,0,0,.081.837c0,.167.081.251.081.419H48.66a2.868,2.868,0,0,1-2.684-3.014ZM70.129,0h.651V.586h-.569a.219.219,0,0,0-.244.251v.251h.976v.586H69.316V.837A.888.888,0,0,1,70.129,0Z" transform="translate(-8.404)" fill="#fff" fill-rule="evenodd"/>
    <path id="Shape-98" data-name="Shape" d="M32.538,3.161h.805v7.078H32.7L27.706,3.885l.4,1.046v5.308H27.3V3.161h.725L32.86,9.274l-.322-.885ZM3.06,10.239,0,3.08H.886l.4,1.046L3.383,9.113l.242.483-.081-.8L5.96,3h.886l-3.06,7.158H3.06ZM16.591,3.161H17.4v7.078h-.805ZM25.209,6.7a2.753,2.753,0,0,1-2.738,2.9,2.818,2.818,0,0,1-2.819-2.9h0a2.781,2.781,0,1,1,5.557,0ZM22.39,3a3.556,3.556,0,0,0-3.624,3.619h0a3.624,3.624,0,0,0,7.249,0h0A3.556,3.556,0,0,0,22.39,3ZM15.3,8.308h0a2.159,2.159,0,0,1-2.416,2.011,4.373,4.373,0,0,1-2.9-1.126l.483-.563a3.413,3.413,0,0,0,2.416.965c.966,0,1.611-.483,1.611-1.206h0c0-.643-.322-1.046-1.852-1.367-1.611-.322-2.336-.885-2.336-2.011h0a2.077,2.077,0,0,1,2.336-1.93,3.78,3.78,0,0,1,2.5.885l-.483.643a2.933,2.933,0,0,0-2.013-.8c-.886,0-1.53.483-1.53,1.126h0c0,.643.4,1.046,1.933,1.367S15.3,7.182,15.3,8.308Zm-6.524,1.93H7.973V3.161h.805Z" transform="translate(0 -0.56)" fill="#fff" fill-rule="evenodd"/>
  </g>
</svg>
