<svg id="Component_13_1" data-name="Component 13 – 1" xmlns="http://www.w3.org/2000/svg" width="67" height="52" viewBox="0 0 67 52">
  <g id="icons_visual_placeholder" data-name="icons/visual/placeholder" transform="translate(26.8 0.445)">
    <rect id="Rectangle" width="40" height="41" rx="20" transform="translate(0.2 -0.445)" fill="#ee343f" opacity="0.3"/>
  </g>
  <g id="info" transform="translate(0 6)">
    <rect id="Path" width="46" height="46" fill="none"/>
    <path id="Color" d="M6.173,6.173a21.073,21.073,0,1,0,29.8,29.8,21.073,21.073,0,1,0-29.8-29.8Zm-2.342,14.9A17.243,17.243,0,1,1,21.074,38.316,17.262,17.262,0,0,1,3.831,21.074ZM19.158,13.41v7.663a1.916,1.916,0,1,0,3.831,0V13.41a1.916,1.916,0,0,0-3.831,0Zm0,15.327a1.916,1.916,0,1,0,1.916-1.916A1.915,1.915,0,0,0,19.158,28.736Z" transform="translate(1.916 1.917)" fill="#ee343f"/>
  </g>
</svg>
